//Event file generated from Sappy .s format.
        #include "MPlayDef.event"

        #define    Plantation_Crash_Zone66_Song_grp  voicegroup000
        #define    Plantation_Crash_Zone66_Song_pri  0
        #define    Plantation_Crash_Zone66_Song_rev  0
        #define    Plantation_Crash_Zone66_Song_key  0

        // .rodata
        // Plantation_Crash_Zone66_Song
        ALIGN 4

//****************** Track 0 (Midi-Chn.0) ******************//

Plantation_Crash_Zone66_Song_0:
        BYTE   KEYSH   Plantation_Crash_Zone66_Song_key+0
// 000   ----------------------------------------
        BYTE   TEMPO   108/2
        BYTE           VOICE   93
        BYTE           VOL     74
        BYTE           PAN     c_v-24
        BYTE           N92     Dn4   v123   gtp3
        BYTE                   An3   v127
        BYTE           N92     Gn3   v123   gtp3
        BYTE                   As3   v127
        BYTE   W92
        BYTE   W03
        BYTE           N96     Gn3
        BYTE   W01
// 001   ----------------------------------------
        BYTE           N92     Dn4   v127   gtp3
        BYTE                   Fn3
        BYTE           N92     Cn4   v123   gtp3
        BYTE   W96
// 002   ----------------------------------------
        BYTE                   Gn3
        BYTE           N92     As3   v127   gtp3
        BYTE                   Dn4   v123
        BYTE           N92     An3   v127   gtp3
        BYTE   W92
        BYTE   W03
        BYTE           N96     Gn3
        BYTE   W01
// 003   ----------------------------------------
Plantation_Crash_Zone66_Song_0_3:
        BYTE           N92     Cn4   v123   gtp3
        BYTE                   Fn3   v127
        BYTE           N92     Dn4   v127   gtp3
        BYTE   W96
        BYTE   PEND
// 004   ----------------------------------------
        BYTE                   As3
        BYTE           N92     Dn4   v123   gtp3
        BYTE                   An3   v127
        BYTE           N92     Gn3   v123   gtp3
        BYTE   W92
        BYTE   W03
        BYTE           N96     Gn3   v127
        BYTE   W01
// 005   ----------------------------------------
        BYTE   PATT
         POIN2  Plantation_Crash_Zone66_Song_0_3
// 006   ----------------------------------------
        BYTE           N92     Gn3   v123   gtp3
        BYTE                   Dn4
        BYTE           N92     An3   v127   gtp3
        BYTE                   As3
        BYTE   W92
        BYTE   W03
        BYTE           N96     Gn3
        BYTE   W01
// 007   ----------------------------------------
        BYTE           N92     Dn4   v127   gtp3
        BYTE                   Cn4   v123
        BYTE           N92     Fn3   v127   gtp3
        BYTE   W96
// 008   ----------------------------------------
        BYTE           TIE     As3
        BYTE           TIE     Dn4   v123
        BYTE           TIE     Gn3
        BYTE           TIE     An3   v127
        BYTE   W96
// 009   ----------------------------------------
        BYTE   W96
// 010   ----------------------------------------
Plantation_Crash_Zone66_Song_0_10:
        BYTE   W92
        BYTE   W03
        BYTE           EOT     As3
        BYTE                   Dn4
        BYTE                   Gn3
        BYTE                   An3
        BYTE   W01
        BYTE   PEND
// 011   ----------------------------------------
        BYTE   W96
// 012   ----------------------------------------
        BYTE   W96
// 013   ----------------------------------------
        BYTE   W96
// 014   ----------------------------------------
        BYTE   W96
// 015   ----------------------------------------
        BYTE   W96
// 016   ----------------------------------------
        BYTE   W96
// 017   ----------------------------------------
        BYTE   W96
// 018   ----------------------------------------
        BYTE   W96
// 019   ----------------------------------------
        BYTE   W96
// 020   ----------------------------------------
        BYTE   W96
// 021   ----------------------------------------
        BYTE   W96
// 022   ----------------------------------------
        BYTE   W96
// 023   ----------------------------------------
        BYTE   W96
// 024   ----------------------------------------
        BYTE   W96
// 025   ----------------------------------------
        BYTE   W96
// 026   ----------------------------------------
        BYTE   W96
// 027   ----------------------------------------
        BYTE   W96
// 028   ----------------------------------------
        BYTE   W96
// 029   ----------------------------------------
        BYTE   W96
// 030   ----------------------------------------
        BYTE   W96
// 031   ----------------------------------------
        BYTE   W96
// 032   ----------------------------------------
        BYTE   W96
// 033   ----------------------------------------
        BYTE   W96
// 034   ----------------------------------------
        BYTE   W96
// 035   ----------------------------------------
        BYTE   W96
// 036   ----------------------------------------
        BYTE   W96
// 037   ----------------------------------------
        BYTE   W96
// 038   ----------------------------------------
        BYTE   W96
// 039   ----------------------------------------
        BYTE   W96
// 040   ----------------------------------------
        BYTE   W96
// 041   ----------------------------------------
        BYTE   W96
// 042   ----------------------------------------
        BYTE   W96
// 043   ----------------------------------------
        BYTE   W96
// 044   ----------------------------------------
        BYTE   W96
// 045   ----------------------------------------
        BYTE   W96
// 046   ----------------------------------------
        BYTE   W96
// 047   ----------------------------------------
        BYTE   W96
// 048   ----------------------------------------
        BYTE   W96
// 049   ----------------------------------------
        BYTE   W72
// 050   ----------------------------------------
Plantation_Crash_Zone66_Song_0_LOOP:
        BYTE           TIE     As3   v127
        BYTE           TIE     Dn4   v123
        BYTE           TIE     Gn3
        BYTE           TIE     An3   v127
        BYTE   W96
// 051   ----------------------------------------
        BYTE   W96
// 052   ----------------------------------------
        BYTE   PATT
         POIN2  Plantation_Crash_Zone66_Song_0_10
// 053   ----------------------------------------
        BYTE   W96
// 054   ----------------------------------------
        BYTE   W96
// 055   ----------------------------------------
        BYTE   W96
// 056   ----------------------------------------
        BYTE   W96
// 057   ----------------------------------------
        BYTE   W96
// 058   ----------------------------------------
        BYTE   W96
// 059   ----------------------------------------
        BYTE   W96
// 060   ----------------------------------------
        BYTE   W96
// 061   ----------------------------------------
        BYTE   W96
// 062   ----------------------------------------
        BYTE   W96
// 063   ----------------------------------------
        BYTE   W96
// 064   ----------------------------------------
        BYTE   W96
// 065   ----------------------------------------
        BYTE   W96
// 066   ----------------------------------------
        BYTE   W96
// 067   ----------------------------------------
        BYTE   W96
// 068   ----------------------------------------
        BYTE   W96
// 069   ----------------------------------------
        BYTE   W96
// 070   ----------------------------------------
        BYTE   W96
// 071   ----------------------------------------
        BYTE   W96
// 072   ----------------------------------------
        BYTE   W96
// 073   ----------------------------------------
        BYTE   W96
// 074   ----------------------------------------
        BYTE   W96
// 075   ----------------------------------------
        BYTE   W96
// 076   ----------------------------------------
        BYTE   W96
// 077   ----------------------------------------
        BYTE   W96
// 078   ----------------------------------------
        BYTE   W96
// 079   ----------------------------------------
        BYTE   W96
// 080   ----------------------------------------
        BYTE   W96
// 081   ----------------------------------------
        BYTE   W96
// 082   ----------------------------------------
        BYTE   W96
// 083   ----------------------------------------
        BYTE   W96
// 084   ----------------------------------------
        BYTE   W96
// 085   ----------------------------------------
        BYTE   W96
// 086   ----------------------------------------
        BYTE   W96
// 087   ----------------------------------------
        BYTE   W96
// 088   ----------------------------------------
        BYTE   W96
// 089   ----------------------------------------
        BYTE   W96
// 090   ----------------------------------------
        BYTE   W96
// 091   ----------------------------------------
        BYTE   W72
// 092   ----------------------------------------
        BYTE   GoTo
         POIN2  Plantation_Crash_Zone66_Song_0_LOOP
        BYTE   FINE

//****************** Track 1 (Midi-Chn.1) ******************//

Plantation_Crash_Zone66_Song_1:
        BYTE   KEYSH   Plantation_Crash_Zone66_Song_key+0
// 000   ----------------------------------------
        BYTE           VOICE   8
        BYTE           VOL     74
        BYTE           N05     Dn3   v127
        BYTE   W12
        BYTE                   Dn4
        BYTE   W06
        BYTE                   Dn3   v100
        BYTE   W06
        BYTE                   An3   v127
        BYTE   W06
        BYTE                   Dn4   v100
        BYTE   W06
        BYTE                   As3   v127
        BYTE           N05     Dn3   v050
        BYTE   W06
        BYTE                   An3   v100
        BYTE   W06
        BYTE                   Dn4   v050
        BYTE   W06
        BYTE                   As3   v100
        BYTE   W06
        BYTE                   An3   v127
        BYTE   W12
        BYTE                   As3   v050
        BYTE           N05     Gn3   v127
        BYTE   W06
        BYTE                   An3   v100
        BYTE   W06
        BYTE                   An3   v127
        BYTE   W06
        BYTE                   Gn3   v100
        BYTE   W06
// 001   ----------------------------------------
        BYTE                   Dn3   v127
        BYTE           N05     An3   v050
        BYTE   W06
        BYTE                   An3   v100
        BYTE   W06
        BYTE                   Gn3   v050
        BYTE           N05     Dn4   v127
        BYTE   W06
        BYTE                   Dn3   v100
        BYTE   W06
        BYTE                   An3   v127
        BYTE   W06
        BYTE                   Dn4   v100
        BYTE   W06
        BYTE                   Cn4   v127
        BYTE           N05     Dn3   v050
        BYTE   W06
        BYTE                   An3   v100
        BYTE   W06
        BYTE                   Dn4   v050
        BYTE   W06
        BYTE                   Cn4   v100
        BYTE   W06
        BYTE                   An3   v127
        BYTE   W12
        BYTE                   Cn4   v050
        BYTE           N05     Gn3   v127
        BYTE   W06
        BYTE                   An3   v100
        BYTE   W06
        BYTE                   An3   v127
        BYTE   W06
        BYTE                   Gn3   v100
        BYTE   W06
// 002   ----------------------------------------
        BYTE                   Dn3   v127
        BYTE           N05     An3   v050
        BYTE   W06
        BYTE                   An3   v100
        BYTE   W06
        BYTE                   Dn4   v127
        BYTE           N05     Gn3   v050
        BYTE   W06
        BYTE                   Dn3   v100
        BYTE   W06
        BYTE                   An3   v127
        BYTE   W06
        BYTE                   Dn4   v100
        BYTE   W06
        BYTE                   As3   v127
        BYTE           N05     Dn3   v050
        BYTE   W06
        BYTE                   An3   v100
        BYTE   W06
        BYTE                   Dn4   v050
        BYTE   W06
        BYTE                   As3   v100
        BYTE   W06
        BYTE                   An3   v127
        BYTE   W12
        BYTE                   As3   v050
        BYTE           N05     Gn3   v127
        BYTE   W06
        BYTE                   An3   v100
        BYTE   W06
        BYTE                   An3   v127
        BYTE   W06
        BYTE                   Gn3   v100
        BYTE   W06
// 003   ----------------------------------------
        BYTE                   Dn3   v127
        BYTE           N05     An3   v050
        BYTE   W06
        BYTE                   An3   v100
        BYTE   W06
        BYTE                   Gn3   v050
        BYTE           N05     Dn4   v127
        BYTE   W06
        BYTE                   Dn3   v100
        BYTE   W06
        BYTE                   An3   v050
        BYTE   W06
        BYTE                   Dn4   v100
        BYTE   W06
        BYTE                   Cn4   v127
        BYTE           N05     Dn3   v050
        BYTE   W06
        BYTE                   An3   v100
        BYTE   W06
        BYTE                   Dn4   v050
        BYTE   W06
        BYTE                   Cn4   v100
        BYTE   W06
        BYTE                   An3   v127
        BYTE   W12
        BYTE                   Cn4   v050
        BYTE           N05     Gn3   v127
        BYTE   W06
        BYTE                   An3   v100
        BYTE   W06
        BYTE                   An3   v127
        BYTE   W06
        BYTE                   Gn3   v100
        BYTE   W06
// 004   ----------------------------------------
        BYTE                   Dn3   v127
        BYTE           N05     An3   v050
        BYTE   W06
        BYTE                   An3   v100
        BYTE   W06
        BYTE                   Dn4   v127
        BYTE           N05     Gn3   v050
        BYTE   W06
        BYTE                   Dn3   v100
        BYTE   W06
        BYTE                   An3   v050
        BYTE   W06
        BYTE                   Dn4   v100
        BYTE   W06
        BYTE                   Dn3   v050
        BYTE           N05     As3   v127
        BYTE   W06
        BYTE                   An3   v100
        BYTE   W06
        BYTE                   Dn4   v050
        BYTE   W06
        BYTE                   As3   v100
        BYTE   W06
        BYTE                   An3   v127
        BYTE   W12
        BYTE                   As3   v050
        BYTE           N05     Gn3   v127
        BYTE   W06
        BYTE                   An3   v100
        BYTE   W06
        BYTE                   An3   v127
        BYTE   W06
        BYTE                   Gn3   v100
        BYTE   W06
// 005   ----------------------------------------
        BYTE                   Dn3   v127
        BYTE           N05     An3   v050
        BYTE   W06
        BYTE                   An3   v100
        BYTE   W06
        BYTE                   Dn4   v127
        BYTE           N05     Gn3   v050
        BYTE   W06
        BYTE                   Dn3   v100
        BYTE   W06
        BYTE                   An3   v127
        BYTE   W06
        BYTE                   Dn4   v100
        BYTE   W06
        BYTE                   Dn3   v050
        BYTE           N05     Cn4   v127
        BYTE   W06
        BYTE                   An3   v100
        BYTE   W06
        BYTE                   Dn4   v050
        BYTE   W06
        BYTE                   Cn4   v100
        BYTE   W06
        BYTE                   An3   v050
        BYTE   W12
        BYTE                   Cn4
        BYTE           N05     Gn3   v127
        BYTE   W06
        BYTE                   An3   v100
        BYTE   W06
        BYTE                   An3   v127
        BYTE   W06
        BYTE                   Gn3   v100
        BYTE   W06
// 006   ----------------------------------------
        BYTE                   Dn3   v127
        BYTE           N05     An3   v050
        BYTE   W06
        BYTE                   An3   v100
        BYTE   W06
        BYTE                   Dn4   v127
        BYTE           N05     Gn3   v050
        BYTE   W06
        BYTE                   Dn3   v100
        BYTE   W06
        BYTE                   An3   v050
        BYTE   W06
        BYTE                   Dn4   v100
        BYTE   W06
        BYTE                   Dn3   v050
        BYTE           N05     As3   v127
        BYTE   W06
        BYTE                   An3   v100
        BYTE   W06
        BYTE                   Dn4   v050
        BYTE   W06
        BYTE                   As3   v100
        BYTE   W06
        BYTE                   An3   v050
        BYTE   W12
        BYTE                   As3
        BYTE           N05     Gn3   v127
        BYTE   W06
        BYTE                   An3   v100
        BYTE   W06
        BYTE                   An3   v127
        BYTE   W06
        BYTE                   Gn3   v100
        BYTE   W06
// 007   ----------------------------------------
        BYTE                   Dn3   v127
        BYTE           N05     An3   v050
        BYTE   W06
        BYTE                   An3   v100
        BYTE   W06
        BYTE                   Dn4   v127
        BYTE           N05     Gn3   v050
        BYTE   W06
        BYTE                   Dn3   v100
        BYTE   W06
        BYTE                   An3   v127
        BYTE   W06
        BYTE                   Dn4   v100
        BYTE   W06
        BYTE                   Cn4   v127
        BYTE           N05     Dn3   v050
        BYTE   W06
        BYTE                   An3   v100
        BYTE   W06
        BYTE                   Dn4   v050
        BYTE   W06
        BYTE                   Cn4   v100
        BYTE   W06
        BYTE                   An3   v127
        BYTE   W12
        BYTE                   Cn4   v050
        BYTE           N05     Gn3   v127
        BYTE   W06
        BYTE                   An3   v100
        BYTE   W06
        BYTE                   An3   v127
        BYTE   W06
        BYTE                   Gn3   v100
        BYTE   W06
// 008   ----------------------------------------
        BYTE                   An3   v050
        BYTE   W06
        BYTE                   An3   v100
        BYTE   W06
        BYTE                   Gn3   v050
        BYTE   W12
        BYTE                   An3
        BYTE   W72
// 009   ----------------------------------------
        BYTE   W96
// 010   ----------------------------------------
        BYTE   W96
// 011   ----------------------------------------
        BYTE   W96
// 012   ----------------------------------------
        BYTE   W96
// 013   ----------------------------------------
        BYTE   W96
// 014   ----------------------------------------
        BYTE   W96
// 015   ----------------------------------------
        BYTE   W96
// 016   ----------------------------------------
        BYTE   W96
// 017   ----------------------------------------
        BYTE   W96
// 018   ----------------------------------------
        BYTE   W96
// 019   ----------------------------------------
        BYTE   W96
// 020   ----------------------------------------
        BYTE   W96
// 021   ----------------------------------------
        BYTE   W96
// 022   ----------------------------------------
        BYTE   W96
// 023   ----------------------------------------
        BYTE   W96
// 024   ----------------------------------------
        BYTE   W96
// 025   ----------------------------------------
        BYTE   W96
// 026   ----------------------------------------
        BYTE   W96
// 027   ----------------------------------------
Plantation_Crash_Zone66_Song_1_27:
        BYTE           N05     Fs2   v127
        BYTE   W18
        BYTE                   Fs2   v100
        BYTE   W06
        BYTE                   Cs3   v127
        BYTE   W12
        BYTE                   Fs2   v050
        BYTE   W06
        BYTE                   Cs3   v100
        BYTE   W06
        BYTE                   En3   v127
        BYTE   W12
        BYTE                   Cs3   v050
        BYTE   W06
        BYTE                   En3   v100
        BYTE   W06
        BYTE                   Bn2   v127
        BYTE   W12
        BYTE                   En3   v050
        BYTE   W06
        BYTE                   Bn2   v100
        BYTE   W06
        BYTE   PEND
// 028   ----------------------------------------
Plantation_Crash_Zone66_Song_1_28:
        BYTE           N05     Cs3   v127
        BYTE   W12
        BYTE                   Cs4
        BYTE           N05     Bn2   v050
        BYTE   W06
        BYTE                   Cs3   v100
        BYTE   W06
        BYTE                   Gs3   v127
        BYTE   W06
        BYTE                   Cs4   v100
        BYTE   W06
        BYTE                   An3   v127
        BYTE           N05     Cs3   v050
        BYTE   W06
        BYTE                   Gs3   v100
        BYTE   W06
        BYTE                   Cs4   v050
        BYTE   W06
        BYTE                   An3   v100
        BYTE   W06
        BYTE                   Gs3   v127
        BYTE   W12
        BYTE                   An3   v050
        BYTE           N05     Fs3   v127
        BYTE   W06
        BYTE                   Gs3   v100
        BYTE   W06
        BYTE                   Gs3   v127
        BYTE   W06
        BYTE                   Fs3   v100
        BYTE   W06
        BYTE   PEND
// 029   ----------------------------------------
Plantation_Crash_Zone66_Song_1_29:
        BYTE           N05     Cs3   v127
        BYTE           N05     Gs3   v050
        BYTE   W06
        BYTE                   Gs3   v100
        BYTE   W06
        BYTE                   Fs3   v050
        BYTE   W06
        BYTE                   Cs3   v100
        BYTE   W06
        BYTE                   Gs3   v050
        BYTE   W12
        BYTE                   Cs3
        BYTE   W24
        BYTE                   Fs3   v127
        BYTE   W12
        BYTE                   Gn3
        BYTE   W06
        BYTE                   Fs3   v100
        BYTE   W06
        BYTE                   En3   v127
        BYTE   W06
        BYTE                   Gn3   v100
        BYTE   W06
        BYTE   PEND
// 030   ----------------------------------------
Plantation_Crash_Zone66_Song_1_30:
        BYTE           N05     Cs3   v127
        BYTE           N05     Fs3   v050
        BYTE   W06
        BYTE                   En3   v100
        BYTE   W06
        BYTE                   Cs4   v127
        BYTE           N05     Gn3   v050
        BYTE   W06
        BYTE                   Cs3   v100
        BYTE   W06
        BYTE                   Gs3   v127
        BYTE           N05     En3   v050
        BYTE   W06
        BYTE                   Cs4   v100
        BYTE   W06
        BYTE                   Cs3   v050
        BYTE           N05     An3   v127
        BYTE   W06
        BYTE                   Gs3   v100
        BYTE   W06
        BYTE                   Cs4   v050
        BYTE   W06
        BYTE                   An3   v100
        BYTE   W06
        BYTE                   Gs3   v050
        BYTE   W12
        BYTE                   An3
        BYTE           N05     Fs3   v127
        BYTE   W06
        BYTE                   Gs3   v100
        BYTE   W06
        BYTE                   Cs4   v127
        BYTE   W06
        BYTE                   Fs3   v100
        BYTE   W06
        BYTE   PEND
// 031   ----------------------------------------
Plantation_Crash_Zone66_Song_1_31:
        BYTE           N05     Bn3   v127
        BYTE           N05     Gs3   v050
        BYTE   W06
        BYTE                   Cs4   v100
        BYTE   W06
        BYTE                   Fs3   v050
        BYTE   W06
        BYTE                   Bn3   v100
        BYTE   W06
        BYTE                   Cs4   v050
        BYTE   W12
        BYTE                   Bn3
        BYTE   W24
        BYTE                   An3   v127
        BYTE   W12
        BYTE                   Gs3
        BYTE   W06
        BYTE                   An3   v100
        BYTE   W06
        BYTE                   En3   v127
        BYTE   W06
        BYTE                   Gs3   v100
        BYTE   W06
        BYTE   PEND
// 032   ----------------------------------------
Plantation_Crash_Zone66_Song_1_32:
        BYTE           N05     Cs3   v127
        BYTE           N05     An3   v050
        BYTE   W06
        BYTE                   En3   v100
        BYTE   W06
        BYTE                   Cs4   v127
        BYTE           N05     Gs3   v050
        BYTE   W06
        BYTE                   Cs3   v100
        BYTE   W06
        BYTE                   En3   v050
        BYTE           N05     Gs3   v127
        BYTE   W06
        BYTE                   Cs4   v100
        BYTE   W06
        BYTE                   An3   v127
        BYTE           N05     Cs3   v050
        BYTE   W06
        BYTE                   Gs3   v100
        BYTE   W06
        BYTE                   Cs4   v050
        BYTE   W06
        BYTE                   An3   v100
        BYTE   W06
        BYTE                   Gs3   v127
        BYTE   W12
        BYTE                   An3   v050
        BYTE           N05     Fs3   v127
        BYTE   W06
        BYTE                   Gs3   v100
        BYTE   W06
        BYTE                   Gs3   v127
        BYTE   W06
        BYTE                   Fs3   v100
        BYTE   W06
        BYTE   PEND
// 033   ----------------------------------------
        BYTE   PATT
         POIN2  Plantation_Crash_Zone66_Song_1_29
// 034   ----------------------------------------
Plantation_Crash_Zone66_Song_1_34:
        BYTE           N05     Cs3   v127
        BYTE           N05     Fs3   v050
        BYTE   W06
        BYTE                   En3   v100
        BYTE   W06
        BYTE                   Cs4   v127
        BYTE           N05     Gn3   v050
        BYTE   W06
        BYTE                   Cs3   v100
        BYTE   W06
        BYTE                   En3   v050
        BYTE           N05     Gs3   v127
        BYTE   W06
        BYTE                   Cs4   v100
        BYTE   W06
        BYTE                   An3   v127
        BYTE           N05     Cs3   v050
        BYTE   W06
        BYTE                   Gs3   v100
        BYTE   W06
        BYTE                   Cs4   v050
        BYTE   W06
        BYTE                   An3   v100
        BYTE   W06
        BYTE                   Gs3   v127
        BYTE   W12
        BYTE                   An3   v050
        BYTE           N05     Fs3   v127
        BYTE   W06
        BYTE                   Gs3   v100
        BYTE   W06
        BYTE                   Cs4   v127
        BYTE   W06
        BYTE                   Fs3   v100
        BYTE   W06
        BYTE   PEND
// 035   ----------------------------------------
Plantation_Crash_Zone66_Song_1_35:
        BYTE           N05     Gs3   v050
        BYTE           N05     Bn3   v127
        BYTE   W06
        BYTE                   Cs4   v100
        BYTE   W06
        BYTE                   Fs3   v050
        BYTE   W06
        BYTE                   Bn3   v100
        BYTE   W06
        BYTE                   Cs4   v050
        BYTE   W12
        BYTE                   Bn3
        BYTE   W24
        BYTE                   An3   v127
        BYTE   W12
        BYTE                   Gs3
        BYTE   W06
        BYTE                   An3   v100
        BYTE   W06
        BYTE                   En3   v127
        BYTE   W06
        BYTE                   Gs3   v100
        BYTE   W06
        BYTE   PEND
// 036   ----------------------------------------
Plantation_Crash_Zone66_Song_1_36:
        BYTE           N05     Cs4   v127
        BYTE           N05     An3   v050
        BYTE   W06
        BYTE                   En3   v100
        BYTE   W06
        BYTE                   Gs3   v127
        BYTE   W06
        BYTE                   Cs4   v100
        BYTE   W06
        BYTE                   Ds4   v127
        BYTE           N05     En3   v050
        BYTE   W06
        BYTE                   Gs3   v100
        BYTE   W06
        BYTE                   Cs4   v050
        BYTE   W06
        BYTE                   Ds4   v100
        BYTE   W06
        BYTE                   En4   v127
        BYTE           N05     Gs3   v050
        BYTE   W06
        BYTE                   Cs4   v100
        BYTE   W06
        BYTE                   Ds4   v050
        BYTE   W06
        BYTE                   En4   v100
        BYTE   W06
        BYTE                   Cs4   v050
        BYTE   W06
        BYTE                   Ds4   v100
        BYTE           N05     En4   v127
        BYTE   W06
        BYTE                   Fs4
        BYTE           N05     En4   v100
        BYTE   W12
        BYTE   PEND
// 037   ----------------------------------------
Plantation_Crash_Zone66_Song_1_37:
        BYTE           N05     Ds4   v127
        BYTE           N05     En4   v100
        BYTE   W06
        BYTE                   Fs4
        BYTE           N05     En4   v050
        BYTE   W12
        BYTE                   Ds4   v100
        BYTE           N05     En4   v050
        BYTE   W06
        BYTE                   Fs4
        BYTE   W12
        BYTE                   Ds4
        BYTE   W60
        BYTE   PEND
// 038   ----------------------------------------
Plantation_Crash_Zone66_Song_1_38:
        BYTE           N05     Cs4   v127
        BYTE   W12
        BYTE                   Gs3
        BYTE   W06
        BYTE                   Cs4   v100
        BYTE   W06
        BYTE                   Ds4   v127
        BYTE   W06
        BYTE                   Gs3   v100
        BYTE   W06
        BYTE                   Cs4   v050
        BYTE   W06
        BYTE                   Ds4   v100
        BYTE   W06
        BYTE                   Gs3   v050
        BYTE           N05     En4   v127
        BYTE   W06
        BYTE                   Cs4   v100
        BYTE   W06
        BYTE                   Ds4   v127
        BYTE   W06
        BYTE                   En4   v100
        BYTE   W06
        BYTE                   Cs4   v050
        BYTE   W06
        BYTE                   En4   v127
        BYTE           N05     Ds4   v100
        BYTE   W06
        BYTE                   Fs4   v127
        BYTE           N05     En4   v100
        BYTE   W12
        BYTE   PEND
// 039   ----------------------------------------
Plantation_Crash_Zone66_Song_1_39:
        BYTE           N05     Ds4   v127
        BYTE           N05     En4   v100
        BYTE   W06
        BYTE                   En4   v050
        BYTE           N05     Fs4   v100
        BYTE   W12
        BYTE                   Ds4
        BYTE           N05     En4   v050
        BYTE   W06
        BYTE                   Fs4
        BYTE   W12
        BYTE                   Ds4
        BYTE   W60
        BYTE   PEND
// 040   ----------------------------------------
Plantation_Crash_Zone66_Song_1_40:
        BYTE           N05     Cs4   v127
        BYTE   W12
        BYTE                   Gs3
        BYTE   W06
        BYTE                   Cs4   v100
        BYTE   W06
        BYTE                   Ds4   v127
        BYTE   W06
        BYTE                   Gs3   v100
        BYTE   W06
        BYTE                   Cs4   v050
        BYTE   W06
        BYTE                   Ds4   v100
        BYTE   W06
        BYTE                   Gs3   v050
        BYTE           N05     En4   v127
        BYTE   W06
        BYTE                   Cs4   v100
        BYTE   W06
        BYTE                   Ds4   v050
        BYTE   W06
        BYTE                   En4   v100
        BYTE   W06
        BYTE                   Cs4   v050
        BYTE   W06
        BYTE                   En4   v127
        BYTE           N05     Ds4   v100
        BYTE   W06
        BYTE                   Fs4   v127
        BYTE           N05     En4   v050
        BYTE   W12
        BYTE   PEND
// 041   ----------------------------------------
Plantation_Crash_Zone66_Song_1_41:
        BYTE           N05     Ds4   v050
        BYTE           N05     En4   v100
        BYTE   W06
        BYTE                   En4   v050
        BYTE           N05     Fs4   v100
        BYTE   W12
        BYTE                   En4   v050
        BYTE           N05     Ds4   v100
        BYTE   W06
        BYTE                   Fs4   v050
        BYTE   W12
        BYTE                   Ds4
        BYTE   W60
        BYTE   PEND
// 042   ----------------------------------------
Plantation_Crash_Zone66_Song_1_42:
        BYTE           N05     Cs4   v127
        BYTE   W12
        BYTE                   Gs3
        BYTE   W06
        BYTE                   Cs4   v100
        BYTE   W06
        BYTE                   Ds4   v127
        BYTE   W06
        BYTE                   Gs3   v100
        BYTE   W06
        BYTE                   Cs4   v050
        BYTE   W06
        BYTE                   Ds4   v100
        BYTE   W06
        BYTE                   Gs3   v050
        BYTE           N05     En4   v127
        BYTE   W06
        BYTE                   Cs4   v100
        BYTE   W06
        BYTE                   Ds4   v127
        BYTE   W06
        BYTE                   En4   v100
        BYTE   W06
        BYTE                   Cs4   v050
        BYTE   W06
        BYTE                   Ds4   v100
        BYTE           N05     En4   v127
        BYTE   W06
        BYTE                   En4   v050
        BYTE           N05     Fs4   v127
        BYTE   W12
        BYTE   PEND
// 043   ----------------------------------------
Plantation_Crash_Zone66_Song_1_43:
        BYTE           N05     En4   v100
        BYTE           N05     Ds4   v050
        BYTE   W06
        BYTE                   Fs4   v100
        BYTE           N05     En4   v050
        BYTE   W12
        BYTE                   Ds4   v100
        BYTE           N05     En4   v050
        BYTE   W06
        BYTE                   Fs4
        BYTE   W12
        BYTE                   Ds4
        BYTE   W60
        BYTE   PEND
// 044   ----------------------------------------
Plantation_Crash_Zone66_Song_1_44:
        BYTE           N05     Cs4   v127
        BYTE   W18
        BYTE                   Cs4   v100
        BYTE   W18
        BYTE                   Cs4   v050
        BYTE   W60
        BYTE   PEND
// 045   ----------------------------------------
        BYTE   W96
// 046   ----------------------------------------
Plantation_Crash_Zone66_Song_1_46:
        BYTE           N05     Cs4   v127
        BYTE   W18
        BYTE                   Cs4   v100
        BYTE   W18
        BYTE                   Cs4   v127
        BYTE   W12
        BYTE                   En4
        BYTE   W06
        BYTE                   Cs4   v100
        BYTE   W12
        BYTE                   En4
        BYTE   W06
        BYTE                   Cs4   v050
        BYTE           N05     Gs4   v127
        BYTE   W12
        BYTE                   En4   v050
        BYTE           N05     Fs4   v127
        BYTE   W06
        BYTE                   Gs4   v100
        BYTE   W06
        BYTE   PEND
// 047   ----------------------------------------
Plantation_Crash_Zone66_Song_1_47:
        BYTE           N05     Gs4   v127
        BYTE   W06
        BYTE                   Fs4   v100
        BYTE   W06
        BYTE                   Gs4   v050
        BYTE   W06
        BYTE                   Gs4   v100
        BYTE   W06
        BYTE                   Fs4   v127
        BYTE   W12
        BYTE                   Gs4   v050
        BYTE   W06
        BYTE                   Fs4   v100
        BYTE   W06
        BYTE                   En4   v127
        BYTE   W12
        BYTE                   Fs4   v050
        BYTE   W06
        BYTE                   En4   v100
        BYTE   W06
        BYTE                   Fs4   v127
        BYTE   W12
        BYTE                   En4   v050
        BYTE   W06
        BYTE                   Fs4   v100
        BYTE   W06
        BYTE   PEND
// 048   ----------------------------------------
Plantation_Crash_Zone66_Song_1_48:
        BYTE           N05     Cs5   v127
        BYTE   W12
        BYTE                   Fs4   v050
        BYTE   W06
        BYTE                   Cs5   v100
        BYTE   W18
        BYTE                   Cs5   v050
        BYTE   W60
        BYTE   PEND
// 049   ----------------------------------------
        BYTE   W72
// 050   ----------------------------------------
Plantation_Crash_Zone66_Song_1_LOOP:
        BYTE           N05     An3   v050
        BYTE   W06
        BYTE                   An3   v100
        BYTE   W06
        BYTE                   Gn3   v050
        BYTE   W12
        BYTE                   An3
        BYTE   W72
// 051   ----------------------------------------
        BYTE   W96
// 052   ----------------------------------------
        BYTE   W96
// 053   ----------------------------------------
        BYTE   W96
// 054   ----------------------------------------
        BYTE   W96
// 055   ----------------------------------------
        BYTE   W96
// 056   ----------------------------------------
        BYTE   W96
// 057   ----------------------------------------
        BYTE   W96
// 058   ----------------------------------------
        BYTE   W96
// 059   ----------------------------------------
        BYTE   W96
// 060   ----------------------------------------
        BYTE   W96
// 061   ----------------------------------------
        BYTE   W96
// 062   ----------------------------------------
        BYTE   W96
// 063   ----------------------------------------
        BYTE   W96
// 064   ----------------------------------------
        BYTE   W96
// 065   ----------------------------------------
        BYTE   W96
// 066   ----------------------------------------
        BYTE   W96
// 067   ----------------------------------------
        BYTE   W96
// 068   ----------------------------------------
        BYTE   W96
// 069   ----------------------------------------
        BYTE   PATT
         POIN2  Plantation_Crash_Zone66_Song_1_27
// 070   ----------------------------------------
        BYTE   PATT
         POIN2  Plantation_Crash_Zone66_Song_1_28
// 071   ----------------------------------------
        BYTE   PATT
         POIN2  Plantation_Crash_Zone66_Song_1_29
// 072   ----------------------------------------
        BYTE   PATT
         POIN2  Plantation_Crash_Zone66_Song_1_30
// 073   ----------------------------------------
        BYTE   PATT
         POIN2  Plantation_Crash_Zone66_Song_1_31
// 074   ----------------------------------------
        BYTE   PATT
         POIN2  Plantation_Crash_Zone66_Song_1_32
// 075   ----------------------------------------
        BYTE   PATT
         POIN2  Plantation_Crash_Zone66_Song_1_29
// 076   ----------------------------------------
        BYTE   PATT
         POIN2  Plantation_Crash_Zone66_Song_1_34
// 077   ----------------------------------------
        BYTE   PATT
         POIN2  Plantation_Crash_Zone66_Song_1_35
// 078   ----------------------------------------
        BYTE   PATT
         POIN2  Plantation_Crash_Zone66_Song_1_36
// 079   ----------------------------------------
        BYTE   PATT
         POIN2  Plantation_Crash_Zone66_Song_1_37
// 080   ----------------------------------------
        BYTE   PATT
         POIN2  Plantation_Crash_Zone66_Song_1_38
// 081   ----------------------------------------
        BYTE   PATT
         POIN2  Plantation_Crash_Zone66_Song_1_39
// 082   ----------------------------------------
        BYTE   PATT
         POIN2  Plantation_Crash_Zone66_Song_1_40
// 083   ----------------------------------------
        BYTE   PATT
         POIN2  Plantation_Crash_Zone66_Song_1_41
// 084   ----------------------------------------
        BYTE   PATT
         POIN2  Plantation_Crash_Zone66_Song_1_42
// 085   ----------------------------------------
        BYTE   PATT
         POIN2  Plantation_Crash_Zone66_Song_1_43
// 086   ----------------------------------------
        BYTE   PATT
         POIN2  Plantation_Crash_Zone66_Song_1_44
// 087   ----------------------------------------
        BYTE   W96
// 088   ----------------------------------------
        BYTE   PATT
         POIN2  Plantation_Crash_Zone66_Song_1_46
// 089   ----------------------------------------
        BYTE   PATT
         POIN2  Plantation_Crash_Zone66_Song_1_47
// 090   ----------------------------------------
        BYTE   PATT
         POIN2  Plantation_Crash_Zone66_Song_1_48
// 091   ----------------------------------------
        BYTE   W72
// 092   ----------------------------------------
        BYTE   GoTo
         POIN2  Plantation_Crash_Zone66_Song_1_LOOP
        BYTE   FINE

//****************** Track 2 (Midi-Chn.2) ******************//

Plantation_Crash_Zone66_Song_2:
        BYTE   KEYSH   Plantation_Crash_Zone66_Song_key+0
// 000   ----------------------------------------
        BYTE           VOICE   38
        BYTE           VOL     104
        BYTE   W96
// 001   ----------------------------------------
        BYTE   W96
// 002   ----------------------------------------
        BYTE   W96
// 003   ----------------------------------------
        BYTE   W96
// 004   ----------------------------------------
Plantation_Crash_Zone66_Song_2_4:
        BYTE           N11     Gn0   v127
        BYTE   W12
        BYTE                   Gn0   v100
        BYTE   W12
        BYTE                   Gn0   v070
        BYTE   W12
        BYTE           N05     Gn0   v100
        BYTE   W06
        BYTE           N11     Gn0   v127
        BYTE   W12
        BYTE           N05
        BYTE   W06
        BYTE                   As0
        BYTE   W06
        BYTE                   Gn0
        BYTE   W06
        BYTE                   Fn0
        BYTE   W06
        BYTE                   Fn0   v070
        BYTE   W06
        BYTE                   Gn0   v127
        BYTE   W06
        BYTE                   Gn0   v070
        BYTE   W06
        BYTE   PEND
// 005   ----------------------------------------
Plantation_Crash_Zone66_Song_2_5:
        BYTE           N11     Gn0   v127
        BYTE   W12
        BYTE                   Gn0   v100
        BYTE   W12
        BYTE                   Gn0   v070
        BYTE   W12
        BYTE           N05     Gn0   v100
        BYTE   W06
        BYTE                   Gn1   v127
        BYTE   W06
        BYTE                   Gn1   v070
        BYTE   W06
        BYTE                   Gn0   v127
        BYTE   W06
        BYTE                   As0
        BYTE   W06
        BYTE                   Fn1
        BYTE   W06
        BYTE                   Cs1
        BYTE   W06
        BYTE                   Cs1   v070
        BYTE   W06
        BYTE                   Gs1   v127
        BYTE   W06
        BYTE                   Gs1   v070
        BYTE   W06
        BYTE   PEND
// 006   ----------------------------------------
        BYTE   PATT
         POIN2  Plantation_Crash_Zone66_Song_2_4
// 007   ----------------------------------------
        BYTE   PATT
         POIN2  Plantation_Crash_Zone66_Song_2_5
// 008   ----------------------------------------
        BYTE   PATT
         POIN2  Plantation_Crash_Zone66_Song_2_4
// 009   ----------------------------------------
        BYTE   PATT
         POIN2  Plantation_Crash_Zone66_Song_2_5
// 010   ----------------------------------------
        BYTE   PATT
         POIN2  Plantation_Crash_Zone66_Song_2_4
// 011   ----------------------------------------
        BYTE   PATT
         POIN2  Plantation_Crash_Zone66_Song_2_5
// 012   ----------------------------------------
        BYTE   PATT
         POIN2  Plantation_Crash_Zone66_Song_2_4
// 013   ----------------------------------------
        BYTE   PATT
         POIN2  Plantation_Crash_Zone66_Song_2_5
// 014   ----------------------------------------
        BYTE   PATT
         POIN2  Plantation_Crash_Zone66_Song_2_4
// 015   ----------------------------------------
        BYTE   PATT
         POIN2  Plantation_Crash_Zone66_Song_2_5
// 016   ----------------------------------------
        BYTE   PATT
         POIN2  Plantation_Crash_Zone66_Song_2_4
// 017   ----------------------------------------
        BYTE   PATT
         POIN2  Plantation_Crash_Zone66_Song_2_5
// 018   ----------------------------------------
        BYTE   PATT
         POIN2  Plantation_Crash_Zone66_Song_2_4
// 019   ----------------------------------------
        BYTE           N92     Gn0   v127   gtp3
        BYTE   W96
// 020   ----------------------------------------
        BYTE   PATT
         POIN2  Plantation_Crash_Zone66_Song_2_4
// 021   ----------------------------------------
        BYTE   PATT
         POIN2  Plantation_Crash_Zone66_Song_2_5
// 022   ----------------------------------------
        BYTE   PATT
         POIN2  Plantation_Crash_Zone66_Song_2_4
// 023   ----------------------------------------
        BYTE   PATT
         POIN2  Plantation_Crash_Zone66_Song_2_5
// 024   ----------------------------------------
Plantation_Crash_Zone66_Song_2_24:
        BYTE           N11     Fs0   v127
        BYTE   W12
        BYTE                   Fs0   v100
        BYTE   W12
        BYTE                   Fs0   v070
        BYTE   W12
        BYTE           N05     Fs0   v100
        BYTE   W06
        BYTE           N11     Fs0   v127
        BYTE   W12
        BYTE           N05
        BYTE   W06
        BYTE                   An0
        BYTE   W06
        BYTE                   Fs0
        BYTE   W06
        BYTE                   En0
        BYTE   W06
        BYTE                   En0   v070
        BYTE   W06
        BYTE                   Fs0   v127
        BYTE   W06
        BYTE                   Fs0   v070
        BYTE   W06
        BYTE   PEND
// 025   ----------------------------------------
Plantation_Crash_Zone66_Song_2_25:
        BYTE           N11     Fs0   v127
        BYTE   W12
        BYTE                   Fs0   v100
        BYTE   W12
        BYTE                   Fs0   v070
        BYTE   W12
        BYTE           N05     Fs0   v100
        BYTE   W06
        BYTE                   Fs1   v127
        BYTE   W06
        BYTE                   Fs1   v070
        BYTE   W06
        BYTE                   Fs0   v127
        BYTE   W06
        BYTE                   An0
        BYTE   W06
        BYTE                   En1
        BYTE   W06
        BYTE                   Cn1
        BYTE   W06
        BYTE                   Cn1   v070
        BYTE   W06
        BYTE                   Gn1   v127
        BYTE   W06
        BYTE                   Gn1   v070
        BYTE   W06
        BYTE   PEND
// 026   ----------------------------------------
        BYTE   PATT
         POIN2  Plantation_Crash_Zone66_Song_2_24
// 027   ----------------------------------------
Plantation_Crash_Zone66_Song_2_27:
        BYTE           N68     Fs0   v127   gtp3
        BYTE   W72
        BYTE           N05     En0
        BYTE   W06
        BYTE                   En1
        BYTE   W06
        BYTE                   Bn0
        BYTE   W06
        BYTE                   Dn1
        BYTE   W06
        BYTE   PEND
// 028   ----------------------------------------
        BYTE   PATT
         POIN2  Plantation_Crash_Zone66_Song_2_24
// 029   ----------------------------------------
        BYTE   PATT
         POIN2  Plantation_Crash_Zone66_Song_2_25
// 030   ----------------------------------------
Plantation_Crash_Zone66_Song_2_30:
        BYTE           N11     Fs0   v127
        BYTE   W12
        BYTE                   Fs0   v100
        BYTE   W12
        BYTE                   Fs0   v070
        BYTE   W12
        BYTE           N05     Fs0   v100
        BYTE   W06
        BYTE           N11     Fs0   v127
        BYTE   W12
        BYTE           N05
        BYTE   W06
        BYTE                   An0
        BYTE   W06
        BYTE                   Fs0
        BYTE   W06
        BYTE                   En0
        BYTE   W06
        BYTE                   An0
        BYTE   W06
        BYTE                   Cs1
        BYTE   W06
        BYTE                   Cs1   v070
        BYTE   W06
        BYTE   PEND
// 031   ----------------------------------------
Plantation_Crash_Zone66_Song_2_31:
        BYTE           N11     Bn0   v127
        BYTE   W12
        BYTE                   Bn0   v100
        BYTE   W12
        BYTE                   Bn0   v070
        BYTE   W12
        BYTE           N05     Bn0   v100
        BYTE   W06
        BYTE                   Bn1   v127
        BYTE   W06
        BYTE                   Bn1   v070
        BYTE   W06
        BYTE                   Bn0   v127
        BYTE   W06
        BYTE                   An0
        BYTE   W06
        BYTE                   Bn0
        BYTE   W06
        BYTE                   An0
        BYTE   W06
        BYTE                   An0   v070
        BYTE   W06
        BYTE                   An1   v127
        BYTE   W06
        BYTE                   An1   v070
        BYTE   W06
        BYTE   PEND
// 032   ----------------------------------------
        BYTE   PATT
         POIN2  Plantation_Crash_Zone66_Song_2_24
// 033   ----------------------------------------
        BYTE   PATT
         POIN2  Plantation_Crash_Zone66_Song_2_25
// 034   ----------------------------------------
        BYTE   PATT
         POIN2  Plantation_Crash_Zone66_Song_2_30
// 035   ----------------------------------------
        BYTE   PATT
         POIN2  Plantation_Crash_Zone66_Song_2_31
// 036   ----------------------------------------
Plantation_Crash_Zone66_Song_2_36:
        BYTE           N05     Cs1   v127
        BYTE   W06
        BYTE                   Cs1   v070
        BYTE   W06
        BYTE                   Cs1   v127
        BYTE   W06
        BYTE                   Cs2
        BYTE   W06
        BYTE                   Cs2   v070
        BYTE   W12
        BYTE                   Cs1   v127
        BYTE   W06
        BYTE                   Cs1
        BYTE   W06
        BYTE                   Cs1   v070
        BYTE   W12
        BYTE                   Cs1   v127
        BYTE   W06
        BYTE                   Cs2
        BYTE   W06
        BYTE                   Bn1
        BYTE   W06
        BYTE                   Bn1   v070
        BYTE   W06
        BYTE                   Cs1   v127
        BYTE   W06
        BYTE                   Cs1   v070
        BYTE   W06
        BYTE   PEND
// 037   ----------------------------------------
Plantation_Crash_Zone66_Song_2_37:
        BYTE           N05     Bn0   v127
        BYTE   W06
        BYTE                   Bn0   v070
        BYTE   W06
        BYTE                   Bn0   v127
        BYTE   W06
        BYTE                   Bn1
        BYTE   W06
        BYTE                   Bn1   v070
        BYTE   W12
        BYTE                   Bn0   v127
        BYTE   W06
        BYTE                   Bn0
        BYTE   W06
        BYTE                   Bn0   v070
        BYTE   W12
        BYTE                   Bn0   v127
        BYTE   W06
        BYTE                   Bn1
        BYTE   W06
        BYTE                   Fs1
        BYTE   W06
        BYTE                   Fs1   v070
        BYTE   W06
        BYTE                   Bn0   v127
        BYTE   W06
        BYTE                   Bn0   v070
        BYTE   W06
        BYTE   PEND
// 038   ----------------------------------------
Plantation_Crash_Zone66_Song_2_38:
        BYTE           N05     An0   v127
        BYTE   W06
        BYTE                   An0   v070
        BYTE   W06
        BYTE                   An0   v127
        BYTE   W06
        BYTE                   An1
        BYTE   W06
        BYTE                   An1   v070
        BYTE   W12
        BYTE                   An0   v127
        BYTE   W06
        BYTE                   An0
        BYTE   W06
        BYTE                   An0   v070
        BYTE   W12
        BYTE                   An0   v127
        BYTE   W06
        BYTE                   An1
        BYTE   W06
        BYTE                   An0
        BYTE   W06
        BYTE                   An0   v070
        BYTE   W06
        BYTE                   An0   v127
        BYTE   W06
        BYTE                   An0   v070
        BYTE   W06
        BYTE   PEND
// 039   ----------------------------------------
Plantation_Crash_Zone66_Song_2_39:
        BYTE           N05     Bn0   v127
        BYTE   W06
        BYTE                   Bn0   v070
        BYTE   W06
        BYTE                   Bn0   v127
        BYTE   W06
        BYTE                   Bn1
        BYTE   W06
        BYTE                   Bn1   v070
        BYTE   W12
        BYTE                   Bn0   v127
        BYTE   W06
        BYTE                   Bn0
        BYTE   W06
        BYTE                   Bn0   v070
        BYTE   W12
        BYTE                   Bn0   v127
        BYTE   W06
        BYTE                   Bn1
        BYTE   W06
        BYTE                   Bn0
        BYTE   W06
        BYTE                   Bn0   v070
        BYTE   W06
        BYTE                   Bn0   v127
        BYTE   W06
        BYTE                   Bn0   v070
        BYTE   W06
        BYTE   PEND
// 040   ----------------------------------------
        BYTE   PATT
         POIN2  Plantation_Crash_Zone66_Song_2_36
// 041   ----------------------------------------
        BYTE   PATT
         POIN2  Plantation_Crash_Zone66_Song_2_37
// 042   ----------------------------------------
        BYTE   PATT
         POIN2  Plantation_Crash_Zone66_Song_2_38
// 043   ----------------------------------------
        BYTE   PATT
         POIN2  Plantation_Crash_Zone66_Song_2_39
// 044   ----------------------------------------
        BYTE   PATT
         POIN2  Plantation_Crash_Zone66_Song_2_36
// 045   ----------------------------------------
        BYTE   PATT
         POIN2  Plantation_Crash_Zone66_Song_2_37
// 046   ----------------------------------------
        BYTE   PATT
         POIN2  Plantation_Crash_Zone66_Song_2_38
// 047   ----------------------------------------
        BYTE   PATT
         POIN2  Plantation_Crash_Zone66_Song_2_39
// 048   ----------------------------------------
Plantation_Crash_Zone66_Song_2_48:
        BYTE           N08     Cs1   v127
        BYTE   W12
        BYTE                   Cs1   v099
        BYTE   W12
        BYTE                   Cs1   v083
        BYTE   W12
        BYTE                   Cs1   v068
        BYTE   W12
        BYTE                   Cs1   v052
        BYTE   W12
        BYTE                   Cs1   v036
        BYTE   W12
        BYTE                   Cs1   v021
        BYTE   W24
        BYTE   PEND
// 049   ----------------------------------------
Plantation_Crash_Zone66_Song_2_49:
        BYTE   W42
        BYTE           N05     Cs1   v127
        BYTE   W06
        BYTE                   Bn0
        BYTE   W06
        BYTE                   Bn0   v070
        BYTE   W06
        BYTE                   Bn0   v127
        BYTE   W06
        BYTE                   Bn0   v070
        BYTE   W06
        BYTE   PEND
// 050   ----------------------------------------
Plantation_Crash_Zone66_Song_2_LOOP:
        BYTE           N11     Gn0   v127
        BYTE   W12
        BYTE                   Gn0   v100
        BYTE   W12
        BYTE                   Gn0   v070
        BYTE   W12
        BYTE           N05     Gn0   v100
        BYTE   W06
        BYTE           N11     Gn0   v127
        BYTE   W12
        BYTE           N05
        BYTE   W06
        BYTE                   As0
        BYTE   W06
        BYTE                   Gn0
        BYTE   W06
        BYTE                   Fn0
        BYTE   W06
        BYTE                   Fn0   v070
        BYTE   W06
        BYTE                   Gn0   v127
        BYTE   W06
        BYTE                   Gn0   v070
        BYTE   W06
// 051   ----------------------------------------
        BYTE   PATT
         POIN2  Plantation_Crash_Zone66_Song_2_5
// 052   ----------------------------------------
        BYTE   PATT
         POIN2  Plantation_Crash_Zone66_Song_2_4
// 053   ----------------------------------------
        BYTE   PATT
         POIN2  Plantation_Crash_Zone66_Song_2_5
// 054   ----------------------------------------
        BYTE   PATT
         POIN2  Plantation_Crash_Zone66_Song_2_4
// 055   ----------------------------------------
        BYTE   PATT
         POIN2  Plantation_Crash_Zone66_Song_2_5
// 056   ----------------------------------------
        BYTE   PATT
         POIN2  Plantation_Crash_Zone66_Song_2_4
// 057   ----------------------------------------
        BYTE   PATT
         POIN2  Plantation_Crash_Zone66_Song_2_5
// 058   ----------------------------------------
        BYTE   PATT
         POIN2  Plantation_Crash_Zone66_Song_2_4
// 059   ----------------------------------------
        BYTE   PATT
         POIN2  Plantation_Crash_Zone66_Song_2_5
// 060   ----------------------------------------
        BYTE   PATT
         POIN2  Plantation_Crash_Zone66_Song_2_4
// 061   ----------------------------------------
        BYTE           N92     Gn0   v127   gtp3
        BYTE   W96
// 062   ----------------------------------------
        BYTE   PATT
         POIN2  Plantation_Crash_Zone66_Song_2_4
// 063   ----------------------------------------
        BYTE   PATT
         POIN2  Plantation_Crash_Zone66_Song_2_5
// 064   ----------------------------------------
        BYTE   PATT
         POIN2  Plantation_Crash_Zone66_Song_2_4
// 065   ----------------------------------------
        BYTE   PATT
         POIN2  Plantation_Crash_Zone66_Song_2_5
// 066   ----------------------------------------
        BYTE   PATT
         POIN2  Plantation_Crash_Zone66_Song_2_24
// 067   ----------------------------------------
        BYTE   PATT
         POIN2  Plantation_Crash_Zone66_Song_2_25
// 068   ----------------------------------------
        BYTE   PATT
         POIN2  Plantation_Crash_Zone66_Song_2_24
// 069   ----------------------------------------
        BYTE   PATT
         POIN2  Plantation_Crash_Zone66_Song_2_27
// 070   ----------------------------------------
        BYTE   PATT
         POIN2  Plantation_Crash_Zone66_Song_2_24
// 071   ----------------------------------------
        BYTE   PATT
         POIN2  Plantation_Crash_Zone66_Song_2_25
// 072   ----------------------------------------
        BYTE   PATT
         POIN2  Plantation_Crash_Zone66_Song_2_30
// 073   ----------------------------------------
        BYTE   PATT
         POIN2  Plantation_Crash_Zone66_Song_2_31
// 074   ----------------------------------------
        BYTE   PATT
         POIN2  Plantation_Crash_Zone66_Song_2_24
// 075   ----------------------------------------
        BYTE   PATT
         POIN2  Plantation_Crash_Zone66_Song_2_25
// 076   ----------------------------------------
        BYTE   PATT
         POIN2  Plantation_Crash_Zone66_Song_2_30
// 077   ----------------------------------------
        BYTE   PATT
         POIN2  Plantation_Crash_Zone66_Song_2_31
// 078   ----------------------------------------
        BYTE   PATT
         POIN2  Plantation_Crash_Zone66_Song_2_36
// 079   ----------------------------------------
        BYTE   PATT
         POIN2  Plantation_Crash_Zone66_Song_2_37
// 080   ----------------------------------------
        BYTE   PATT
         POIN2  Plantation_Crash_Zone66_Song_2_38
// 081   ----------------------------------------
        BYTE   PATT
         POIN2  Plantation_Crash_Zone66_Song_2_39
// 082   ----------------------------------------
        BYTE   PATT
         POIN2  Plantation_Crash_Zone66_Song_2_36
// 083   ----------------------------------------
        BYTE   PATT
         POIN2  Plantation_Crash_Zone66_Song_2_37
// 084   ----------------------------------------
        BYTE   PATT
         POIN2  Plantation_Crash_Zone66_Song_2_38
// 085   ----------------------------------------
        BYTE   PATT
         POIN2  Plantation_Crash_Zone66_Song_2_39
// 086   ----------------------------------------
        BYTE   PATT
         POIN2  Plantation_Crash_Zone66_Song_2_36
// 087   ----------------------------------------
        BYTE   PATT
         POIN2  Plantation_Crash_Zone66_Song_2_37
// 088   ----------------------------------------
        BYTE   PATT
         POIN2  Plantation_Crash_Zone66_Song_2_38
// 089   ----------------------------------------
        BYTE   PATT
         POIN2  Plantation_Crash_Zone66_Song_2_39
// 090   ----------------------------------------
        BYTE   PATT
         POIN2  Plantation_Crash_Zone66_Song_2_48
// 091   ----------------------------------------
        BYTE   PATT
         POIN2  Plantation_Crash_Zone66_Song_2_49
// 092   ----------------------------------------
        BYTE   GoTo
         POIN2  Plantation_Crash_Zone66_Song_2_LOOP
        BYTE   FINE

//****************** Track 3 (Midi-Chn.3) ******************//

Plantation_Crash_Zone66_Song_3:
        BYTE   KEYSH   Plantation_Crash_Zone66_Song_key+0
// 000   ----------------------------------------
        BYTE           VOICE   80
        BYTE           PAN     c_v+26
        BYTE           VOL     74
        BYTE   W96
// 001   ----------------------------------------
        BYTE   W96
// 002   ----------------------------------------
        BYTE   W96
// 003   ----------------------------------------
        BYTE   W96
// 004   ----------------------------------------
        BYTE   W96
// 005   ----------------------------------------
        BYTE   W96
// 006   ----------------------------------------
        BYTE   W96
// 007   ----------------------------------------
        BYTE   W96
// 008   ----------------------------------------
Plantation_Crash_Zone66_Song_3_8:
        BYTE   W12
        BYTE           N01     Gn4   v127
        BYTE   W36
        BYTE                   Gn4
        BYTE   W18
        BYTE                   Gn4
        BYTE   W18
        BYTE                   Gn4
        BYTE   W12
        BYTE   PEND
// 009   ----------------------------------------
        BYTE   PATT
         POIN2  Plantation_Crash_Zone66_Song_3_8
// 010   ----------------------------------------
        BYTE   PATT
         POIN2  Plantation_Crash_Zone66_Song_3_8
// 011   ----------------------------------------
        BYTE   PATT
         POIN2  Plantation_Crash_Zone66_Song_3_8
// 012   ----------------------------------------
        BYTE   PATT
         POIN2  Plantation_Crash_Zone66_Song_3_8
// 013   ----------------------------------------
        BYTE   PATT
         POIN2  Plantation_Crash_Zone66_Song_3_8
// 014   ----------------------------------------
        BYTE   PATT
         POIN2  Plantation_Crash_Zone66_Song_3_8
// 015   ----------------------------------------
        BYTE   PATT
         POIN2  Plantation_Crash_Zone66_Song_3_8
// 016   ----------------------------------------
        BYTE   PATT
         POIN2  Plantation_Crash_Zone66_Song_3_8
// 017   ----------------------------------------
        BYTE   PATT
         POIN2  Plantation_Crash_Zone66_Song_3_8
// 018   ----------------------------------------
        BYTE   PATT
         POIN2  Plantation_Crash_Zone66_Song_3_8
// 019   ----------------------------------------
        BYTE   W96
// 020   ----------------------------------------
        BYTE   PATT
         POIN2  Plantation_Crash_Zone66_Song_3_8
// 021   ----------------------------------------
        BYTE   PATT
         POIN2  Plantation_Crash_Zone66_Song_3_8
// 022   ----------------------------------------
        BYTE   PATT
         POIN2  Plantation_Crash_Zone66_Song_3_8
// 023   ----------------------------------------
        BYTE   PATT
         POIN2  Plantation_Crash_Zone66_Song_3_8
// 024   ----------------------------------------
Plantation_Crash_Zone66_Song_3_24:
        BYTE   W12
        BYTE           N01     Fs4   v127
        BYTE   W36
        BYTE                   Fs4
        BYTE   W18
        BYTE                   Fs4
        BYTE   W18
        BYTE                   Fs4
        BYTE   W12
        BYTE   PEND
// 025   ----------------------------------------
        BYTE   PATT
         POIN2  Plantation_Crash_Zone66_Song_3_24
// 026   ----------------------------------------
        BYTE   PATT
         POIN2  Plantation_Crash_Zone66_Song_3_24
// 027   ----------------------------------------
        BYTE   PATT
         POIN2  Plantation_Crash_Zone66_Song_3_24
// 028   ----------------------------------------
        BYTE   PATT
         POIN2  Plantation_Crash_Zone66_Song_3_24
// 029   ----------------------------------------
        BYTE   PATT
         POIN2  Plantation_Crash_Zone66_Song_3_24
// 030   ----------------------------------------
        BYTE   PATT
         POIN2  Plantation_Crash_Zone66_Song_3_24
// 031   ----------------------------------------
Plantation_Crash_Zone66_Song_3_31:
        BYTE   W12
        BYTE           N01     Bn4   v127
        BYTE   W36
        BYTE                   Bn4
        BYTE   W18
        BYTE                   Bn4
        BYTE   W18
        BYTE                   Bn4
        BYTE   W12
        BYTE   PEND
// 032   ----------------------------------------
        BYTE   PATT
         POIN2  Plantation_Crash_Zone66_Song_3_24
// 033   ----------------------------------------
        BYTE   PATT
         POIN2  Plantation_Crash_Zone66_Song_3_24
// 034   ----------------------------------------
        BYTE   PATT
         POIN2  Plantation_Crash_Zone66_Song_3_24
// 035   ----------------------------------------
        BYTE   PATT
         POIN2  Plantation_Crash_Zone66_Song_3_31
// 036   ----------------------------------------
Plantation_Crash_Zone66_Song_3_36:
        BYTE   W12
        BYTE           N01     Cs4   v127
        BYTE   W36
        BYTE                   Cs4
        BYTE   W18
        BYTE                   Cs4
        BYTE   W18
        BYTE                   Cs4
        BYTE   W12
        BYTE   PEND
// 037   ----------------------------------------
Plantation_Crash_Zone66_Song_3_37:
        BYTE   W12
        BYTE           N01     Bn3   v127
        BYTE   W36
        BYTE                   Bn3
        BYTE   W18
        BYTE                   Bn3
        BYTE   W18
        BYTE                   Bn3
        BYTE   W12
        BYTE   PEND
// 038   ----------------------------------------
Plantation_Crash_Zone66_Song_3_38:
        BYTE   W12
        BYTE           N01     An3   v127
        BYTE   W36
        BYTE                   An3
        BYTE   W18
        BYTE                   An3
        BYTE   W18
        BYTE                   An3
        BYTE   W12
        BYTE   PEND
// 039   ----------------------------------------
        BYTE   PATT
         POIN2  Plantation_Crash_Zone66_Song_3_37
// 040   ----------------------------------------
        BYTE   PATT
         POIN2  Plantation_Crash_Zone66_Song_3_36
// 041   ----------------------------------------
        BYTE   PATT
         POIN2  Plantation_Crash_Zone66_Song_3_37
// 042   ----------------------------------------
        BYTE   PATT
         POIN2  Plantation_Crash_Zone66_Song_3_38
// 043   ----------------------------------------
        BYTE   PATT
         POIN2  Plantation_Crash_Zone66_Song_3_37
// 044   ----------------------------------------
        BYTE   PATT
         POIN2  Plantation_Crash_Zone66_Song_3_36
// 045   ----------------------------------------
        BYTE   PATT
         POIN2  Plantation_Crash_Zone66_Song_3_37
// 046   ----------------------------------------
        BYTE   PATT
         POIN2  Plantation_Crash_Zone66_Song_3_38
// 047   ----------------------------------------
        BYTE   PATT
         POIN2  Plantation_Crash_Zone66_Song_3_37
// 048   ----------------------------------------
        BYTE   W96
// 049   ----------------------------------------
        BYTE   W72
// 050   ----------------------------------------
Plantation_Crash_Zone66_Song_3_LOOP:
        BYTE   W12
        BYTE           N01     Gn4   v127
        BYTE   W36
        BYTE                   Gn4
        BYTE   W18
        BYTE                   Gn4
        BYTE   W18
        BYTE                   Gn4
        BYTE   W12
// 051   ----------------------------------------
        BYTE   PATT
         POIN2  Plantation_Crash_Zone66_Song_3_8
// 052   ----------------------------------------
        BYTE   PATT
         POIN2  Plantation_Crash_Zone66_Song_3_8
// 053   ----------------------------------------
        BYTE   PATT
         POIN2  Plantation_Crash_Zone66_Song_3_8
// 054   ----------------------------------------
        BYTE   PATT
         POIN2  Plantation_Crash_Zone66_Song_3_8
// 055   ----------------------------------------
        BYTE   PATT
         POIN2  Plantation_Crash_Zone66_Song_3_8
// 056   ----------------------------------------
        BYTE   PATT
         POIN2  Plantation_Crash_Zone66_Song_3_8
// 057   ----------------------------------------
        BYTE   PATT
         POIN2  Plantation_Crash_Zone66_Song_3_8
// 058   ----------------------------------------
        BYTE   PATT
         POIN2  Plantation_Crash_Zone66_Song_3_8
// 059   ----------------------------------------
        BYTE   PATT
         POIN2  Plantation_Crash_Zone66_Song_3_8
// 060   ----------------------------------------
        BYTE   PATT
         POIN2  Plantation_Crash_Zone66_Song_3_8
// 061   ----------------------------------------
        BYTE   W96
// 062   ----------------------------------------
        BYTE   PATT
         POIN2  Plantation_Crash_Zone66_Song_3_8
// 063   ----------------------------------------
        BYTE   PATT
         POIN2  Plantation_Crash_Zone66_Song_3_8
// 064   ----------------------------------------
        BYTE   PATT
         POIN2  Plantation_Crash_Zone66_Song_3_8
// 065   ----------------------------------------
        BYTE   PATT
         POIN2  Plantation_Crash_Zone66_Song_3_8
// 066   ----------------------------------------
        BYTE   PATT
         POIN2  Plantation_Crash_Zone66_Song_3_24
// 067   ----------------------------------------
        BYTE   PATT
         POIN2  Plantation_Crash_Zone66_Song_3_24
// 068   ----------------------------------------
        BYTE   PATT
         POIN2  Plantation_Crash_Zone66_Song_3_24
// 069   ----------------------------------------
        BYTE   PATT
         POIN2  Plantation_Crash_Zone66_Song_3_24
// 070   ----------------------------------------
        BYTE   PATT
         POIN2  Plantation_Crash_Zone66_Song_3_24
// 071   ----------------------------------------
        BYTE   PATT
         POIN2  Plantation_Crash_Zone66_Song_3_24
// 072   ----------------------------------------
        BYTE   PATT
         POIN2  Plantation_Crash_Zone66_Song_3_24
// 073   ----------------------------------------
        BYTE   PATT
         POIN2  Plantation_Crash_Zone66_Song_3_31
// 074   ----------------------------------------
        BYTE   PATT
         POIN2  Plantation_Crash_Zone66_Song_3_24
// 075   ----------------------------------------
        BYTE   PATT
         POIN2  Plantation_Crash_Zone66_Song_3_24
// 076   ----------------------------------------
        BYTE   PATT
         POIN2  Plantation_Crash_Zone66_Song_3_24
// 077   ----------------------------------------
        BYTE   PATT
         POIN2  Plantation_Crash_Zone66_Song_3_31
// 078   ----------------------------------------
        BYTE   PATT
         POIN2  Plantation_Crash_Zone66_Song_3_36
// 079   ----------------------------------------
        BYTE   PATT
         POIN2  Plantation_Crash_Zone66_Song_3_37
// 080   ----------------------------------------
        BYTE   PATT
         POIN2  Plantation_Crash_Zone66_Song_3_38
// 081   ----------------------------------------
        BYTE   PATT
         POIN2  Plantation_Crash_Zone66_Song_3_37
// 082   ----------------------------------------
        BYTE   PATT
         POIN2  Plantation_Crash_Zone66_Song_3_36
// 083   ----------------------------------------
        BYTE   PATT
         POIN2  Plantation_Crash_Zone66_Song_3_37
// 084   ----------------------------------------
        BYTE   PATT
         POIN2  Plantation_Crash_Zone66_Song_3_38
// 085   ----------------------------------------
        BYTE   PATT
         POIN2  Plantation_Crash_Zone66_Song_3_37
// 086   ----------------------------------------
        BYTE   PATT
         POIN2  Plantation_Crash_Zone66_Song_3_36
// 087   ----------------------------------------
        BYTE   PATT
         POIN2  Plantation_Crash_Zone66_Song_3_37
// 088   ----------------------------------------
        BYTE   PATT
         POIN2  Plantation_Crash_Zone66_Song_3_38
// 089   ----------------------------------------
        BYTE   PATT
         POIN2  Plantation_Crash_Zone66_Song_3_37
// 090   ----------------------------------------
        BYTE   W96
// 091   ----------------------------------------
        BYTE   W72
// 092   ----------------------------------------
        BYTE   GoTo
         POIN2  Plantation_Crash_Zone66_Song_3_LOOP
        BYTE   FINE

//****************** Track 4 (Midi-Chn.4) ******************//

Plantation_Crash_Zone66_Song_4:
        BYTE   KEYSH   Plantation_Crash_Zone66_Song_key+0
// 000   ----------------------------------------
        BYTE           VOICE   55
        BYTE           PAN     c_v-24
        BYTE           VOL     84
        BYTE   W96
// 001   ----------------------------------------
        BYTE   W96
// 002   ----------------------------------------
        BYTE   W96
// 003   ----------------------------------------
        BYTE   W96
// 004   ----------------------------------------
        BYTE   W96
// 005   ----------------------------------------
        BYTE   W96
// 006   ----------------------------------------
        BYTE   W96
// 007   ----------------------------------------
        BYTE   W96
// 008   ----------------------------------------
        BYTE   W96
// 009   ----------------------------------------
        BYTE   W96
// 010   ----------------------------------------
        BYTE   W96
// 011   ----------------------------------------
        BYTE   W96
// 012   ----------------------------------------
Plantation_Crash_Zone66_Song_4_12:
        BYTE           N05     Gn4   v127
        BYTE   W12
        BYTE                   Gn4   v080
        BYTE   W06
        BYTE                   Gn4   v127
        BYTE   W06
        BYTE                   Gn4   v057
        BYTE   W06
        BYTE                   Gn4   v080
        BYTE   W06
        BYTE                   Gn4   v127
        BYTE   W06
        BYTE                   Gn4   v057
        BYTE   W06
        BYTE                   Gn4   v080
        BYTE   W06
        BYTE                   Gn4   v127
        BYTE   W06
        BYTE                   Gn4   v057
        BYTE           N05     An3   v127
        BYTE   W06
        BYTE                   Gn4   v080
        BYTE   W06
        BYTE                   As3   v127
        BYTE           N05     An3   v080
        BYTE   W06
        BYTE                   Gn4   v057
        BYTE   W06
        BYTE                   An3
        BYTE           N05     As3   v080
        BYTE           N05     Gn3   v127
        BYTE   W12
        BYTE   PEND
// 013   ----------------------------------------
Plantation_Crash_Zone66_Song_4_13:
        BYTE           N05     Gn3   v080
        BYTE           N05     Gn4   v127
        BYTE           N05     As3   v057
        BYTE   W12
        BYTE                   Gn3
        BYTE           N05     Gn4   v080
        BYTE   W06
        BYTE                   Gn4   v127
        BYTE   W06
        BYTE                   Gn4   v057
        BYTE   W06
        BYTE                   Gn4   v080
        BYTE   W06
        BYTE                   Gn4   v127
        BYTE   W06
        BYTE                   Gn4   v057
        BYTE   W06
        BYTE                   Gn4   v080
        BYTE           N05     As4   v127
        BYTE   W06
        BYTE                   Gn4
        BYTE   W06
        BYTE                   Bn4
        BYTE           N05     Gn4   v057
        BYTE           N05     As4   v080
        BYTE   W06
        BYTE                   Gn4
        BYTE   W06
        BYTE                   As4   v057
        BYTE           N05     Fn4   v127
        BYTE           N05     Bn4   v080
        BYTE   W06
        BYTE                   Gn4
        BYTE   W06
        BYTE                   Fn4
        BYTE           N05     Bn4   v057
        BYTE           N05     Fs4   v127
        BYTE   W06
        BYTE                   Gn4   v057
        BYTE   W06
        BYTE   PEND
// 014   ----------------------------------------
Plantation_Crash_Zone66_Song_4_14:
        BYTE           N05     Fn4   v057
        BYTE           N05     Gn4   v127
        BYTE           N05     Fs4   v080
        BYTE   W12
        BYTE                   Gn4
        BYTE           N05     Fs4   v057
        BYTE   W06
        BYTE                   Gn4   v127
        BYTE   W06
        BYTE                   Gn4   v057
        BYTE   W06
        BYTE                   Gn4   v080
        BYTE   W06
        BYTE                   Gn4   v127
        BYTE   W06
        BYTE                   Gn4   v057
        BYTE   W06
        BYTE                   Gn4   v080
        BYTE   W06
        BYTE                   Gn4   v127
        BYTE   W06
        BYTE                   An3
        BYTE           N05     Gn4   v057
        BYTE   W06
        BYTE                   Gn4   v080
        BYTE   W06
        BYTE                   An3
        BYTE           N05     As3   v127
        BYTE   W06
        BYTE                   Gn4   v057
        BYTE   W06
        BYTE                   An3
        BYTE           N05     As3   v080
        BYTE           N05     Gn3   v127
        BYTE   W12
        BYTE   PEND
// 015   ----------------------------------------
Plantation_Crash_Zone66_Song_4_15:
        BYTE           N05     Gn3   v080
        BYTE           N05     Gn4   v127
        BYTE           N05     As3   v057
        BYTE   W12
        BYTE                   Gn3
        BYTE           N05     Gn4   v080
        BYTE   W06
        BYTE                   Gn4   v127
        BYTE   W06
        BYTE                   Gn4   v057
        BYTE   W06
        BYTE                   Gn4   v080
        BYTE   W06
        BYTE                   Gn4   v127
        BYTE   W06
        BYTE                   Gn4   v057
        BYTE   W06
        BYTE                   Gn4   v080
        BYTE           N05     As4   v127
        BYTE   W06
        BYTE                   Gn4
        BYTE   W06
        BYTE                   Gn4   v057
        BYTE           N05     As4   v080
        BYTE           N05     Bn4   v127
        BYTE   W06
        BYTE                   Gn4
        BYTE   W06
        BYTE                   As4   v057
        BYTE           N05     Fn4   v127
        BYTE           N05     Bn4   v080
        BYTE   W06
        BYTE                   Gn4   v057
        BYTE   W06
        BYTE                   Fn4   v080
        BYTE           N05     Bn4   v057
        BYTE           N05     Fs4   v127
        BYTE   W06
        BYTE                   Gn4   v057
        BYTE   W06
        BYTE   PEND
// 016   ----------------------------------------
Plantation_Crash_Zone66_Song_4_16:
        BYTE           N05     Fs4   v080
        BYTE           N05     Gn4   v127
        BYTE           N05     Fn4   v057
        BYTE   W12
        BYTE                   Fs4
        BYTE           N05     Gn4   v080
        BYTE   W06
        BYTE                   Gn4   v127
        BYTE   W06
        BYTE                   Gn4   v057
        BYTE   W06
        BYTE                   Gn4   v080
        BYTE   W06
        BYTE                   Gn4   v127
        BYTE   W06
        BYTE                   Gn4   v057
        BYTE   W06
        BYTE                   Gn4   v080
        BYTE   W06
        BYTE                   Gn4   v127
        BYTE   W06
        BYTE                   Fn4
        BYTE           N05     Gn4   v057
        BYTE   W06
        BYTE                   Gn4   v080
        BYTE   W06
        BYTE                   Fn4
        BYTE           N05     Gn4   v127
        BYTE   W06
        BYTE                   Gn4   v057
        BYTE   W06
        BYTE                   Fn4   v127
        BYTE           N05     Gn4   v080
        BYTE   W12
        BYTE   PEND
// 017   ----------------------------------------
Plantation_Crash_Zone66_Song_4_17:
        BYTE           N05     Gn4   v127
        BYTE           N05     Fn4   v080
        BYTE   W12
        BYTE                   Fn4   v057
        BYTE           N05     Gn4   v080
        BYTE   W06
        BYTE                   Gn4   v127
        BYTE   W06
        BYTE                   Gn4   v057
        BYTE   W06
        BYTE                   Gn4   v080
        BYTE   W06
        BYTE                   Gs4   v127
        BYTE   W06
        BYTE                   Gn4   v057
        BYTE   W06
        BYTE                   Gs4   v080
        BYTE   W06
        BYTE                   Gs4   v127
        BYTE   W06
        BYTE                   Gs4   v057
        BYTE           N05     As4   v127
        BYTE   W06
        BYTE                   Gs4   v080
        BYTE   W06
        BYTE                   As4
        BYTE           N05     Gn4   v127
        BYTE   W06
        BYTE                   Gs4   v057
        BYTE   W06
        BYTE                   Fn4   v127
        BYTE           N05     Gn4   v080
        BYTE           N05     As4   v057
        BYTE   W12
        BYTE   PEND
// 018   ----------------------------------------
Plantation_Crash_Zone66_Song_4_18:
        BYTE           N05     Gn4   v127
        BYTE           N05     Fn4   v080
        BYTE   W12
        BYTE                   Gn4
        BYTE           N05     Fn4   v057
        BYTE   W06
        BYTE                   Gn4   v127
        BYTE   W06
        BYTE                   Gn4   v057
        BYTE   W06
        BYTE                   Gn4   v080
        BYTE   W06
        BYTE                   Gn4   v127
        BYTE   W06
        BYTE                   Gn4   v057
        BYTE   W06
        BYTE                   Gn4   v080
        BYTE   W06
        BYTE                   Gn4   v127
        BYTE   W06
        BYTE                   Gn4   v057
        BYTE           N05     Fn4   v127
        BYTE   W06
        BYTE                   Gn4   v080
        BYTE   W06
        BYTE                   Gn4   v127
        BYTE           N05     Fn4   v080
        BYTE   W06
        BYTE                   Gn4   v057
        BYTE   W06
        BYTE                   Gn4   v080
        BYTE           N05     Fn4   v057
        BYTE   W12
        BYTE   PEND
// 019   ----------------------------------------
Plantation_Crash_Zone66_Song_4_19:
        BYTE           N05     Fn4   v080
        BYTE           N05     Gn4   v127
        BYTE   W12
        BYTE                   Gn4   v080
        BYTE           N05     Fn4   v057
        BYTE   W06
        BYTE                   Gn4   v127
        BYTE   W06
        BYTE                   Gn4   v057
        BYTE   W06
        BYTE                   Gn4   v080
        BYTE   W06
        BYTE                   Gs4   v127
        BYTE   W06
        BYTE                   Gn4   v057
        BYTE   W06
        BYTE                   Gs4   v080
        BYTE   W06
        BYTE                   Gs4   v127
        BYTE   W06
        BYTE                   Gs4   v057
        BYTE           N05     As4   v127
        BYTE   W06
        BYTE                   Gs4   v080
        BYTE   W06
        BYTE                   Gn4   v127
        BYTE           N05     As4   v080
        BYTE   W06
        BYTE                   Gs4   v057
        BYTE   W06
        BYTE                   Fn4   v127
        BYTE           N05     As4   v057
        BYTE           N05     Gn4   v080
        BYTE   W12
        BYTE   PEND
// 020   ----------------------------------------
Plantation_Crash_Zone66_Song_4_20:
        BYTE           N05     Gn4   v127
        BYTE           N05     Fn4   v080
        BYTE   W12
        BYTE                   Gn4   v071
        BYTE           N05     Fn4
        BYTE   W12
        BYTE                   Gn4   v052
        BYTE   W12
        BYTE                   Gn4   v032
        BYTE   W12
        BYTE                   Gn4   v013
        BYTE   W48
        BYTE   PEND
// 021   ----------------------------------------
        BYTE   W96
// 022   ----------------------------------------
        BYTE   W96
// 023   ----------------------------------------
Plantation_Crash_Zone66_Song_4_23:
        BYTE   W60
        BYTE           N05     Dn4   v127
        BYTE   W12
        BYTE                   Dn4
        BYTE   W06
        BYTE                   Fn4
        BYTE   W06
        BYTE                   Dn4   v057
        BYTE   W06
        BYTE                   Fn4   v080
        BYTE   W06
        BYTE   PEND
// 024   ----------------------------------------
Plantation_Crash_Zone66_Song_4_24:
        BYTE           N05     Dn4   v057
        BYTE           N05     Fs4   v127
        BYTE   W06
        BYTE                   Fn4   v057
        BYTE   W06
        BYTE                   Fs4   v091
        BYTE   W12
        BYTE                   Fs4   v044
        BYTE   W12
        BYTE                   Fs4   v029
        BYTE   W12
        BYTE                   Fs4   v044
        BYTE   W12
        BYTE                   Fs4   v028
        BYTE   W12
        BYTE                   Fs4   v013
        BYTE   W12
        BYTE                   Fs4   v001
        BYTE   W12
        BYTE   PEND
// 025   ----------------------------------------
        BYTE                   Fs4
        BYTE   W96
// 026   ----------------------------------------
        BYTE   W96
// 027   ----------------------------------------
        BYTE   W96
// 028   ----------------------------------------
        BYTE   W96
// 029   ----------------------------------------
        BYTE   W96
// 030   ----------------------------------------
        BYTE   W96
// 031   ----------------------------------------
        BYTE   W96
// 032   ----------------------------------------
        BYTE   W96
// 033   ----------------------------------------
        BYTE   W96
// 034   ----------------------------------------
        BYTE   W96
// 035   ----------------------------------------
        BYTE   W96
// 036   ----------------------------------------
        BYTE   W96
// 037   ----------------------------------------
        BYTE   W96
// 038   ----------------------------------------
        BYTE   W96
// 039   ----------------------------------------
        BYTE   W96
// 040   ----------------------------------------
        BYTE   W96
// 041   ----------------------------------------
        BYTE   W96
// 042   ----------------------------------------
        BYTE   W96
// 043   ----------------------------------------
        BYTE   W96
// 044   ----------------------------------------
        BYTE   W96
// 045   ----------------------------------------
        BYTE   W96
// 046   ----------------------------------------
        BYTE   W96
// 047   ----------------------------------------
        BYTE   W96
// 048   ----------------------------------------
        BYTE   W96
// 049   ----------------------------------------
        BYTE   W72
// 050   ----------------------------------------
Plantation_Crash_Zone66_Song_4_LOOP:
        BYTE   W96
// 051   ----------------------------------------
        BYTE   W96
// 052   ----------------------------------------
        BYTE   W96
// 053   ----------------------------------------
        BYTE   W96
// 054   ----------------------------------------
        BYTE   PATT
         POIN2  Plantation_Crash_Zone66_Song_4_12
// 055   ----------------------------------------
        BYTE   PATT
         POIN2  Plantation_Crash_Zone66_Song_4_13
// 056   ----------------------------------------
        BYTE   PATT
         POIN2  Plantation_Crash_Zone66_Song_4_14
// 057   ----------------------------------------
        BYTE   PATT
         POIN2  Plantation_Crash_Zone66_Song_4_15
// 058   ----------------------------------------
        BYTE   PATT
         POIN2  Plantation_Crash_Zone66_Song_4_16
// 059   ----------------------------------------
        BYTE   PATT
         POIN2  Plantation_Crash_Zone66_Song_4_17
// 060   ----------------------------------------
        BYTE   PATT
         POIN2  Plantation_Crash_Zone66_Song_4_18
// 061   ----------------------------------------
        BYTE   PATT
         POIN2  Plantation_Crash_Zone66_Song_4_19
// 062   ----------------------------------------
        BYTE   PATT
         POIN2  Plantation_Crash_Zone66_Song_4_20
// 063   ----------------------------------------
        BYTE   W96
// 064   ----------------------------------------
        BYTE   W96
// 065   ----------------------------------------
        BYTE   PATT
         POIN2  Plantation_Crash_Zone66_Song_4_23
// 066   ----------------------------------------
        BYTE   PATT
         POIN2  Plantation_Crash_Zone66_Song_4_24
// 067   ----------------------------------------
        BYTE           N05     Fs4   v001
        BYTE   W96
// 068   ----------------------------------------
        BYTE   W96
// 069   ----------------------------------------
        BYTE   W96
// 070   ----------------------------------------
        BYTE   W96
// 071   ----------------------------------------
        BYTE   W96
// 072   ----------------------------------------
        BYTE   W96
// 073   ----------------------------------------
        BYTE   W96
// 074   ----------------------------------------
        BYTE   W96
// 075   ----------------------------------------
        BYTE   W96
// 076   ----------------------------------------
        BYTE   W96
// 077   ----------------------------------------
        BYTE   W96
// 078   ----------------------------------------
        BYTE   W96
// 079   ----------------------------------------
        BYTE   W96
// 080   ----------------------------------------
        BYTE   W96
// 081   ----------------------------------------
        BYTE   W96
// 082   ----------------------------------------
        BYTE   W96
// 083   ----------------------------------------
        BYTE   W96
// 084   ----------------------------------------
        BYTE   W96
// 085   ----------------------------------------
        BYTE   W96
// 086   ----------------------------------------
        BYTE   W96
// 087   ----------------------------------------
        BYTE   W96
// 088   ----------------------------------------
        BYTE   W96
// 089   ----------------------------------------
        BYTE   W96
// 090   ----------------------------------------
        BYTE   W96
// 091   ----------------------------------------
        BYTE   W72
// 092   ----------------------------------------
        BYTE   GoTo
         POIN2  Plantation_Crash_Zone66_Song_4_LOOP
        BYTE   FINE

//****************** Track 5 (Midi-Chn.5) ******************//

Plantation_Crash_Zone66_Song_5:
        BYTE   KEYSH   Plantation_Crash_Zone66_Song_key+0
// 000   ----------------------------------------
        BYTE           VOICE   63
        BYTE           VOL     90
        BYTE           PAN     c_v-14
        BYTE   W96
// 001   ----------------------------------------
        BYTE   W96
// 002   ----------------------------------------
        BYTE   W96
// 003   ----------------------------------------
        BYTE   W96
// 004   ----------------------------------------
        BYTE   W96
// 005   ----------------------------------------
        BYTE   W96
// 006   ----------------------------------------
        BYTE   W96
// 007   ----------------------------------------
        BYTE   W96
// 008   ----------------------------------------
        BYTE   W96
// 009   ----------------------------------------
        BYTE   W96
// 010   ----------------------------------------
        BYTE   W96
// 011   ----------------------------------------
        BYTE   W96
// 012   ----------------------------------------
Plantation_Crash_Zone66_Song_5_12:
        BYTE           N92     Dn4   v127   gtp3
        BYTE                   Gn3
        BYTE           N92     As3   v127   gtp3
        BYTE   W96
        BYTE   PEND
// 013   ----------------------------------------
Plantation_Crash_Zone66_Song_5_13:
        BYTE           N92     Dn3   v127   gtp3
        BYTE                   Gn2
        BYTE           N92     As2   v127   gtp3
        BYTE   W96
        BYTE   PEND
// 014   ----------------------------------------
Plantation_Crash_Zone66_Song_5_14:
        BYTE           N92     Gn3   v127   gtp3
        BYTE                   Dn4
        BYTE           N92     As3   v127   gtp3
        BYTE   W96
        BYTE   PEND
// 015   ----------------------------------------
Plantation_Crash_Zone66_Song_5_15:
        BYTE           N92     As2   v127   gtp3
        BYTE                   Gn2
        BYTE           N92     Dn3   v127   gtp3
        BYTE   W96
        BYTE   PEND
// 016   ----------------------------------------
        BYTE   PATT
         POIN2  Plantation_Crash_Zone66_Song_5_12
// 017   ----------------------------------------
        BYTE   PATT
         POIN2  Plantation_Crash_Zone66_Song_5_15
// 018   ----------------------------------------
Plantation_Crash_Zone66_Song_5_18:
        BYTE           N92     Gn3   v127   gtp3
        BYTE                   As3
        BYTE           N92     Dn4   v127   gtp3
        BYTE   W96
        BYTE   PEND
// 019   ----------------------------------------
Plantation_Crash_Zone66_Song_5_19:
        BYTE           N92     Gn2   v127   gtp3
        BYTE                   As2
        BYTE           N92     Dn3   v127   gtp3
        BYTE   W96
        BYTE   PEND
// 020   ----------------------------------------
        BYTE   W96
// 021   ----------------------------------------
        BYTE   W96
// 022   ----------------------------------------
        BYTE   W96
// 023   ----------------------------------------
        BYTE   W96
// 024   ----------------------------------------
        BYTE   W96
// 025   ----------------------------------------
        BYTE   W96
// 026   ----------------------------------------
        BYTE   W96
// 027   ----------------------------------------
Plantation_Crash_Zone66_Song_5_27:
        BYTE   W72
        BYTE           N23     An3   v127
        BYTE           N23     Cs4
        BYTE           N23     Gs3
        BYTE   W24
        BYTE   PEND
// 028   ----------------------------------------
Plantation_Crash_Zone66_Song_5_28:
        BYTE           N92     An3   v127   gtp3
        BYTE                   Cs4
        BYTE           N92     Fs3   v127   gtp3
        BYTE   W96
        BYTE   PEND
// 029   ----------------------------------------
Plantation_Crash_Zone66_Song_5_29:
        BYTE           N92     Cs3   v127   gtp3
        BYTE                   Fs2
        BYTE           N92     An2   v127   gtp3
        BYTE   W96
        BYTE   PEND
// 030   ----------------------------------------
Plantation_Crash_Zone66_Song_5_30:
        BYTE           N92     Cs4   v127   gtp3
        BYTE                   Fs3
        BYTE           N92     An3   v127   gtp3
        BYTE   W96
        BYTE   PEND
// 031   ----------------------------------------
Plantation_Crash_Zone66_Song_5_31:
        BYTE           N92     Bn2   v127   gtp3
        BYTE                   Fs3
        BYTE           N92     Dn3   v127   gtp3
        BYTE   W96
        BYTE   PEND
// 032   ----------------------------------------
        BYTE   PATT
         POIN2  Plantation_Crash_Zone66_Song_5_30
// 033   ----------------------------------------
Plantation_Crash_Zone66_Song_5_33:
        BYTE           N92     An2   v127   gtp3
        BYTE                   Fs2
        BYTE           N92     Cs3   v127   gtp3
        BYTE   W96
        BYTE   PEND
// 034   ----------------------------------------
        BYTE   PATT
         POIN2  Plantation_Crash_Zone66_Song_5_30
// 035   ----------------------------------------
Plantation_Crash_Zone66_Song_5_35:
        BYTE           N92     Bn2   v127   gtp3
        BYTE                   Dn3
        BYTE           N92     Fs3   v127   gtp3
        BYTE   W96
        BYTE   PEND
// 036   ----------------------------------------
Plantation_Crash_Zone66_Song_5_36:
        BYTE           N32     Cs3   v127   gtp3
        BYTE                   En3
        BYTE           N32     Gs3   v127   gtp3
        BYTE   W36
        BYTE                   En3
        BYTE           N32     Cs3   v127   gtp3
        BYTE                   Gs3
        BYTE   W36
        BYTE           N23
        BYTE           N23     Cs3
        BYTE           N23     En3
        BYTE   W24
        BYTE   PEND
// 037   ----------------------------------------
Plantation_Crash_Zone66_Song_5_37:
        BYTE           N68     Fs3   v127   gtp3
        BYTE                   Ds3
        BYTE           N68     Bn2   v127   gtp3
        BYTE   W72
        BYTE           N23     Fs3
        BYTE           N23     Ds3
        BYTE           N23     Bn2
        BYTE   W24
        BYTE   PEND
// 038   ----------------------------------------
Plantation_Crash_Zone66_Song_5_38:
        BYTE           N32     En3   v127   gtp3
        BYTE                   An2
        BYTE           N32     Cs3   v127   gtp3
        BYTE   W36
        BYTE                   En3
        BYTE           N32     Cs3   v127   gtp3
        BYTE                   An2
        BYTE   W36
        BYTE           N23     Cs3
        BYTE           N23     An2
        BYTE           N23     En3
        BYTE   W24
        BYTE   PEND
// 039   ----------------------------------------
        BYTE   PATT
         POIN2  Plantation_Crash_Zone66_Song_5_37
// 040   ----------------------------------------
Plantation_Crash_Zone66_Song_5_40:
        BYTE           N32     Cs3   v127   gtp3
        BYTE                   Gs3
        BYTE           N32     En3   v127   gtp3
        BYTE   W36
        BYTE                   En3
        BYTE           N32     Cs3   v127   gtp3
        BYTE                   Gs3
        BYTE   W36
        BYTE           N23
        BYTE           N23     Cs3
        BYTE           N23     En3
        BYTE   W24
        BYTE   PEND
// 041   ----------------------------------------
Plantation_Crash_Zone66_Song_5_41:
        BYTE           N68     Ds3   v127   gtp3
        BYTE                   Bn2
        BYTE           N68     Fs3   v127   gtp3
        BYTE   W72
        BYTE           N23     Ds3
        BYTE           N23     Bn2
        BYTE           N23     Fs3
        BYTE   W24
        BYTE   PEND
// 042   ----------------------------------------
Plantation_Crash_Zone66_Song_5_42:
        BYTE           N32     Cs3   v127   gtp3
        BYTE                   En3
        BYTE           N32     An2   v127   gtp3
        BYTE   W36
        BYTE                   En3
        BYTE           N32     An2   v127   gtp3
        BYTE                   Cs3
        BYTE   W36
        BYTE           N23     En3
        BYTE           N23     An2
        BYTE           N23     Cs3
        BYTE   W24
        BYTE   PEND
// 043   ----------------------------------------
Plantation_Crash_Zone66_Song_5_43:
        BYTE           N68     Fs3   v127   gtp3
        BYTE                   Bn2
        BYTE           N68     Ds3   v127   gtp3
        BYTE   W72
        BYTE           N23     Fs3
        BYTE           N23     Ds3
        BYTE           N23     Bn2
        BYTE   W24
        BYTE   PEND
// 044   ----------------------------------------
Plantation_Crash_Zone66_Song_5_44:
        BYTE           N92     Gs3   v127   gtp3
        BYTE                   Cs3
        BYTE           N92     En3   v127   gtp3
        BYTE   W96
        BYTE   PEND
// 045   ----------------------------------------
        BYTE   W96
// 046   ----------------------------------------
        BYTE   W96
// 047   ----------------------------------------
        BYTE   W96
// 048   ----------------------------------------
Plantation_Crash_Zone66_Song_5_48:
        BYTE           N92     Cs3   v127   gtp3
        BYTE                   En3
        BYTE           N92     Gs3   v127   gtp3
        BYTE   W96
        BYTE   PEND
// 049   ----------------------------------------
        BYTE   W72
// 050   ----------------------------------------
Plantation_Crash_Zone66_Song_5_LOOP:
        BYTE   W96
// 051   ----------------------------------------
        BYTE   W96
// 052   ----------------------------------------
        BYTE   W96
// 053   ----------------------------------------
        BYTE   W96
// 054   ----------------------------------------
        BYTE   PATT
         POIN2  Plantation_Crash_Zone66_Song_5_12
// 055   ----------------------------------------
        BYTE   PATT
         POIN2  Plantation_Crash_Zone66_Song_5_13
// 056   ----------------------------------------
        BYTE   PATT
         POIN2  Plantation_Crash_Zone66_Song_5_14
// 057   ----------------------------------------
        BYTE   PATT
         POIN2  Plantation_Crash_Zone66_Song_5_15
// 058   ----------------------------------------
        BYTE   PATT
         POIN2  Plantation_Crash_Zone66_Song_5_12
// 059   ----------------------------------------
        BYTE   PATT
         POIN2  Plantation_Crash_Zone66_Song_5_15
// 060   ----------------------------------------
        BYTE   PATT
         POIN2  Plantation_Crash_Zone66_Song_5_18
// 061   ----------------------------------------
        BYTE   PATT
         POIN2  Plantation_Crash_Zone66_Song_5_19
// 062   ----------------------------------------
        BYTE   W96
// 063   ----------------------------------------
        BYTE   W96
// 064   ----------------------------------------
        BYTE   W96
// 065   ----------------------------------------
        BYTE   W96
// 066   ----------------------------------------
        BYTE   W96
// 067   ----------------------------------------
        BYTE   W96
// 068   ----------------------------------------
        BYTE   W96
// 069   ----------------------------------------
        BYTE   PATT
         POIN2  Plantation_Crash_Zone66_Song_5_27
// 070   ----------------------------------------
        BYTE   PATT
         POIN2  Plantation_Crash_Zone66_Song_5_28
// 071   ----------------------------------------
        BYTE   PATT
         POIN2  Plantation_Crash_Zone66_Song_5_29
// 072   ----------------------------------------
        BYTE   PATT
         POIN2  Plantation_Crash_Zone66_Song_5_30
// 073   ----------------------------------------
        BYTE   PATT
         POIN2  Plantation_Crash_Zone66_Song_5_31
// 074   ----------------------------------------
        BYTE   PATT
         POIN2  Plantation_Crash_Zone66_Song_5_30
// 075   ----------------------------------------
        BYTE   PATT
         POIN2  Plantation_Crash_Zone66_Song_5_33
// 076   ----------------------------------------
        BYTE   PATT
         POIN2  Plantation_Crash_Zone66_Song_5_30
// 077   ----------------------------------------
        BYTE   PATT
         POIN2  Plantation_Crash_Zone66_Song_5_35
// 078   ----------------------------------------
        BYTE   PATT
         POIN2  Plantation_Crash_Zone66_Song_5_36
// 079   ----------------------------------------
        BYTE   PATT
         POIN2  Plantation_Crash_Zone66_Song_5_37
// 080   ----------------------------------------
        BYTE   PATT
         POIN2  Plantation_Crash_Zone66_Song_5_38
// 081   ----------------------------------------
        BYTE   PATT
         POIN2  Plantation_Crash_Zone66_Song_5_37
// 082   ----------------------------------------
        BYTE   PATT
         POIN2  Plantation_Crash_Zone66_Song_5_40
// 083   ----------------------------------------
        BYTE   PATT
         POIN2  Plantation_Crash_Zone66_Song_5_41
// 084   ----------------------------------------
        BYTE   PATT
         POIN2  Plantation_Crash_Zone66_Song_5_42
// 085   ----------------------------------------
        BYTE   PATT
         POIN2  Plantation_Crash_Zone66_Song_5_43
// 086   ----------------------------------------
        BYTE   PATT
         POIN2  Plantation_Crash_Zone66_Song_5_44
// 087   ----------------------------------------
        BYTE   W96
// 088   ----------------------------------------
        BYTE   W96
// 089   ----------------------------------------
        BYTE   W96
// 090   ----------------------------------------
        BYTE   PATT
         POIN2  Plantation_Crash_Zone66_Song_5_48
// 091   ----------------------------------------
        BYTE   W72
// 092   ----------------------------------------
        BYTE   GoTo
         POIN2  Plantation_Crash_Zone66_Song_5_LOOP
        BYTE   FINE

//****************** Track 6 (Midi-Chn.6) ******************//

Plantation_Crash_Zone66_Song_6:
        BYTE   KEYSH   Plantation_Crash_Zone66_Song_key+0
// 000   ----------------------------------------
        BYTE           VOL     104
        BYTE           PAN     c_v+26
        BYTE   W96
// 001   ----------------------------------------
        BYTE   W96
// 002   ----------------------------------------
        BYTE   W96
// 003   ----------------------------------------
        BYTE   W96
// 004   ----------------------------------------
        BYTE   W96
// 005   ----------------------------------------
        BYTE   W96
// 006   ----------------------------------------
        BYTE   W96
// 007   ----------------------------------------
        BYTE   W96
// 008   ----------------------------------------
        BYTE           VOICE   79
        BYTE   W96
// 009   ----------------------------------------
        BYTE   W96
// 010   ----------------------------------------
        BYTE   W96
// 011   ----------------------------------------
        BYTE   W96
// 012   ----------------------------------------
        BYTE   W96
// 013   ----------------------------------------
        BYTE   W96
// 014   ----------------------------------------
        BYTE   W96
// 015   ----------------------------------------
        BYTE   W96
// 016   ----------------------------------------
Plantation_Crash_Zone66_Song_6_16:
        BYTE           N01     Gn1   v127
        BYTE   W06
        BYTE                   Gn2
        BYTE   W06
        BYTE                   Gn3
        BYTE   W06
        BYTE                   Gn4
        BYTE   W06
        BYTE                   Gn5
        BYTE   W06
        BYTE                   Gn4
        BYTE   W06
        BYTE                   Gn3
        BYTE   W06
        BYTE                   Gn2
        BYTE   W06
        BYTE                   Gn1
        BYTE   W06
        BYTE                   Gn2
        BYTE   W06
        BYTE                   Gn3
        BYTE   W06
        BYTE                   Gn4
        BYTE   W06
        BYTE                   Gn5
        BYTE   W06
        BYTE                   Gn4
        BYTE   W06
        BYTE                   Gn3
        BYTE   W06
        BYTE                   Gn2
        BYTE   W06
        BYTE   PEND
// 017   ----------------------------------------
        BYTE   PATT
         POIN2  Plantation_Crash_Zone66_Song_6_16
// 018   ----------------------------------------
        BYTE   PATT
         POIN2  Plantation_Crash_Zone66_Song_6_16
// 019   ----------------------------------------
        BYTE   PATT
         POIN2  Plantation_Crash_Zone66_Song_6_16
// 020   ----------------------------------------
Plantation_Crash_Zone66_Song_6_20:
        BYTE           N01     Gn1   v127
        BYTE   W06
        BYTE                   Gn2
        BYTE   W06
        BYTE                   Gn3
        BYTE   W06
        BYTE                   Gn4
        BYTE   W06
        BYTE                   Gn5
        BYTE   W06
        BYTE                   Gn4
        BYTE   W06
        BYTE                   Gn3
        BYTE   W06
        BYTE                   Gn2
        BYTE   W06
        BYTE                   Gn1
        BYTE   W06
        BYTE                   Gn2
        BYTE   W06
        BYTE                   Gn3
        BYTE   W06
        BYTE                   Gn4
        BYTE   W06
        BYTE                   As4
        BYTE   W06
        BYTE                   Cn5
        BYTE   W06
        BYTE                   Dn5
        BYTE   W06
        BYTE                   Fn5
        BYTE   W06
        BYTE   PEND
// 021   ----------------------------------------
Plantation_Crash_Zone66_Song_6_21:
        BYTE           N01     Gn5   v127
        BYTE   W06
        BYTE                   Gn4
        BYTE   W06
        BYTE                   Gn3
        BYTE   W06
        BYTE                   Gn2
        BYTE   W06
        BYTE                   Gn5   v090
        BYTE   W06
        BYTE                   Gn4
        BYTE   W06
        BYTE                   Gn3
        BYTE   W06
        BYTE                   Gn2
        BYTE   W06
        BYTE                   Gn5   v060
        BYTE   W06
        BYTE                   Gn4
        BYTE   W06
        BYTE                   Gn3
        BYTE   W06
        BYTE                   Gn2
        BYTE   W06
        BYTE                   Gn5   v030
        BYTE   W06
        BYTE                   Gn4
        BYTE   W06
        BYTE                   Gn3
        BYTE   W06
        BYTE                   Gn2
        BYTE   W06
        BYTE   PEND
// 022   ----------------------------------------
Plantation_Crash_Zone66_Song_6_22:
        BYTE           N01     Gn1   v030
        BYTE   W06
        BYTE                   Gn2   v127
        BYTE   W06
        BYTE                   Gn3
        BYTE   W06
        BYTE                   Gn4
        BYTE   W06
        BYTE                   Gn5
        BYTE   W06
        BYTE                   Gn4
        BYTE   W06
        BYTE                   Gn3
        BYTE   W06
        BYTE                   Gn2
        BYTE   W06
        BYTE                   Gn1
        BYTE   W06
        BYTE                   Gn2
        BYTE   W06
        BYTE                   Gn3
        BYTE   W06
        BYTE                   Gn4
        BYTE   W06
        BYTE                   As4
        BYTE   W06
        BYTE                   Cn5
        BYTE   W06
        BYTE                   Dn5
        BYTE   W06
        BYTE                   Fn5
        BYTE   W06
        BYTE   PEND
// 023   ----------------------------------------
        BYTE   PATT
         POIN2  Plantation_Crash_Zone66_Song_6_21
// 024   ----------------------------------------
Plantation_Crash_Zone66_Song_6_24:
        BYTE           VOICE   80
        BYTE           N01     Fs5   v127
        BYTE   W06
        BYTE                   Fs4
        BYTE   W06
        BYTE                   An4
        BYTE   W06
        BYTE                   Bn4
        BYTE   W06
        BYTE                   Cs5
        BYTE   W06
        BYTE                   En5
        BYTE   W06
        BYTE                   Fs5
        BYTE   W06
        BYTE                   An5
        BYTE   W06
        BYTE                   Fs5
        BYTE   W06
        BYTE                   An5   v090
        BYTE   W06
        BYTE                   Fs5
        BYTE   W06
        BYTE                   An5   v060
        BYTE   W06
        BYTE                   Fs5
        BYTE   W06
        BYTE                   An5   v030
        BYTE   W06
        BYTE                   Fs5
        BYTE   W12
        BYTE   PEND
// 025   ----------------------------------------
Plantation_Crash_Zone66_Song_6_25:
        BYTE           N01     Fs5   v127
        BYTE   W06
        BYTE                   Fs4
        BYTE   W06
        BYTE                   An4
        BYTE   W06
        BYTE                   Bn4
        BYTE   W06
        BYTE                   Cs5
        BYTE   W06
        BYTE                   En5
        BYTE   W06
        BYTE                   Fs5
        BYTE   W06
        BYTE                   An5
        BYTE   W06
        BYTE                   Bn5   v090
        BYTE   W06
        BYTE                   An5
        BYTE   W06
        BYTE                   Bn5
        BYTE   W06
        BYTE                   An5   v060
        BYTE   W06
        BYTE                   Bn5
        BYTE   W06
        BYTE                   An5   v030
        BYTE   W06
        BYTE                   Bn5
        BYTE   W12
        BYTE   PEND
// 026   ----------------------------------------
Plantation_Crash_Zone66_Song_6_26:
        BYTE           N01     Fs5   v127
        BYTE   W06
        BYTE                   Fs4
        BYTE   W06
        BYTE                   An4
        BYTE   W06
        BYTE                   Bn4
        BYTE   W06
        BYTE                   Cs5
        BYTE   W06
        BYTE                   En5
        BYTE   W06
        BYTE                   Fs5
        BYTE   W06
        BYTE                   An5
        BYTE   W06
        BYTE                   Fs5
        BYTE   W06
        BYTE                   An5   v090
        BYTE   W06
        BYTE                   Fs5
        BYTE   W06
        BYTE                   An5   v060
        BYTE   W06
        BYTE                   Fs5
        BYTE   W06
        BYTE                   An5   v030
        BYTE   W06
        BYTE                   Fs5
        BYTE   W12
        BYTE   PEND
// 027   ----------------------------------------
        BYTE   W96
// 028   ----------------------------------------
        BYTE   W96
// 029   ----------------------------------------
        BYTE   W96
// 030   ----------------------------------------
        BYTE   W96
// 031   ----------------------------------------
        BYTE   W96
// 032   ----------------------------------------
        BYTE   W96
// 033   ----------------------------------------
        BYTE   W96
// 034   ----------------------------------------
        BYTE   W96
// 035   ----------------------------------------
        BYTE   W96
// 036   ----------------------------------------
        BYTE   W96
// 037   ----------------------------------------
        BYTE   W96
// 038   ----------------------------------------
        BYTE   W96
// 039   ----------------------------------------
        BYTE   W96
// 040   ----------------------------------------
        BYTE   W96
// 041   ----------------------------------------
        BYTE   W96
// 042   ----------------------------------------
        BYTE   W96
// 043   ----------------------------------------
        BYTE   W96
// 044   ----------------------------------------
        BYTE   W96
// 045   ----------------------------------------
        BYTE   W96
// 046   ----------------------------------------
        BYTE   W96
// 047   ----------------------------------------
        BYTE   W96
// 048   ----------------------------------------
        BYTE   W96
// 049   ----------------------------------------
        BYTE   W72
// 050   ----------------------------------------
Plantation_Crash_Zone66_Song_6_LOOP:
        BYTE           VOICE   79
        BYTE   W96
// 051   ----------------------------------------
        BYTE   W96
// 052   ----------------------------------------
        BYTE   W96
// 053   ----------------------------------------
        BYTE   W96
// 054   ----------------------------------------
        BYTE   W96
// 055   ----------------------------------------
        BYTE   W96
// 056   ----------------------------------------
        BYTE   W96
// 057   ----------------------------------------
        BYTE   W96
// 058   ----------------------------------------
        BYTE   PATT
         POIN2  Plantation_Crash_Zone66_Song_6_16
// 059   ----------------------------------------
        BYTE   PATT
         POIN2  Plantation_Crash_Zone66_Song_6_16
// 060   ----------------------------------------
        BYTE   PATT
         POIN2  Plantation_Crash_Zone66_Song_6_16
// 061   ----------------------------------------
        BYTE   PATT
         POIN2  Plantation_Crash_Zone66_Song_6_16
// 062   ----------------------------------------
        BYTE   PATT
         POIN2  Plantation_Crash_Zone66_Song_6_20
// 063   ----------------------------------------
        BYTE   PATT
         POIN2  Plantation_Crash_Zone66_Song_6_21
// 064   ----------------------------------------
        BYTE   PATT
         POIN2  Plantation_Crash_Zone66_Song_6_22
// 065   ----------------------------------------
        BYTE   PATT
         POIN2  Plantation_Crash_Zone66_Song_6_21
// 066   ----------------------------------------
        BYTE   PATT
         POIN2  Plantation_Crash_Zone66_Song_6_24
// 067   ----------------------------------------
        BYTE   PATT
         POIN2  Plantation_Crash_Zone66_Song_6_25
// 068   ----------------------------------------
        BYTE   PATT
         POIN2  Plantation_Crash_Zone66_Song_6_26
// 069   ----------------------------------------
        BYTE   W96
// 070   ----------------------------------------
        BYTE   W96
// 071   ----------------------------------------
        BYTE   W96
// 072   ----------------------------------------
        BYTE   W96
// 073   ----------------------------------------
        BYTE   W96
// 074   ----------------------------------------
        BYTE   W96
// 075   ----------------------------------------
        BYTE   W96
// 076   ----------------------------------------
        BYTE   W96
// 077   ----------------------------------------
        BYTE   W96
// 078   ----------------------------------------
        BYTE   W96
// 079   ----------------------------------------
        BYTE   W96
// 080   ----------------------------------------
        BYTE   W96
// 081   ----------------------------------------
        BYTE   W96
// 082   ----------------------------------------
        BYTE   W96
// 083   ----------------------------------------
        BYTE   W96
// 084   ----------------------------------------
        BYTE   W96
// 085   ----------------------------------------
        BYTE   W96
// 086   ----------------------------------------
        BYTE   W96
// 087   ----------------------------------------
        BYTE   W96
// 088   ----------------------------------------
        BYTE   W96
// 089   ----------------------------------------
        BYTE   W96
// 090   ----------------------------------------
        BYTE   W96
// 091   ----------------------------------------
        BYTE   W72
// 092   ----------------------------------------
        BYTE           VOICE   79
        BYTE   GoTo
         POIN2  Plantation_Crash_Zone66_Song_6_LOOP
        BYTE   FINE

//****************** Track 7 (Midi-Chn.7) ******************//

Plantation_Crash_Zone66_Song_7:
        BYTE   KEYSH   Plantation_Crash_Zone66_Song_key+0
// 000   ----------------------------------------
        BYTE           VOICE   90
        BYTE           VOL     84
        BYTE           PAN     c_v+36
        BYTE   W96
// 001   ----------------------------------------
        BYTE   W96
// 002   ----------------------------------------
        BYTE   W96
// 003   ----------------------------------------
        BYTE   W96
// 004   ----------------------------------------
        BYTE   W96
// 005   ----------------------------------------
        BYTE   W96
// 006   ----------------------------------------
        BYTE   W96
// 007   ----------------------------------------
        BYTE   W96
// 008   ----------------------------------------
        BYTE   W96
// 009   ----------------------------------------
        BYTE   W96
// 010   ----------------------------------------
        BYTE   W96
// 011   ----------------------------------------
        BYTE   W96
// 012   ----------------------------------------
        BYTE   W96
// 013   ----------------------------------------
        BYTE   W96
// 014   ----------------------------------------
        BYTE   W96
// 015   ----------------------------------------
        BYTE   W96
// 016   ----------------------------------------
        BYTE   W96
// 017   ----------------------------------------
        BYTE   W96
// 018   ----------------------------------------
        BYTE   W96
// 019   ----------------------------------------
        BYTE   W96
// 020   ----------------------------------------
        BYTE   W96
// 021   ----------------------------------------
        BYTE   W96
// 022   ----------------------------------------
        BYTE   W96
// 023   ----------------------------------------
        BYTE   W96
// 024   ----------------------------------------
        BYTE   W96
// 025   ----------------------------------------
        BYTE   W96
// 026   ----------------------------------------
        BYTE   W96
// 027   ----------------------------------------
Plantation_Crash_Zone66_Song_7_27:
        BYTE           N23     Fs3   v127
        BYTE   W12
        BYTE                   An3
        BYTE   W12
        BYTE                   Bn3
        BYTE   W12
        BYTE                   Cs4
        BYTE   W12
        BYTE                   En4
        BYTE   W12
        BYTE                   Fs4
        BYTE   W12
        BYTE                   An4
        BYTE   W12
        BYTE                   Bn4
        BYTE   W12
        BYTE   PEND
// 028   ----------------------------------------
Plantation_Crash_Zone66_Song_7_28:
        BYTE           N44     Cs5   v127   gtp3
        BYTE   W24
        BYTE           N32     Cs4   v127   gtp3
        BYTE   W36
        BYTE           N11     Fs4
        BYTE   W12
        BYTE                   Bn4
        BYTE   W12
        BYTE           N80     Cs5   v127   gtp3
        BYTE   W12
        BYTE   PEND
// 029   ----------------------------------------
Plantation_Crash_Zone66_Song_7_29:
        BYTE   W72
        BYTE           N23     Bn4   v127
        BYTE   W24
        BYTE   PEND
// 030   ----------------------------------------
Plantation_Crash_Zone66_Song_7_30:
        BYTE           N44     Cs5   v127   gtp3
        BYTE   W24
        BYTE           N32     Cs4   v127   gtp3
        BYTE   W36
        BYTE           N11     Fs4
        BYTE   W12
        BYTE           N23     Cs5
        BYTE   W24
        BYTE   PEND
// 031   ----------------------------------------
Plantation_Crash_Zone66_Song_7_31:
        BYTE           N68     Bn4   v127   gtp3
        BYTE   W72
        BYTE           N23     An4
        BYTE   W24
        BYTE   PEND
// 032   ----------------------------------------
        BYTE   PATT
         POIN2  Plantation_Crash_Zone66_Song_7_28
// 033   ----------------------------------------
        BYTE   PATT
         POIN2  Plantation_Crash_Zone66_Song_7_29
// 034   ----------------------------------------
        BYTE   PATT
         POIN2  Plantation_Crash_Zone66_Song_7_30
// 035   ----------------------------------------
        BYTE   PATT
         POIN2  Plantation_Crash_Zone66_Song_7_31
// 036   ----------------------------------------
Plantation_Crash_Zone66_Song_7_36:
        BYTE           N11     Cs5   v127
        BYTE   W12
        BYTE                   Gs4
        BYTE   W12
        BYTE                   Ds5
        BYTE   W12
        BYTE                   Cs5
        BYTE   W12
        BYTE                   En5
        BYTE   W12
        BYTE                   Ds5
        BYTE   W06
        BYTE                   En5
        BYTE   W12
        BYTE                   En5
        BYTE   W06
        BYTE                   Fs5
        BYTE   W12
        BYTE   PEND
// 037   ----------------------------------------
Plantation_Crash_Zone66_Song_7_37:
        BYTE           N23     Ds5   v127
        BYTE   W24
        BYTE                   Bn4
        BYTE   W24
        BYTE                   Gs4
        BYTE   W24
        BYTE                   Bn4
        BYTE   W24
        BYTE   PEND
// 038   ----------------------------------------
        BYTE   PATT
         POIN2  Plantation_Crash_Zone66_Song_7_36
// 039   ----------------------------------------
        BYTE   PATT
         POIN2  Plantation_Crash_Zone66_Song_7_37
// 040   ----------------------------------------
        BYTE   PATT
         POIN2  Plantation_Crash_Zone66_Song_7_36
// 041   ----------------------------------------
        BYTE   PATT
         POIN2  Plantation_Crash_Zone66_Song_7_37
// 042   ----------------------------------------
        BYTE   PATT
         POIN2  Plantation_Crash_Zone66_Song_7_36
// 043   ----------------------------------------
        BYTE   PATT
         POIN2  Plantation_Crash_Zone66_Song_7_37
// 044   ----------------------------------------
        BYTE           N92     Cs5   v127   gtp3
        BYTE   W96
// 045   ----------------------------------------
        BYTE   W96
// 046   ----------------------------------------
        BYTE   W96
// 047   ----------------------------------------
        BYTE   W96
// 048   ----------------------------------------
Plantation_Crash_Zone66_Song_7_48:
        BYTE           N32     Cs5   v127   gtp3
        BYTE   W36
        BYTE           N56     Cs5   v071   gtp3
        BYTE   W60
        BYTE   PEND
// 049   ----------------------------------------
        BYTE   W72
// 050   ----------------------------------------
Plantation_Crash_Zone66_Song_7_LOOP:
        BYTE   W96
// 051   ----------------------------------------
        BYTE   W96
// 052   ----------------------------------------
        BYTE   W96
// 053   ----------------------------------------
        BYTE   W96
// 054   ----------------------------------------
        BYTE   W96
// 055   ----------------------------------------
        BYTE   W96
// 056   ----------------------------------------
        BYTE   W96
// 057   ----------------------------------------
        BYTE   W96
// 058   ----------------------------------------
        BYTE   W96
// 059   ----------------------------------------
        BYTE   W96
// 060   ----------------------------------------
        BYTE   W96
// 061   ----------------------------------------
        BYTE   W96
// 062   ----------------------------------------
        BYTE   W96
// 063   ----------------------------------------
        BYTE   W96
// 064   ----------------------------------------
        BYTE   W96
// 065   ----------------------------------------
        BYTE   W96
// 066   ----------------------------------------
        BYTE   W96
// 067   ----------------------------------------
        BYTE   W96
// 068   ----------------------------------------
        BYTE   W96
// 069   ----------------------------------------
        BYTE   PATT
         POIN2  Plantation_Crash_Zone66_Song_7_27
// 070   ----------------------------------------
        BYTE   PATT
         POIN2  Plantation_Crash_Zone66_Song_7_28
// 071   ----------------------------------------
        BYTE   PATT
         POIN2  Plantation_Crash_Zone66_Song_7_29
// 072   ----------------------------------------
        BYTE   PATT
         POIN2  Plantation_Crash_Zone66_Song_7_30
// 073   ----------------------------------------
        BYTE   PATT
         POIN2  Plantation_Crash_Zone66_Song_7_31
// 074   ----------------------------------------
        BYTE   PATT
         POIN2  Plantation_Crash_Zone66_Song_7_28
// 075   ----------------------------------------
        BYTE   PATT
         POIN2  Plantation_Crash_Zone66_Song_7_29
// 076   ----------------------------------------
        BYTE   PATT
         POIN2  Plantation_Crash_Zone66_Song_7_30
// 077   ----------------------------------------
        BYTE   PATT
         POIN2  Plantation_Crash_Zone66_Song_7_31
// 078   ----------------------------------------
        BYTE   PATT
         POIN2  Plantation_Crash_Zone66_Song_7_36
// 079   ----------------------------------------
        BYTE   PATT
         POIN2  Plantation_Crash_Zone66_Song_7_37
// 080   ----------------------------------------
        BYTE   PATT
         POIN2  Plantation_Crash_Zone66_Song_7_36
// 081   ----------------------------------------
        BYTE   PATT
         POIN2  Plantation_Crash_Zone66_Song_7_37
// 082   ----------------------------------------
        BYTE   PATT
         POIN2  Plantation_Crash_Zone66_Song_7_36
// 083   ----------------------------------------
        BYTE   PATT
         POIN2  Plantation_Crash_Zone66_Song_7_37
// 084   ----------------------------------------
        BYTE   PATT
         POIN2  Plantation_Crash_Zone66_Song_7_36
// 085   ----------------------------------------
        BYTE   PATT
         POIN2  Plantation_Crash_Zone66_Song_7_37
// 086   ----------------------------------------
        BYTE           N92     Cs5   v127   gtp3
        BYTE   W96
// 087   ----------------------------------------
        BYTE   W96
// 088   ----------------------------------------
        BYTE   W96
// 089   ----------------------------------------
        BYTE   W96
// 090   ----------------------------------------
        BYTE   PATT
         POIN2  Plantation_Crash_Zone66_Song_7_48
// 091   ----------------------------------------
        BYTE   W72
// 092   ----------------------------------------
        BYTE   GoTo
         POIN2  Plantation_Crash_Zone66_Song_7_LOOP
        BYTE   FINE

//****************** Track 8 (Midi-Chn.8) ******************//

Plantation_Crash_Zone66_Song_8:
        BYTE   KEYSH   Plantation_Crash_Zone66_Song_key+0
// 000   ----------------------------------------
        BYTE           VOICE   35
        BYTE           VOL     66
        BYTE   W96
// 001   ----------------------------------------
        BYTE   W96
// 002   ----------------------------------------
        BYTE   W96
// 003   ----------------------------------------
        BYTE   W96
// 004   ----------------------------------------
        BYTE   PATT
         POIN2  Plantation_Crash_Zone66_Song_2_4
// 005   ----------------------------------------
        BYTE   PATT
         POIN2  Plantation_Crash_Zone66_Song_2_5
// 006   ----------------------------------------
        BYTE   PATT
         POIN2  Plantation_Crash_Zone66_Song_2_4
// 007   ----------------------------------------
        BYTE   PATT
         POIN2  Plantation_Crash_Zone66_Song_2_5
// 008   ----------------------------------------
        BYTE   PATT
         POIN2  Plantation_Crash_Zone66_Song_2_4
// 009   ----------------------------------------
        BYTE   PATT
         POIN2  Plantation_Crash_Zone66_Song_2_5
// 010   ----------------------------------------
        BYTE   PATT
         POIN2  Plantation_Crash_Zone66_Song_2_4
// 011   ----------------------------------------
        BYTE   PATT
         POIN2  Plantation_Crash_Zone66_Song_2_5
// 012   ----------------------------------------
        BYTE   PATT
         POIN2  Plantation_Crash_Zone66_Song_2_4
// 013   ----------------------------------------
        BYTE   PATT
         POIN2  Plantation_Crash_Zone66_Song_2_5
// 014   ----------------------------------------
        BYTE   PATT
         POIN2  Plantation_Crash_Zone66_Song_2_4
// 015   ----------------------------------------
        BYTE   PATT
         POIN2  Plantation_Crash_Zone66_Song_2_5
// 016   ----------------------------------------
        BYTE   PATT
         POIN2  Plantation_Crash_Zone66_Song_2_4
// 017   ----------------------------------------
        BYTE   PATT
         POIN2  Plantation_Crash_Zone66_Song_2_5
// 018   ----------------------------------------
        BYTE   PATT
         POIN2  Plantation_Crash_Zone66_Song_2_4
// 019   ----------------------------------------
        BYTE           N92     Gn0   v127   gtp3
        BYTE   W96
// 020   ----------------------------------------
        BYTE   PATT
         POIN2  Plantation_Crash_Zone66_Song_2_4
// 021   ----------------------------------------
        BYTE   PATT
         POIN2  Plantation_Crash_Zone66_Song_2_5
// 022   ----------------------------------------
        BYTE   PATT
         POIN2  Plantation_Crash_Zone66_Song_2_4
// 023   ----------------------------------------
        BYTE   PATT
         POIN2  Plantation_Crash_Zone66_Song_2_5
// 024   ----------------------------------------
        BYTE   PATT
         POIN2  Plantation_Crash_Zone66_Song_2_24
// 025   ----------------------------------------
        BYTE   PATT
         POIN2  Plantation_Crash_Zone66_Song_2_25
// 026   ----------------------------------------
        BYTE   PATT
         POIN2  Plantation_Crash_Zone66_Song_2_24
// 027   ----------------------------------------
        BYTE   PATT
         POIN2  Plantation_Crash_Zone66_Song_2_27
// 028   ----------------------------------------
        BYTE   PATT
         POIN2  Plantation_Crash_Zone66_Song_2_24
// 029   ----------------------------------------
        BYTE   PATT
         POIN2  Plantation_Crash_Zone66_Song_2_25
// 030   ----------------------------------------
        BYTE   PATT
         POIN2  Plantation_Crash_Zone66_Song_2_30
// 031   ----------------------------------------
        BYTE   PATT
         POIN2  Plantation_Crash_Zone66_Song_2_31
// 032   ----------------------------------------
        BYTE   PATT
         POIN2  Plantation_Crash_Zone66_Song_2_24
// 033   ----------------------------------------
        BYTE   PATT
         POIN2  Plantation_Crash_Zone66_Song_2_25
// 034   ----------------------------------------
        BYTE   PATT
         POIN2  Plantation_Crash_Zone66_Song_2_30
// 035   ----------------------------------------
        BYTE   PATT
         POIN2  Plantation_Crash_Zone66_Song_2_31
// 036   ----------------------------------------
        BYTE   PATT
         POIN2  Plantation_Crash_Zone66_Song_2_36
// 037   ----------------------------------------
        BYTE   PATT
         POIN2  Plantation_Crash_Zone66_Song_2_37
// 038   ----------------------------------------
        BYTE   PATT
         POIN2  Plantation_Crash_Zone66_Song_2_38
// 039   ----------------------------------------
        BYTE   PATT
         POIN2  Plantation_Crash_Zone66_Song_2_39
// 040   ----------------------------------------
        BYTE   PATT
         POIN2  Plantation_Crash_Zone66_Song_2_36
// 041   ----------------------------------------
        BYTE   PATT
         POIN2  Plantation_Crash_Zone66_Song_2_37
// 042   ----------------------------------------
        BYTE   PATT
         POIN2  Plantation_Crash_Zone66_Song_2_38
// 043   ----------------------------------------
        BYTE   PATT
         POIN2  Plantation_Crash_Zone66_Song_2_39
// 044   ----------------------------------------
        BYTE   PATT
         POIN2  Plantation_Crash_Zone66_Song_2_36
// 045   ----------------------------------------
        BYTE   PATT
         POIN2  Plantation_Crash_Zone66_Song_2_37
// 046   ----------------------------------------
        BYTE   PATT
         POIN2  Plantation_Crash_Zone66_Song_2_38
// 047   ----------------------------------------
        BYTE   PATT
         POIN2  Plantation_Crash_Zone66_Song_2_39
// 048   ----------------------------------------
        BYTE   PATT
         POIN2  Plantation_Crash_Zone66_Song_2_48
// 049   ----------------------------------------
        BYTE   PATT
         POIN2  Plantation_Crash_Zone66_Song_2_49
// 050   ----------------------------------------
Plantation_Crash_Zone66_Song_8_LOOP:
        BYTE           N11     Gn0   v127
        BYTE   W12
        BYTE                   Gn0   v100
        BYTE   W12
        BYTE                   Gn0   v070
        BYTE   W12
        BYTE           N05     Gn0   v100
        BYTE   W06
        BYTE           N11     Gn0   v127
        BYTE   W12
        BYTE           N05
        BYTE   W06
        BYTE                   As0
        BYTE   W06
        BYTE                   Gn0
        BYTE   W06
        BYTE                   Fn0
        BYTE   W06
        BYTE                   Fn0   v070
        BYTE   W06
        BYTE                   Gn0   v127
        BYTE   W06
        BYTE                   Gn0   v070
        BYTE   W06
// 051   ----------------------------------------
        BYTE   PATT
         POIN2  Plantation_Crash_Zone66_Song_2_5
// 052   ----------------------------------------
        BYTE   PATT
         POIN2  Plantation_Crash_Zone66_Song_2_4
// 053   ----------------------------------------
        BYTE   PATT
         POIN2  Plantation_Crash_Zone66_Song_2_5
// 054   ----------------------------------------
        BYTE   PATT
         POIN2  Plantation_Crash_Zone66_Song_2_4
// 055   ----------------------------------------
        BYTE   PATT
         POIN2  Plantation_Crash_Zone66_Song_2_5
// 056   ----------------------------------------
        BYTE   PATT
         POIN2  Plantation_Crash_Zone66_Song_2_4
// 057   ----------------------------------------
        BYTE   PATT
         POIN2  Plantation_Crash_Zone66_Song_2_5
// 058   ----------------------------------------
        BYTE   PATT
         POIN2  Plantation_Crash_Zone66_Song_2_4
// 059   ----------------------------------------
        BYTE   PATT
         POIN2  Plantation_Crash_Zone66_Song_2_5
// 060   ----------------------------------------
        BYTE   PATT
         POIN2  Plantation_Crash_Zone66_Song_2_4
// 061   ----------------------------------------
        BYTE           N92     Gn0   v127   gtp3
        BYTE   W96
// 062   ----------------------------------------
        BYTE   PATT
         POIN2  Plantation_Crash_Zone66_Song_2_4
// 063   ----------------------------------------
        BYTE   PATT
         POIN2  Plantation_Crash_Zone66_Song_2_5
// 064   ----------------------------------------
        BYTE   PATT
         POIN2  Plantation_Crash_Zone66_Song_2_4
// 065   ----------------------------------------
        BYTE   PATT
         POIN2  Plantation_Crash_Zone66_Song_2_5
// 066   ----------------------------------------
        BYTE   PATT
         POIN2  Plantation_Crash_Zone66_Song_2_24
// 067   ----------------------------------------
        BYTE   PATT
         POIN2  Plantation_Crash_Zone66_Song_2_25
// 068   ----------------------------------------
        BYTE   PATT
         POIN2  Plantation_Crash_Zone66_Song_2_24
// 069   ----------------------------------------
        BYTE   PATT
         POIN2  Plantation_Crash_Zone66_Song_2_27
// 070   ----------------------------------------
        BYTE   PATT
         POIN2  Plantation_Crash_Zone66_Song_2_24
// 071   ----------------------------------------
        BYTE   PATT
         POIN2  Plantation_Crash_Zone66_Song_2_25
// 072   ----------------------------------------
        BYTE   PATT
         POIN2  Plantation_Crash_Zone66_Song_2_30
// 073   ----------------------------------------
        BYTE   PATT
         POIN2  Plantation_Crash_Zone66_Song_2_31
// 074   ----------------------------------------
        BYTE   PATT
         POIN2  Plantation_Crash_Zone66_Song_2_24
// 075   ----------------------------------------
        BYTE   PATT
         POIN2  Plantation_Crash_Zone66_Song_2_25
// 076   ----------------------------------------
        BYTE   PATT
         POIN2  Plantation_Crash_Zone66_Song_2_30
// 077   ----------------------------------------
        BYTE   PATT
         POIN2  Plantation_Crash_Zone66_Song_2_31
// 078   ----------------------------------------
        BYTE   PATT
         POIN2  Plantation_Crash_Zone66_Song_2_36
// 079   ----------------------------------------
        BYTE   PATT
         POIN2  Plantation_Crash_Zone66_Song_2_37
// 080   ----------------------------------------
        BYTE   PATT
         POIN2  Plantation_Crash_Zone66_Song_2_38
// 081   ----------------------------------------
        BYTE   PATT
         POIN2  Plantation_Crash_Zone66_Song_2_39
// 082   ----------------------------------------
        BYTE   PATT
         POIN2  Plantation_Crash_Zone66_Song_2_36
// 083   ----------------------------------------
        BYTE   PATT
         POIN2  Plantation_Crash_Zone66_Song_2_37
// 084   ----------------------------------------
        BYTE   PATT
         POIN2  Plantation_Crash_Zone66_Song_2_38
// 085   ----------------------------------------
        BYTE   PATT
         POIN2  Plantation_Crash_Zone66_Song_2_39
// 086   ----------------------------------------
        BYTE   PATT
         POIN2  Plantation_Crash_Zone66_Song_2_36
// 087   ----------------------------------------
        BYTE   PATT
         POIN2  Plantation_Crash_Zone66_Song_2_37
// 088   ----------------------------------------
        BYTE   PATT
         POIN2  Plantation_Crash_Zone66_Song_2_38
// 089   ----------------------------------------
        BYTE   PATT
         POIN2  Plantation_Crash_Zone66_Song_2_39
// 090   ----------------------------------------
        BYTE   PATT
         POIN2  Plantation_Crash_Zone66_Song_2_48
// 091   ----------------------------------------
        BYTE   PATT
         POIN2  Plantation_Crash_Zone66_Song_2_49
// 092   ----------------------------------------
        BYTE   GoTo
         POIN2  Plantation_Crash_Zone66_Song_8_LOOP
        BYTE   FINE

//***************** Track 9 (Midi-Chn.10) ******************//

Plantation_Crash_Zone66_Song_9:
        BYTE   KEYSH   Plantation_Crash_Zone66_Song_key+0
// 000   ----------------------------------------
        BYTE           VOICE   112
        BYTE           VOL     57
        BYTE           N05     Dn4   v112
        BYTE   W12
        BYTE                   Dn5
        BYTE   W06
        BYTE                   Dn4   v085
        BYTE   W06
        BYTE                   An4   v112
        BYTE   W06
        BYTE                   Dn5   v085
        BYTE   W06
        BYTE                   As4   v112
        BYTE           N05     Dn4   v035
        BYTE   W06
        BYTE                   An4   v085
        BYTE   W06
        BYTE                   Dn5   v035
        BYTE   W06
        BYTE                   As4   v085
        BYTE   W06
        BYTE                   An4   v112
        BYTE   W12
        BYTE                   As4   v035
        BYTE           N05     Gn4   v112
        BYTE   W06
        BYTE                   An4   v085
        BYTE   W06
        BYTE                   An4   v112
        BYTE   W06
        BYTE                   Gn4   v085
        BYTE   W06
// 001   ----------------------------------------
        BYTE                   Dn4   v112
        BYTE           N05     An4   v035
        BYTE   W06
        BYTE                   An4   v085
        BYTE   W06
        BYTE                   Gn4   v035
        BYTE           N05     Dn5   v112
        BYTE   W06
        BYTE                   Dn4   v085
        BYTE   W06
        BYTE                   An4   v112
        BYTE   W06
        BYTE                   Dn5   v085
        BYTE   W06
        BYTE                   Cn5   v112
        BYTE           N05     Dn4   v035
        BYTE   W06
        BYTE                   An4   v085
        BYTE   W06
        BYTE                   Dn5   v035
        BYTE   W06
        BYTE                   Cn5   v085
        BYTE   W06
        BYTE                   An4   v112
        BYTE   W12
        BYTE                   Cn5   v035
        BYTE           N05     Gn4   v112
        BYTE   W06
        BYTE                   An4   v085
        BYTE   W06
        BYTE                   An4   v112
        BYTE   W06
        BYTE                   Gn4   v085
        BYTE   W06
// 002   ----------------------------------------
        BYTE                   Dn4   v112
        BYTE           N05     An4   v035
        BYTE   W06
        BYTE                   An4   v085
        BYTE   W06
        BYTE                   Dn5   v112
        BYTE           N05     Gn4   v035
        BYTE   W06
        BYTE                   Dn4   v085
        BYTE   W06
        BYTE                   An4   v112
        BYTE   W06
        BYTE                   Dn5   v085
        BYTE   W06
        BYTE                   As4   v112
        BYTE           N05     Dn4   v035
        BYTE   W06
        BYTE                   An4   v085
        BYTE   W06
        BYTE                   Dn5   v035
        BYTE   W06
        BYTE                   As4   v085
        BYTE   W06
        BYTE                   An4   v112
        BYTE   W12
        BYTE                   As4   v035
        BYTE           N05     Gn4   v112
        BYTE   W06
        BYTE                   An4   v085
        BYTE   W06
        BYTE                   An4   v112
        BYTE   W06
        BYTE                   Gn4   v085
        BYTE   W06
// 003   ----------------------------------------
        BYTE                   Dn4   v112
        BYTE           N05     An4   v035
        BYTE   W06
        BYTE                   An4   v085
        BYTE   W06
        BYTE                   Gn4   v035
        BYTE           N05     Dn5   v112
        BYTE   W06
        BYTE                   Dn4   v085
        BYTE   W06
        BYTE                   An4   v035
        BYTE   W06
        BYTE                   Dn5   v085
        BYTE   W06
        BYTE                   Cn5   v112
        BYTE           N05     Dn4   v035
        BYTE   W06
        BYTE                   An4   v085
        BYTE   W06
        BYTE                   Dn5   v035
        BYTE   W06
        BYTE                   Cn5   v085
        BYTE   W06
        BYTE                   An4   v112
        BYTE   W12
        BYTE                   Cn5   v035
        BYTE           N05     Gn4   v112
        BYTE   W06
        BYTE                   An4   v085
        BYTE   W06
        BYTE                   An4   v112
        BYTE   W06
        BYTE                   Gn4   v085
        BYTE   W06
// 004   ----------------------------------------
        BYTE                   Dn4   v112
        BYTE           N05     An4   v035
        BYTE   W06
        BYTE                   An4   v085
        BYTE   W06
        BYTE                   Dn5   v112
        BYTE           N05     Gn4   v035
        BYTE   W06
        BYTE                   Dn4   v085
        BYTE   W06
        BYTE                   An4   v035
        BYTE   W06
        BYTE                   Dn5   v085
        BYTE   W06
        BYTE                   Dn4   v035
        BYTE           N05     As4   v112
        BYTE   W06
        BYTE                   An4   v085
        BYTE   W06
        BYTE                   Dn5   v035
        BYTE   W06
        BYTE                   As4   v085
        BYTE   W06
        BYTE                   An4   v112
        BYTE   W12
        BYTE                   As4   v035
        BYTE           N05     Gn4   v112
        BYTE   W06
        BYTE                   An4   v085
        BYTE   W06
        BYTE                   An4   v112
        BYTE   W06
        BYTE                   Gn4   v085
        BYTE   W06
// 005   ----------------------------------------
        BYTE                   Dn4   v112
        BYTE           N05     An4   v035
        BYTE   W06
        BYTE                   An4   v085
        BYTE   W06
        BYTE                   Dn5   v112
        BYTE           N05     Gn4   v035
        BYTE   W06
        BYTE                   Dn4   v085
        BYTE   W06
        BYTE                   An4   v112
        BYTE   W06
        BYTE                   Dn5   v085
        BYTE   W06
        BYTE                   Dn4   v035
        BYTE           N05     Cn5   v112
        BYTE   W06
        BYTE                   An4   v085
        BYTE   W06
        BYTE                   Dn5   v035
        BYTE   W06
        BYTE                   Cn5   v085
        BYTE   W06
        BYTE                   An4   v035
        BYTE   W12
        BYTE                   Cn5
        BYTE           N05     Gn4   v112
        BYTE   W06
        BYTE                   An4   v085
        BYTE   W06
        BYTE                   An4   v112
        BYTE   W06
        BYTE                   Gn4   v085
        BYTE   W06
// 006   ----------------------------------------
        BYTE                   Dn4   v112
        BYTE           N05     An4   v035
        BYTE   W06
        BYTE                   An4   v085
        BYTE   W06
        BYTE                   Dn5   v112
        BYTE           N05     Gn4   v035
        BYTE   W06
        BYTE                   Dn4   v085
        BYTE   W06
        BYTE                   An4   v035
        BYTE   W06
        BYTE                   Dn5   v085
        BYTE   W06
        BYTE                   Dn4   v035
        BYTE           N05     As4   v112
        BYTE   W06
        BYTE                   An4   v085
        BYTE   W06
        BYTE                   Dn5   v035
        BYTE   W06
        BYTE                   As4   v085
        BYTE   W06
        BYTE                   An4   v035
        BYTE   W12
        BYTE                   As4
        BYTE           N05     Gn4   v112
        BYTE   W06
        BYTE                   An4   v085
        BYTE   W06
        BYTE                   An4   v112
        BYTE   W06
        BYTE                   Gn4   v085
        BYTE   W06
// 007   ----------------------------------------
        BYTE                   Dn4   v112
        BYTE           N05     An4   v035
        BYTE   W06
        BYTE                   An4   v085
        BYTE   W06
        BYTE                   Dn5   v112
        BYTE           N05     Gn4   v035
        BYTE   W06
        BYTE                   Dn4   v085
        BYTE   W06
        BYTE                   An4   v112
        BYTE   W06
        BYTE                   Dn5   v085
        BYTE   W06
        BYTE                   Cn5   v112
        BYTE           N05     Dn4   v035
        BYTE   W06
        BYTE                   An4   v085
        BYTE   W06
        BYTE                   Dn5   v035
        BYTE   W06
        BYTE                   Cn5   v085
        BYTE   W06
        BYTE                   An4   v112
        BYTE   W12
        BYTE                   Cn5   v035
        BYTE           N05     Gn4   v112
        BYTE   W06
        BYTE                   An4   v085
        BYTE   W06
        BYTE                   An4   v112
        BYTE   W06
        BYTE                   Gn4   v085
        BYTE   W06
// 008   ----------------------------------------
        BYTE                   An4   v035
        BYTE   W06
        BYTE                   An4   v085
        BYTE   W06
        BYTE                   Gn4   v035
        BYTE   W12
        BYTE                   An4
        BYTE   W72
// 009   ----------------------------------------
        BYTE   W96
// 010   ----------------------------------------
        BYTE   W96
// 011   ----------------------------------------
        BYTE   W96
// 012   ----------------------------------------
        BYTE   W96
// 013   ----------------------------------------
        BYTE   W96
// 014   ----------------------------------------
        BYTE   W96
// 015   ----------------------------------------
        BYTE   W96
// 016   ----------------------------------------
        BYTE   W96
// 017   ----------------------------------------
        BYTE   W96
// 018   ----------------------------------------
        BYTE   W96
// 019   ----------------------------------------
        BYTE   W96
// 020   ----------------------------------------
        BYTE   W96
// 021   ----------------------------------------
        BYTE   W96
// 022   ----------------------------------------
        BYTE   W96
// 023   ----------------------------------------
        BYTE   W96
// 024   ----------------------------------------
        BYTE   W96
// 025   ----------------------------------------
        BYTE   W96
// 026   ----------------------------------------
        BYTE   W96
// 027   ----------------------------------------
Plantation_Crash_Zone66_Song_9_27:
        BYTE           N05     Fs3   v112
        BYTE   W18
        BYTE                   Fs3   v085
        BYTE   W06
        BYTE                   Cs4   v112
        BYTE   W12
        BYTE                   Fs3   v035
        BYTE   W06
        BYTE                   Cs4   v085
        BYTE   W06
        BYTE                   En4   v112
        BYTE   W12
        BYTE                   Cs4   v035
        BYTE   W06
        BYTE                   En4   v085
        BYTE   W06
        BYTE                   Bn3   v112
        BYTE   W12
        BYTE                   En4   v035
        BYTE   W06
        BYTE                   Bn3   v085
        BYTE   W06
        BYTE   PEND
// 028   ----------------------------------------
Plantation_Crash_Zone66_Song_9_28:
        BYTE           N05     Cs4   v112
        BYTE   W12
        BYTE                   Cs5
        BYTE           N05     Bn3   v035
        BYTE   W06
        BYTE                   Cs4   v085
        BYTE   W06
        BYTE                   Gs4   v112
        BYTE   W06
        BYTE                   Cs5   v085
        BYTE   W06
        BYTE                   An4   v112
        BYTE           N05     Cs4   v035
        BYTE   W06
        BYTE                   Gs4   v085
        BYTE   W06
        BYTE                   Cs5   v035
        BYTE   W06
        BYTE                   An4   v085
        BYTE   W06
        BYTE                   Gs4   v112
        BYTE   W12
        BYTE                   An4   v035
        BYTE           N05     Fs4   v112
        BYTE   W06
        BYTE                   Gs4   v085
        BYTE   W06
        BYTE                   Gs4   v112
        BYTE   W06
        BYTE                   Fs4   v085
        BYTE   W06
        BYTE   PEND
// 029   ----------------------------------------
Plantation_Crash_Zone66_Song_9_29:
        BYTE           N05     Cs4   v112
        BYTE           N05     Gs4   v035
        BYTE   W06
        BYTE                   Gs4   v085
        BYTE   W06
        BYTE                   Fs4   v035
        BYTE   W06
        BYTE                   Cs4   v085
        BYTE   W06
        BYTE                   Gs4   v035
        BYTE   W12
        BYTE                   Cs4
        BYTE   W24
        BYTE                   Fs4   v112
        BYTE   W12
        BYTE                   Gn4
        BYTE   W06
        BYTE                   Fs4   v085
        BYTE   W06
        BYTE                   En4   v112
        BYTE   W06
        BYTE                   Gn4   v085
        BYTE   W06
        BYTE   PEND
// 030   ----------------------------------------
Plantation_Crash_Zone66_Song_9_30:
        BYTE           N05     Cs4   v112
        BYTE           N05     Fs4   v035
        BYTE   W06
        BYTE                   En4   v085
        BYTE   W06
        BYTE                   Cs5   v112
        BYTE           N05     Gn4   v035
        BYTE   W06
        BYTE                   Cs4   v085
        BYTE   W06
        BYTE                   Gs4   v112
        BYTE           N05     En4   v035
        BYTE   W06
        BYTE                   Cs5   v085
        BYTE   W06
        BYTE                   Cs4   v035
        BYTE           N05     An4   v112
        BYTE   W06
        BYTE                   Gs4   v085
        BYTE   W06
        BYTE                   Cs5   v035
        BYTE   W06
        BYTE                   An4   v085
        BYTE   W06
        BYTE                   Gs4   v035
        BYTE   W12
        BYTE                   An4
        BYTE           N05     Fs4   v112
        BYTE   W06
        BYTE                   Gs4   v085
        BYTE   W06
        BYTE                   Cs5   v112
        BYTE   W06
        BYTE                   Fs4   v085
        BYTE   W06
        BYTE   PEND
// 031   ----------------------------------------
Plantation_Crash_Zone66_Song_9_31:
        BYTE           N05     Bn4   v112
        BYTE           N05     Gs4   v035
        BYTE   W06
        BYTE                   Cs5   v085
        BYTE   W06
        BYTE                   Fs4   v035
        BYTE   W06
        BYTE                   Bn4   v085
        BYTE   W06
        BYTE                   Cs5   v035
        BYTE   W12
        BYTE                   Bn4
        BYTE   W24
        BYTE                   An4   v112
        BYTE   W12
        BYTE                   Gs4
        BYTE   W06
        BYTE                   An4   v085
        BYTE   W06
        BYTE                   En4   v112
        BYTE   W06
        BYTE                   Gs4   v085
        BYTE   W06
        BYTE   PEND
// 032   ----------------------------------------
Plantation_Crash_Zone66_Song_9_32:
        BYTE           N05     Cs4   v112
        BYTE           N05     An4   v035
        BYTE   W06
        BYTE                   En4   v085
        BYTE   W06
        BYTE                   Cs5   v112
        BYTE           N05     Gs4   v035
        BYTE   W06
        BYTE                   Cs4   v085
        BYTE   W06
        BYTE                   En4   v035
        BYTE           N05     Gs4   v112
        BYTE   W06
        BYTE                   Cs5   v085
        BYTE   W06
        BYTE                   An4   v112
        BYTE           N05     Cs4   v035
        BYTE   W06
        BYTE                   Gs4   v085
        BYTE   W06
        BYTE                   Cs5   v035
        BYTE   W06
        BYTE                   An4   v085
        BYTE   W06
        BYTE                   Gs4   v112
        BYTE   W12
        BYTE                   An4   v035
        BYTE           N05     Fs4   v112
        BYTE   W06
        BYTE                   Gs4   v085
        BYTE   W06
        BYTE                   Gs4   v112
        BYTE   W06
        BYTE                   Fs4   v085
        BYTE   W06
        BYTE   PEND
// 033   ----------------------------------------
        BYTE   PATT
         POIN2  Plantation_Crash_Zone66_Song_9_29
// 034   ----------------------------------------
Plantation_Crash_Zone66_Song_9_34:
        BYTE           N05     Cs4   v112
        BYTE           N05     Fs4   v035
        BYTE   W06
        BYTE                   En4   v085
        BYTE   W06
        BYTE                   Cs5   v112
        BYTE           N05     Gn4   v035
        BYTE   W06
        BYTE                   Cs4   v085
        BYTE   W06
        BYTE                   En4   v035
        BYTE           N05     Gs4   v112
        BYTE   W06
        BYTE                   Cs5   v085
        BYTE   W06
        BYTE                   An4   v112
        BYTE           N05     Cs4   v035
        BYTE   W06
        BYTE                   Gs4   v085
        BYTE   W06
        BYTE                   Cs5   v035
        BYTE   W06
        BYTE                   An4   v085
        BYTE   W06
        BYTE                   Gs4   v112
        BYTE   W12
        BYTE                   An4   v035
        BYTE           N05     Fs4   v112
        BYTE   W06
        BYTE                   Gs4   v085
        BYTE   W06
        BYTE                   Cs5   v112
        BYTE   W06
        BYTE                   Fs4   v085
        BYTE   W06
        BYTE   PEND
// 035   ----------------------------------------
Plantation_Crash_Zone66_Song_9_35:
        BYTE           N05     Gs4   v035
        BYTE           N05     Bn4   v112
        BYTE   W06
        BYTE                   Cs5   v085
        BYTE   W06
        BYTE                   Fs4   v035
        BYTE   W06
        BYTE                   Bn4   v085
        BYTE   W06
        BYTE                   Cs5   v035
        BYTE   W12
        BYTE                   Bn4
        BYTE   W24
        BYTE                   An4   v112
        BYTE   W12
        BYTE                   Gs4
        BYTE   W06
        BYTE                   An4   v085
        BYTE   W06
        BYTE                   En4   v112
        BYTE   W06
        BYTE                   Gs4   v085
        BYTE   W06
        BYTE   PEND
// 036   ----------------------------------------
Plantation_Crash_Zone66_Song_9_36:
        BYTE           N05     Cs5   v112
        BYTE           N05     An4   v035
        BYTE   W06
        BYTE                   En4   v085
        BYTE   W06
        BYTE                   Gs4   v112
        BYTE   W06
        BYTE                   Cs5   v085
        BYTE   W06
        BYTE                   Ds5   v112
        BYTE           N05     En4   v035
        BYTE   W06
        BYTE                   Gs4   v085
        BYTE   W06
        BYTE                   Cs5   v035
        BYTE   W06
        BYTE                   Ds5   v085
        BYTE   W06
        BYTE                   En5   v112
        BYTE           N05     Gs4   v035
        BYTE   W06
        BYTE                   Cs5   v085
        BYTE   W06
        BYTE                   Ds5   v035
        BYTE   W06
        BYTE                   En5   v085
        BYTE   W06
        BYTE                   Cs5   v035
        BYTE   W06
        BYTE                   Ds5   v085
        BYTE           N05     En5   v112
        BYTE   W06
        BYTE                   Fs5
        BYTE           N05     En5   v085
        BYTE   W12
        BYTE   PEND
// 037   ----------------------------------------
Plantation_Crash_Zone66_Song_9_37:
        BYTE           N05     Ds5   v112
        BYTE           N05     En5   v085
        BYTE   W06
        BYTE                   Fs5
        BYTE           N05     En5   v035
        BYTE   W12
        BYTE                   Ds5   v085
        BYTE           N05     En5   v035
        BYTE   W06
        BYTE                   Fs5
        BYTE   W12
        BYTE                   Ds5
        BYTE   W60
        BYTE   PEND
// 038   ----------------------------------------
Plantation_Crash_Zone66_Song_9_38:
        BYTE           N05     Cs5   v112
        BYTE   W12
        BYTE                   Gs4
        BYTE   W06
        BYTE                   Cs5   v085
        BYTE   W06
        BYTE                   Ds5   v112
        BYTE   W06
        BYTE                   Gs4   v085
        BYTE   W06
        BYTE                   Cs5   v035
        BYTE   W06
        BYTE                   Ds5   v085
        BYTE   W06
        BYTE                   Gs4   v035
        BYTE           N05     En5   v112
        BYTE   W06
        BYTE                   Cs5   v085
        BYTE   W06
        BYTE                   Ds5   v112
        BYTE   W06
        BYTE                   En5   v085
        BYTE   W06
        BYTE                   Cs5   v035
        BYTE   W06
        BYTE                   En5   v112
        BYTE           N05     Ds5   v085
        BYTE   W06
        BYTE                   Fs5   v112
        BYTE           N05     En5   v085
        BYTE   W12
        BYTE   PEND
// 039   ----------------------------------------
Plantation_Crash_Zone66_Song_9_39:
        BYTE           N05     Ds5   v112
        BYTE           N05     En5   v085
        BYTE   W06
        BYTE                   En5   v035
        BYTE           N05     Fs5   v085
        BYTE   W12
        BYTE                   Ds5
        BYTE           N05     En5   v035
        BYTE   W06
        BYTE                   Fs5
        BYTE   W12
        BYTE                   Ds5
        BYTE   W60
        BYTE   PEND
// 040   ----------------------------------------
Plantation_Crash_Zone66_Song_9_40:
        BYTE           N05     Cs5   v112
        BYTE   W12
        BYTE                   Gs4
        BYTE   W06
        BYTE                   Cs5   v085
        BYTE   W06
        BYTE                   Ds5   v112
        BYTE   W06
        BYTE                   Gs4   v085
        BYTE   W06
        BYTE                   Cs5   v035
        BYTE   W06
        BYTE                   Ds5   v085
        BYTE   W06
        BYTE                   Gs4   v035
        BYTE           N05     En5   v112
        BYTE   W06
        BYTE                   Cs5   v085
        BYTE   W06
        BYTE                   Ds5   v035
        BYTE   W06
        BYTE                   En5   v085
        BYTE   W06
        BYTE                   Cs5   v035
        BYTE   W06
        BYTE                   En5   v112
        BYTE           N05     Ds5   v085
        BYTE   W06
        BYTE                   Fs5   v112
        BYTE           N05     En5   v035
        BYTE   W12
        BYTE   PEND
// 041   ----------------------------------------
Plantation_Crash_Zone66_Song_9_41:
        BYTE           N05     Ds5   v035
        BYTE           N05     En5   v085
        BYTE   W06
        BYTE                   En5   v035
        BYTE           N05     Fs5   v085
        BYTE   W12
        BYTE                   En5   v035
        BYTE           N05     Ds5   v085
        BYTE   W06
        BYTE                   Fs5   v035
        BYTE   W12
        BYTE                   Ds5
        BYTE   W60
        BYTE   PEND
// 042   ----------------------------------------
Plantation_Crash_Zone66_Song_9_42:
        BYTE           N05     Cs5   v112
        BYTE   W12
        BYTE                   Gs4
        BYTE   W06
        BYTE                   Cs5   v085
        BYTE   W06
        BYTE                   Ds5   v112
        BYTE   W06
        BYTE                   Gs4   v085
        BYTE   W06
        BYTE                   Cs5   v035
        BYTE   W06
        BYTE                   Ds5   v085
        BYTE   W06
        BYTE                   Gs4   v035
        BYTE           N05     En5   v112
        BYTE   W06
        BYTE                   Cs5   v085
        BYTE   W06
        BYTE                   Ds5   v112
        BYTE   W06
        BYTE                   En5   v085
        BYTE   W06
        BYTE                   Cs5   v035
        BYTE   W06
        BYTE                   Ds5   v085
        BYTE           N05     En5   v112
        BYTE   W06
        BYTE                   En5   v035
        BYTE           N05     Fs5   v112
        BYTE   W12
        BYTE   PEND
// 043   ----------------------------------------
Plantation_Crash_Zone66_Song_9_43:
        BYTE           N05     En5   v085
        BYTE           N05     Ds5   v035
        BYTE   W06
        BYTE                   Fs5   v085
        BYTE           N05     En5   v035
        BYTE   W12
        BYTE                   Ds5   v085
        BYTE           N05     En5   v035
        BYTE   W06
        BYTE                   Fs5
        BYTE   W12
        BYTE                   Ds5
        BYTE   W60
        BYTE   PEND
// 044   ----------------------------------------
Plantation_Crash_Zone66_Song_9_44:
        BYTE           N05     Cs5   v112
        BYTE   W18
        BYTE                   Cs5   v085
        BYTE   W18
        BYTE                   Cs5   v035
        BYTE   W60
        BYTE   PEND
// 045   ----------------------------------------
        BYTE   W96
// 046   ----------------------------------------
Plantation_Crash_Zone66_Song_9_46:
        BYTE           N05     Cs5   v112
        BYTE   W18
        BYTE                   Cs5   v085
        BYTE   W18
        BYTE                   Cs5   v112
        BYTE   W12
        BYTE                   En5
        BYTE   W06
        BYTE                   Cs5   v085
        BYTE   W12
        BYTE                   En5
        BYTE   W06
        BYTE                   Cs5   v035
        BYTE           N05     Gs5   v112
        BYTE   W12
        BYTE                   En5   v035
        BYTE           N05     Fs5   v112
        BYTE   W06
        BYTE                   Gs5   v085
        BYTE   W06
        BYTE   PEND
// 047   ----------------------------------------
Plantation_Crash_Zone66_Song_9_47:
        BYTE           N05     Gs5   v112
        BYTE   W06
        BYTE                   Fs5   v085
        BYTE   W06
        BYTE                   Gs5   v035
        BYTE   W06
        BYTE                   Gs5   v085
        BYTE   W06
        BYTE                   Fs5   v112
        BYTE   W12
        BYTE                   Gs5   v035
        BYTE   W06
        BYTE                   Fs5   v085
        BYTE   W06
        BYTE                   En5   v112
        BYTE   W12
        BYTE                   Fs5   v035
        BYTE   W06
        BYTE                   En5   v085
        BYTE   W06
        BYTE                   Fs5   v112
        BYTE   W12
        BYTE                   En5   v035
        BYTE   W06
        BYTE                   Fs5   v085
        BYTE   W06
        BYTE   PEND
// 048   ----------------------------------------
Plantation_Crash_Zone66_Song_9_48:
        BYTE           N05     Cs6   v112
        BYTE   W12
        BYTE                   Fs5   v035
        BYTE   W06
        BYTE                   Cs6   v085
        BYTE   W18
        BYTE                   Cs6   v035
        BYTE   W60
        BYTE   PEND
// 049   ----------------------------------------
        BYTE   W72
// 050   ----------------------------------------
Plantation_Crash_Zone66_Song_9_LOOP:
        BYTE           N05     An4   v035
        BYTE   W06
        BYTE                   An4   v085
        BYTE   W06
        BYTE                   Gn4   v035
        BYTE   W12
        BYTE                   An4
        BYTE   W72
// 051   ----------------------------------------
        BYTE   W96
// 052   ----------------------------------------
        BYTE   W96
// 053   ----------------------------------------
        BYTE   W96
// 054   ----------------------------------------
        BYTE   W96
// 055   ----------------------------------------
        BYTE   W96
// 056   ----------------------------------------
        BYTE   W96
// 057   ----------------------------------------
        BYTE   W96
// 058   ----------------------------------------
        BYTE   W96
// 059   ----------------------------------------
        BYTE   W96
// 060   ----------------------------------------
        BYTE   W96
// 061   ----------------------------------------
        BYTE   W96
// 062   ----------------------------------------
        BYTE   W96
// 063   ----------------------------------------
        BYTE   W96
// 064   ----------------------------------------
        BYTE   W96
// 065   ----------------------------------------
        BYTE   W96
// 066   ----------------------------------------
        BYTE   W96
// 067   ----------------------------------------
        BYTE   W96
// 068   ----------------------------------------
        BYTE   W96
// 069   ----------------------------------------
        BYTE   PATT
         POIN2  Plantation_Crash_Zone66_Song_9_27
// 070   ----------------------------------------
        BYTE   PATT
         POIN2  Plantation_Crash_Zone66_Song_9_28
// 071   ----------------------------------------
        BYTE   PATT
         POIN2  Plantation_Crash_Zone66_Song_9_29
// 072   ----------------------------------------
        BYTE   PATT
         POIN2  Plantation_Crash_Zone66_Song_9_30
// 073   ----------------------------------------
        BYTE   PATT
         POIN2  Plantation_Crash_Zone66_Song_9_31
// 074   ----------------------------------------
        BYTE   PATT
         POIN2  Plantation_Crash_Zone66_Song_9_32
// 075   ----------------------------------------
        BYTE   PATT
         POIN2  Plantation_Crash_Zone66_Song_9_29
// 076   ----------------------------------------
        BYTE   PATT
         POIN2  Plantation_Crash_Zone66_Song_9_34
// 077   ----------------------------------------
        BYTE   PATT
         POIN2  Plantation_Crash_Zone66_Song_9_35
// 078   ----------------------------------------
        BYTE   PATT
         POIN2  Plantation_Crash_Zone66_Song_9_36
// 079   ----------------------------------------
        BYTE   PATT
         POIN2  Plantation_Crash_Zone66_Song_9_37
// 080   ----------------------------------------
        BYTE   PATT
         POIN2  Plantation_Crash_Zone66_Song_9_38
// 081   ----------------------------------------
        BYTE   PATT
         POIN2  Plantation_Crash_Zone66_Song_9_39
// 082   ----------------------------------------
        BYTE   PATT
         POIN2  Plantation_Crash_Zone66_Song_9_40
// 083   ----------------------------------------
        BYTE   PATT
         POIN2  Plantation_Crash_Zone66_Song_9_41
// 084   ----------------------------------------
        BYTE   PATT
         POIN2  Plantation_Crash_Zone66_Song_9_42
// 085   ----------------------------------------
        BYTE   PATT
         POIN2  Plantation_Crash_Zone66_Song_9_43
// 086   ----------------------------------------
        BYTE   PATT
         POIN2  Plantation_Crash_Zone66_Song_9_44
// 087   ----------------------------------------
        BYTE   W96
// 088   ----------------------------------------
        BYTE   PATT
         POIN2  Plantation_Crash_Zone66_Song_9_46
// 089   ----------------------------------------
        BYTE   PATT
         POIN2  Plantation_Crash_Zone66_Song_9_47
// 090   ----------------------------------------
        BYTE   PATT
         POIN2  Plantation_Crash_Zone66_Song_9_48
// 091   ----------------------------------------
        BYTE   W72
// 092   ----------------------------------------
        BYTE   GoTo
         POIN2  Plantation_Crash_Zone66_Song_9_LOOP
        BYTE   FINE

//***************** Track 10 (Midi-Chn.11) *****************//

Plantation_Crash_Zone66_Song_10:
        BYTE   KEYSH   Plantation_Crash_Zone66_Song_key+0
// 000   ----------------------------------------
        BYTE           VOICE   48
        BYTE           PAN     c_v+16
        BYTE           VOL     66
        BYTE   W96
// 001   ----------------------------------------
        BYTE   W96
// 002   ----------------------------------------
        BYTE   W96
// 003   ----------------------------------------
        BYTE   W96
// 004   ----------------------------------------
        BYTE   W96
// 005   ----------------------------------------
        BYTE   W96
// 006   ----------------------------------------
        BYTE   W96
// 007   ----------------------------------------
        BYTE   W96
// 008   ----------------------------------------
        BYTE   W96
// 009   ----------------------------------------
        BYTE   W96
// 010   ----------------------------------------
        BYTE   W96
// 011   ----------------------------------------
        BYTE   W96
// 012   ----------------------------------------
Plantation_Crash_Zone66_Song_10_12:
        BYTE           N02     Dn4   v117
        BYTE           N02     As4
        BYTE           N02     Gn4
        BYTE   W12
        BYTE                   As4   v070
        BYTE           N02     Dn4
        BYTE           N02     Gn4
        BYTE   W06
        BYTE                   Dn4   v117
        BYTE           N02     As4
        BYTE           N02     Gn4
        BYTE   W06
        BYTE                   As4   v047
        BYTE           N02     Gn4
        BYTE           N02     Dn4
        BYTE   W06
        BYTE                   Dn4   v070
        BYTE           N02     Gn4
        BYTE           N02     As4
        BYTE   W06
        BYTE                   Gn4   v117
        BYTE           N02     As4
        BYTE           N02     Dn4
        BYTE   W06
        BYTE                   Gn4   v047
        BYTE           N02     Dn4
        BYTE           N02     As4
        BYTE   W06
        BYTE                   As4   v070
        BYTE           N02     Gn4
        BYTE           N02     Dn4
        BYTE   W06
        BYTE                   Dn4   v117
        BYTE           N02     Gn4
        BYTE           N02     As4
        BYTE   W06
        BYTE                   An3
        BYTE           N02     Dn4   v047
        BYTE           N02     En3   v117
        BYTE           N02     Gn4   v047
        BYTE           N02     Cn4   v117
        BYTE           N02     As4   v047
        BYTE   W06
        BYTE                   Dn4   v070
        BYTE           N02     Gn4
        BYTE           N02     As4
        BYTE   W06
        BYTE                   Cs4   v117
        BYTE           N02     Fn3
        BYTE           N02     As3
        BYTE           N02     Cn4   v070
        BYTE           N02     An3
        BYTE           N02     En3
        BYTE   W06
        BYTE                   As4   v047
        BYTE           N02     Gn4
        BYTE           N02     Dn4
        BYTE   W06
        BYTE                   Cs4   v070
        BYTE           N02     As3
        BYTE           N02     Cn4   v047
        BYTE           N02     En3
        BYTE           N02     Gn3   v117
        BYTE           N02     An3   v047
        BYTE           N02     Fn3   v070
        BYTE           N02     Dn3   v117
        BYTE   W12
        BYTE   PEND
// 013   ----------------------------------------
Plantation_Crash_Zone66_Song_10_13:
        BYTE           N02     Gn4   v117
        BYTE           N02     Fn3   v047
        BYTE           N02     As3   v070
        BYTE           N02     Cs4   v047
        BYTE           N02     Dn3   v070
        BYTE           N02     Dn4   v117
        BYTE           N02     As4
        BYTE           N02     Gn3   v070
        BYTE   W12
        BYTE                   Gn4
        BYTE           N02     Dn3   v047
        BYTE           N02     Gn3
        BYTE           N02     As4   v070
        BYTE           N02     As3   v047
        BYTE           N02     Dn4   v070
        BYTE   W06
        BYTE                   Gn4   v117
        BYTE           N02     Dn4
        BYTE           N02     As4
        BYTE   W06
        BYTE                   Gn4   v047
        BYTE           N02     As4
        BYTE           N02     Dn4
        BYTE   W06
        BYTE                   As4   v070
        BYTE           N02     Dn4
        BYTE           N02     Gn4
        BYTE   W06
        BYTE                   Dn4   v117
        BYTE           N02     Gn4
        BYTE           N02     As4
        BYTE   W06
        BYTE                   Dn4   v047
        BYTE           N02     As4
        BYTE           N02     Gn4
        BYTE   W06
        BYTE                   Gn4   v070
        BYTE           N02     As4   v117
        BYTE           N02     Fn4
        BYTE           N02     Dn4   v070
        BYTE           N02     Cs5   v117
        BYTE   W06
        BYTE                   As4
        BYTE           N02     Dn4
        BYTE           N02     Gn4
        BYTE   W06
        BYTE                   Cs5   v070
        BYTE           N02     Bn4   v117
        BYTE           N02     Fs4
        BYTE           N02     Dn5
        BYTE           N02     Gn4   v047
        BYTE           N02     Fn4   v070
        BYTE           N02     As4   v047
        BYTE           N02     Dn4
        BYTE   W06
        BYTE                   As4   v117
        BYTE           N02     Dn4   v070
        BYTE           N02     Gn4
        BYTE   W06
        BYTE                   Dn5
        BYTE           N02     Bn4
        BYTE           N02     As4   v047
        BYTE           N02     Fs4   v070
        BYTE           N02     Gs4   v117
        BYTE           N02     Cn4
        BYTE           N02     Fn4   v047
        BYTE           N02     Cs5
        BYTE   W06
        BYTE                   Gn4   v070
        BYTE           N02     Dn4   v047
        BYTE           N02     As4
        BYTE   W06
        BYTE                   Bn4
        BYTE           N02     Fn4   v070
        BYTE           N02     An4   v117
        BYTE           N02     Cs4
        BYTE           N02     Fs4   v047
        BYTE           N02     Cn4   v070
        BYTE           N02     Dn5   v047
        BYTE           N02     Gs4   v070
        BYTE   W06
        BYTE                   Dn4   v047
        BYTE           N02     Gn4
        BYTE           N02     As4
        BYTE   W06
        BYTE   PEND
// 014   ----------------------------------------
Plantation_Crash_Zone66_Song_10_14:
        BYTE           N02     Fn4   v047
        BYTE           N02     Cs4   v070
        BYTE           N02     Gs4   v047
        BYTE           N02     Fs4   v070
        BYTE           N02     Cn4   v047
        BYTE           N02     Gn4   v117
        BYTE           N02     Dn4
        BYTE           N02     As4
        BYTE           N02     An4   v070
        BYTE   W12
        BYTE                   Dn4
        BYTE           N02     An4   v047
        BYTE           N02     Fs4
        BYTE           N02     Gn4   v070
        BYTE           N02     Cs4   v047
        BYTE           N02     As4   v070
        BYTE   W06
        BYTE                   Dn4   v117
        BYTE           N02     As4
        BYTE           N02     Gn4
        BYTE   W06
        BYTE                   As4   v047
        BYTE           N02     Gn4
        BYTE           N02     Dn4
        BYTE   W06
        BYTE                   Gn4   v070
        BYTE           N02     Dn4
        BYTE           N02     As4
        BYTE   W06
        BYTE                   Dn4   v117
        BYTE           N02     As4
        BYTE           N02     Gn4
        BYTE   W06
        BYTE                   As4   v047
        BYTE           N02     Gn4
        BYTE           N02     Dn4
        BYTE   W06
        BYTE                   Gn4   v070
        BYTE           N02     Dn4
        BYTE           N02     As4
        BYTE   W06
        BYTE                   Dn4   v117
        BYTE           N02     As4
        BYTE           N02     Gn4
        BYTE   W06
        BYTE                   Cn4
        BYTE           N02     Gn4   v047
        BYTE           N02     An3   v117
        BYTE           N02     Dn4   v047
        BYTE           N02     As4
        BYTE           N02     En3   v117
        BYTE   W06
        BYTE                   As4   v070
        BYTE           N02     Gn4
        BYTE           N02     Dn4
        BYTE   W06
        BYTE                   Cs4   v117
        BYTE           N02     Fn3
        BYTE           N02     Cn4   v070
        BYTE           N02     En3
        BYTE           N02     An3
        BYTE           N02     As3   v117
        BYTE   W06
        BYTE                   As4   v047
        BYTE           N02     Dn4
        BYTE           N02     Gn4
        BYTE   W06
        BYTE                   En3
        BYTE           N02     Dn3   v117
        BYTE           N02     Cs4   v070
        BYTE           N02     Cn4   v047
        BYTE           N02     Gn3   v117
        BYTE           N02     An3   v047
        BYTE           N02     Fn3   v070
        BYTE           N02     As3
        BYTE   W12
        BYTE   PEND
// 015   ----------------------------------------
Plantation_Crash_Zone66_Song_10_15:
        BYTE           N02     Gn3   v070
        BYTE           N02     Dn3
        BYTE           N02     Gn4   v117
        BYTE           N02     Dn4
        BYTE           N02     As4
        BYTE           N02     As3   v070
        BYTE           N02     Cs4   v047
        BYTE           N02     Fn3
        BYTE   W12
        BYTE                   Gn4   v070
        BYTE           N02     As3   v047
        BYTE           N02     Dn3
        BYTE           N02     As4   v070
        BYTE           N02     Dn4
        BYTE           N02     Gn3   v047
        BYTE   W06
        BYTE                   Dn4   v117
        BYTE           N02     As4
        BYTE           N02     Gn4
        BYTE   W06
        BYTE                   Gn4   v047
        BYTE           N02     Dn4
        BYTE           N02     As4
        BYTE   W06
        BYTE                   Dn4   v070
        BYTE           N02     Gn4
        BYTE           N02     As4
        BYTE   W06
        BYTE                   Dn4   v117
        BYTE           N02     As4
        BYTE           N02     Gn4
        BYTE   W06
        BYTE                   As4   v047
        BYTE           N02     Dn4
        BYTE           N02     Gn4
        BYTE   W06
        BYTE                   Gn4   v070
        BYTE           N02     Fn4   v117
        BYTE           N02     Cs5
        BYTE           N02     Dn4   v070
        BYTE           N02     As4
        BYTE   W06
        BYTE                   Gn4   v117
        BYTE           N02     Dn4
        BYTE           N02     As4
        BYTE   W06
        BYTE                   Dn4   v047
        BYTE           N02     Bn4   v117
        BYTE           N02     Fn4   v070
        BYTE           N02     Dn5   v117
        BYTE           N02     Cs5   v070
        BYTE           N02     Gn4   v047
        BYTE           N02     Fs4   v117
        BYTE           N02     As4   v047
        BYTE   W06
        BYTE                   Gn4   v070
        BYTE           N02     As4
        BYTE           N02     Dn4
        BYTE   W06
        BYTE                   Bn4
        BYTE           N02     Fn4   v117
        BYTE           N02     Cs5   v047
        BYTE           N02     Gs4   v117
        BYTE           N02     Cn4
        BYTE           N02     As4   v047
        BYTE           N02     Dn5   v070
        BYTE           N02     Fs4
        BYTE   W06
        BYTE                   Dn4   v047
        BYTE           N02     Gn4
        BYTE           N02     As4   v070
        BYTE   W06
        BYTE                   Cn4
        BYTE           N02     Cs4   v117
        BYTE           N02     Gs4   v070
        BYTE           N02     Dn5   v047
        BYTE           N02     Fs4
        BYTE           N02     Fn4   v070
        BYTE           N02     An4   v117
        BYTE           N02     Bn4   v047
        BYTE   W06
        BYTE                   Gn4
        BYTE           N02     As4
        BYTE           N02     Dn4
        BYTE   W06
        BYTE   PEND
// 016   ----------------------------------------
Plantation_Crash_Zone66_Song_10_16:
        BYTE           N02     Fs4   v070
        BYTE           N02     Gn4   v117
        BYTE           N02     Dn4
        BYTE           N02     Fn4   v047
        BYTE           N02     An4   v070
        BYTE           N02     Gs4   v047
        BYTE           N02     Cs4   v070
        BYTE           N02     As4   v117
        BYTE           N02     Cn4   v047
        BYTE   W12
        BYTE                   An4
        BYTE           N02     Dn4   v070
        BYTE           N02     As4
        BYTE           N02     Fs4   v047
        BYTE           N02     Gn4   v070
        BYTE           N02     Cs4   v047
        BYTE   W06
        BYTE                   As4   v117
        BYTE           N02     Dn4
        BYTE           N02     Gn4
        BYTE   W06
        BYTE                   Dn4   v047
        BYTE           N02     As4
        BYTE           N02     Gn4
        BYTE   W06
        BYTE                   Gn4   v070
        BYTE           N02     Dn4
        BYTE           N02     As4
        BYTE   W06
        BYTE                   Gn4   v117
        BYTE           N02     As4
        BYTE           N02     Dn4
        BYTE   W06
        BYTE                   As4   v047
        BYTE           N02     Gn4
        BYTE           N02     Dn4
        BYTE   W06
        BYTE                   Gn4   v070
        BYTE           N02     As4
        BYTE           N02     Dn4
        BYTE   W06
        BYTE                   Dn4   v117
        BYTE           N02     Gn4
        BYTE           N02     As4
        BYTE   W06
        BYTE                   Gn4   v047
        BYTE           N02     Cn4   v117
        BYTE           N02     As4   v047
        BYTE           N02     Dn4
        BYTE           N02     Fn4   v117
        BYTE           N02     Gs4
        BYTE   W06
        BYTE                   As4   v070
        BYTE           N02     Gn4
        BYTE           N02     Dn4
        BYTE   W06
        BYTE                   Gn4   v117
        BYTE           N02     Cn4   v070
        BYTE           N02     Fn4
        BYTE           N02     As4   v117
        BYTE           N02     Gs4   v070
        BYTE           N02     Dn4   v117
        BYTE   W06
        BYTE                   Gn4   v047
        BYTE           N02     Dn4
        BYTE           N02     As4
        BYTE   W06
        BYTE                   Gn4   v070
        BYTE           N02     Dn4
        BYTE           N02     As4
        BYTE           N02     Gs4   v047
        BYTE           N02     Cn4
        BYTE           N02     Fn4   v117
        BYTE   W12
        BYTE   PEND
// 017   ----------------------------------------
Plantation_Crash_Zone66_Song_10_17:
        BYTE           N02     Gn4   v047
        BYTE           N02     Gs4   v070
        BYTE           N02     As4   v047
        BYTE           N02     Cn4   v070
        BYTE           N02     Dn4   v117
        BYTE           N02     Fn4   v070
        BYTE   W12
        BYTE                   Dn4
        BYTE           N02     Cn4   v047
        BYTE           N02     As4   v070
        BYTE           N02     Gs4   v047
        BYTE           N02     Gn4   v070
        BYTE           N02     Fn4   v047
        BYTE   W06
        BYTE                   Dn4   v117
        BYTE           N02     As4
        BYTE           N02     Gn4
        BYTE   W06
        BYTE                   Dn4   v047
        BYTE           N02     As4
        BYTE           N02     Gn4
        BYTE   W06
        BYTE                   Dn4   v070
        BYTE           N02     As4
        BYTE           N02     Gn4
        BYTE   W06
        BYTE                   Bn4   v117
        BYTE           N02     Ds4
        BYTE           N02     Gs4
        BYTE   W06
        BYTE                   As4   v047
        BYTE           N02     Gn4
        BYTE           N02     Dn4
        BYTE   W06
        BYTE                   Gs4   v070
        BYTE           N02     Ds4
        BYTE           N02     Bn4
        BYTE   W06
        BYTE                   Ds4   v117
        BYTE           N02     Gs4
        BYTE           N02     Bn4
        BYTE   W06
        BYTE                   Fn4
        BYTE           N02     Gs4   v047
        BYTE           N02     As4   v117
        BYTE           N02     Ds4   v047
        BYTE           N02     Cs5   v117
        BYTE           N02     Bn4   v047
        BYTE   W06
        BYTE                   Ds4   v070
        BYTE           N02     Gs4
        BYTE           N02     Bn4
        BYTE   W06
        BYTE                   Dn4   v117
        BYTE           N02     As4   v070
        BYTE           N02     Fn4
        BYTE           N02     Gn4   v117
        BYTE           N02     Cs5   v070
        BYTE   W06
        BYTE                   Ds4   v047
        BYTE           N02     Gs4
        BYTE           N02     Bn4
        BYTE   W06
        BYTE                   Fn4
        BYTE           N02     Gs4   v117
        BYTE           N02     Cn4
        BYTE           N02     Gn4   v070
        BYTE           N02     Dn4
        BYTE           N02     As4
        BYTE           N02     Cs5   v047
        BYTE   W12
        BYTE   PEND
// 018   ----------------------------------------
Plantation_Crash_Zone66_Song_10_18:
        BYTE           N02     Cn4   v070
        BYTE           N02     Fn4
        BYTE           N02     Dn4   v047
        BYTE           N02     Gn4   v117
        BYTE           N02     As4   v047
        BYTE           N02     Gs4   v070
        BYTE   W12
        BYTE                   As4
        BYTE           N02     Fn4   v047
        BYTE           N02     Dn4   v070
        BYTE           N02     Gs4   v047
        BYTE           N02     Cn4
        BYTE           N02     Gn4   v070
        BYTE   W06
        BYTE                   Dn4   v117
        BYTE           N02     As4
        BYTE           N02     Gn4
        BYTE   W06
        BYTE                   As4   v047
        BYTE           N02     Gn4
        BYTE           N02     Dn4
        BYTE   W06
        BYTE                   Gn4   v070
        BYTE           N02     Dn4
        BYTE           N02     As4
        BYTE   W06
        BYTE                   Dn4   v117
        BYTE           N02     As4
        BYTE           N02     Gn4
        BYTE   W06
        BYTE                   Gn4   v047
        BYTE           N02     As4
        BYTE           N02     Dn4
        BYTE   W06
        BYTE                   Gn4   v070
        BYTE           N02     As4
        BYTE           N02     Dn4
        BYTE   W06
        BYTE                   As4   v117
        BYTE           N02     Gn4
        BYTE           N02     Dn4
        BYTE   W06
        BYTE                   Gs4
        BYTE           N02     Cn4
        BYTE           N02     As4   v047
        BYTE           N02     Dn4
        BYTE           N02     Gn4
        BYTE           N02     Fn4   v117
        BYTE   W06
        BYTE                   As4   v070
        BYTE           N02     Dn4
        BYTE           N02     Gn4
        BYTE   W06
        BYTE                   Dn4   v117
        BYTE           N02     Cn4   v070
        BYTE           N02     Gn4   v117
        BYTE           N02     Fn4   v070
        BYTE           N02     As4   v117
        BYTE           N02     Gs4   v070
        BYTE   W06
        BYTE                   As4   v047
        BYTE           N02     Dn4
        BYTE           N02     Gn4
        BYTE   W06
        BYTE                   Gn4   v070
        BYTE           N02     Dn4
        BYTE           N02     Fn4   v047
        BYTE           N02     As4   v070
        BYTE           N02     Gs4   v047
        BYTE           N02     Cn4
        BYTE   W12
        BYTE   PEND
// 019   ----------------------------------------
Plantation_Crash_Zone66_Song_10_19:
        BYTE           N02     Gs4   v070
        BYTE           N02     Cn4
        BYTE           N02     Dn4   v047
        BYTE           N02     Fn4   v070
        BYTE           N02     Gn4   v047
        BYTE           N02     As4   v117
        BYTE   W12
        BYTE                   Dn4   v070
        BYTE           N02     Gn4
        BYTE           N02     Fn4   v047
        BYTE           N02     As4   v070
        BYTE           N02     Gs4   v047
        BYTE           N02     Cn4
        BYTE   W06
        BYTE                   Dn4   v117
        BYTE           N02     As4
        BYTE           N02     Gn4
        BYTE   W06
        BYTE                   As4   v047
        BYTE           N02     Dn4
        BYTE           N02     Gn4
        BYTE   W06
        BYTE                   Dn4   v070
        BYTE           N02     As4
        BYTE           N02     Gn4
        BYTE   W06
        BYTE                   Gs4   v117
        BYTE           N02     Bn4
        BYTE           N02     Ds4
        BYTE   W06
        BYTE                   Gn4   v047
        BYTE           N02     Dn4
        BYTE           N02     As4
        BYTE   W06
        BYTE                   Gs4   v070
        BYTE           N02     Ds4
        BYTE           N02     Bn4
        BYTE   W06
        BYTE                   Ds4   v117
        BYTE           N02     Gs4
        BYTE           N02     Bn4
        BYTE   W06
        BYTE                   Bn4   v047
        BYTE           N02     Fn4   v117
        BYTE           N02     Gs4   v047
        BYTE           N02     Cs5   v117
        BYTE           N02     As4
        BYTE           N02     Ds4   v047
        BYTE   W06
        BYTE                   Bn4   v070
        BYTE           N02     Gs4
        BYTE           N02     Ds4
        BYTE   W06
        BYTE                   Fn4
        BYTE           N02     Dn4   v117
        BYTE           N02     Gn4
        BYTE           N02     Cs5   v070
        BYTE           N02     As4
        BYTE   W06
        BYTE                   Bn4   v047
        BYTE           N02     Gs4
        BYTE           N02     Ds4
        BYTE   W06
        BYTE                   Cn4   v117
        BYTE           N02     Dn4   v070
        BYTE           N02     Gn4
        BYTE           N02     Fn4   v117
        BYTE           N02     Gs4
        BYTE           N02     Cs5   v047
        BYTE           N02     As4   v070
        BYTE   W12
        BYTE   PEND
// 020   ----------------------------------------
Plantation_Crash_Zone66_Song_10_20:
        BYTE           N02     Cn4   v070
        BYTE           N02     Fn4
        BYTE           N02     Gs4
        BYTE           N02     Dn4   v047
        BYTE           N02     As4
        BYTE           N02     Gn4   v117
        BYTE   W12
        BYTE                   Gn4   v031
        BYTE           N02     Fn4
        BYTE           N02     Gs4
        BYTE           N02     Dn4
        BYTE           N02     As4
        BYTE           N02     Cn4
        BYTE   W12
        BYTE                   Gn4   v021
        BYTE           N02     As4
        BYTE           N02     Dn4
        BYTE   W12
        BYTE                   Dn4   v011
        BYTE           N02     As4
        BYTE           N02     Gn4
        BYTE   W12
        BYTE                   Gn4   v001
        BYTE           N02     As4
        BYTE           N02     Dn4
        BYTE   W48
        BYTE   PEND
// 021   ----------------------------------------
        BYTE   W96
// 022   ----------------------------------------
        BYTE   W96
// 023   ----------------------------------------
Plantation_Crash_Zone66_Song_10_23:
        BYTE   W60
        BYTE           N02     An3   v117
        BYTE           N02     Fn4
        BYTE           N02     Dn4
        BYTE   W12
        BYTE                   Dn4
        BYTE           N02     An3   v070
        BYTE           N02     Fn4   v117
        BYTE   W06
        BYTE                   Gs4
        BYTE           N02     Cn4
        BYTE           N02     Fn4
        BYTE   W06
        BYTE                   Fn4   v047
        BYTE           N02     Dn4   v070
        BYTE           N02     An3   v047
        BYTE   W06
        BYTE                   Cn4   v070
        BYTE           N02     Gs4
        BYTE           N02     Fn4
        BYTE   W06
        BYTE   PEND
// 024   ----------------------------------------
Plantation_Crash_Zone66_Song_10_24:
        BYTE           N02     An3   v047
        BYTE           N02     An4   v117
        BYTE           N02     Fn4   v047
        BYTE           N02     Dn4
        BYTE           N02     Cs4   v117
        BYTE           N02     Fs4
        BYTE   W06
        BYTE                   Gs4   v047
        BYTE           N02     Fn4
        BYTE           N02     Cn4
        BYTE   W06
        BYTE                   An4   v081
        BYTE           N02     Fs4
        BYTE           N02     Cs4   v070
        BYTE   W12
        BYTE                   Cs4   v047
        BYTE           N02     Fs4
        BYTE           N02     An4   v034
        BYTE   W12
        BYTE                   An4   v050
        BYTE           N02     Cs4
        BYTE           N02     Fs4   v019
        BYTE   W12
        BYTE                   Cs4   v034
        BYTE           N02     Fs4   v003
        BYTE           N02     An4
        BYTE   W12
        BYTE                   Cs4   v018
        BYTE           N02     An4   v001
        BYTE           N02     Fs4   v018
        BYTE   W12
        BYTE                   Cs4   v003
        BYTE           N02     An4   v001
        BYTE           N02     Fs4   v003
        BYTE   W12
        BYTE                   Cs4   v001
        BYTE           N02     An4
        BYTE           N02     Fs4
        BYTE   W12
        BYTE   PEND
// 025   ----------------------------------------
Plantation_Crash_Zone66_Song_10_25:
        BYTE           N02     Cs4   v001
        BYTE           N02     Fs4
        BYTE           N02     An4
        BYTE   W96
        BYTE   PEND
// 026   ----------------------------------------
        BYTE   W96
// 027   ----------------------------------------
        BYTE   W96
// 028   ----------------------------------------
        BYTE   W96
// 029   ----------------------------------------
        BYTE   W96
// 030   ----------------------------------------
        BYTE   W96
// 031   ----------------------------------------
        BYTE   W96
// 032   ----------------------------------------
        BYTE   W96
// 033   ----------------------------------------
        BYTE   W96
// 034   ----------------------------------------
        BYTE   W96
// 035   ----------------------------------------
        BYTE   W96
// 036   ----------------------------------------
        BYTE   W96
// 037   ----------------------------------------
        BYTE   W96
// 038   ----------------------------------------
        BYTE   W96
// 039   ----------------------------------------
        BYTE   W96
// 040   ----------------------------------------
        BYTE   W96
// 041   ----------------------------------------
        BYTE   W96
// 042   ----------------------------------------
        BYTE   W96
// 043   ----------------------------------------
        BYTE   W96
// 044   ----------------------------------------
        BYTE   W96
// 045   ----------------------------------------
        BYTE   W96
// 046   ----------------------------------------
        BYTE   W96
// 047   ----------------------------------------
        BYTE   W96
// 048   ----------------------------------------
        BYTE   W96
// 049   ----------------------------------------
        BYTE   W72
// 050   ----------------------------------------
Plantation_Crash_Zone66_Song_10_LOOP:
        BYTE   W96
// 051   ----------------------------------------
        BYTE   W96
// 052   ----------------------------------------
        BYTE   W96
// 053   ----------------------------------------
        BYTE   W96
// 054   ----------------------------------------
        BYTE   PATT
         POIN2  Plantation_Crash_Zone66_Song_10_12
// 055   ----------------------------------------
        BYTE   PATT
         POIN2  Plantation_Crash_Zone66_Song_10_13
// 056   ----------------------------------------
        BYTE   PATT
         POIN2  Plantation_Crash_Zone66_Song_10_14
// 057   ----------------------------------------
        BYTE   PATT
         POIN2  Plantation_Crash_Zone66_Song_10_15
// 058   ----------------------------------------
        BYTE   PATT
         POIN2  Plantation_Crash_Zone66_Song_10_16
// 059   ----------------------------------------
        BYTE   PATT
         POIN2  Plantation_Crash_Zone66_Song_10_17
// 060   ----------------------------------------
        BYTE   PATT
         POIN2  Plantation_Crash_Zone66_Song_10_18
// 061   ----------------------------------------
        BYTE   PATT
         POIN2  Plantation_Crash_Zone66_Song_10_19
// 062   ----------------------------------------
        BYTE   PATT
         POIN2  Plantation_Crash_Zone66_Song_10_20
// 063   ----------------------------------------
        BYTE   W96
// 064   ----------------------------------------
        BYTE   W96
// 065   ----------------------------------------
        BYTE   PATT
         POIN2  Plantation_Crash_Zone66_Song_10_23
// 066   ----------------------------------------
        BYTE   PATT
         POIN2  Plantation_Crash_Zone66_Song_10_24
// 067   ----------------------------------------
        BYTE   PATT
         POIN2  Plantation_Crash_Zone66_Song_10_25
// 068   ----------------------------------------
        BYTE   W96
// 069   ----------------------------------------
        BYTE   W96
// 070   ----------------------------------------
        BYTE   W96
// 071   ----------------------------------------
        BYTE   W96
// 072   ----------------------------------------
        BYTE   W96
// 073   ----------------------------------------
        BYTE   W96
// 074   ----------------------------------------
        BYTE   W96
// 075   ----------------------------------------
        BYTE   W96
// 076   ----------------------------------------
        BYTE   W96
// 077   ----------------------------------------
        BYTE   W96
// 078   ----------------------------------------
        BYTE   W96
// 079   ----------------------------------------
        BYTE   W96
// 080   ----------------------------------------
        BYTE   W96
// 081   ----------------------------------------
        BYTE   W96
// 082   ----------------------------------------
        BYTE   W96
// 083   ----------------------------------------
        BYTE   W96
// 084   ----------------------------------------
        BYTE   W96
// 085   ----------------------------------------
        BYTE   W96
// 086   ----------------------------------------
        BYTE   W96
// 087   ----------------------------------------
        BYTE   W96
// 088   ----------------------------------------
        BYTE   W96
// 089   ----------------------------------------
        BYTE   W96
// 090   ----------------------------------------
        BYTE   W96
// 091   ----------------------------------------
        BYTE   W72
// 092   ----------------------------------------
        BYTE   GoTo
         POIN2  Plantation_Crash_Zone66_Song_10_LOOP
        BYTE   FINE

//***************** Track 11 (Midi-Chn.12) *****************//

Plantation_Crash_Zone66_Song_11:
        BYTE   KEYSH   Plantation_Crash_Zone66_Song_key+0
// 000   ----------------------------------------
        BYTE           VOL     84
        BYTE           PAN     c_v-54
        BYTE   W96
// 001   ----------------------------------------
        BYTE   W96
// 002   ----------------------------------------
        BYTE   W96
// 003   ----------------------------------------
        BYTE   W96
// 004   ----------------------------------------
        BYTE   W96
// 005   ----------------------------------------
        BYTE   W96
// 006   ----------------------------------------
        BYTE   W96
// 007   ----------------------------------------
        BYTE   W96
// 008   ----------------------------------------
        BYTE           VOICE   79
        BYTE   W96
// 009   ----------------------------------------
        BYTE   W96
// 010   ----------------------------------------
        BYTE   W96
// 011   ----------------------------------------
        BYTE   W96
// 012   ----------------------------------------
        BYTE   W96
// 013   ----------------------------------------
        BYTE   W96
// 014   ----------------------------------------
        BYTE   W96
// 015   ----------------------------------------
        BYTE   W96
// 016   ----------------------------------------
Plantation_Crash_Zone66_Song_11_16:
        BYTE   W02
        BYTE           N01     Gn1   v127
        BYTE   W06
        BYTE                   Gn2
        BYTE   W06
        BYTE                   Gn3
        BYTE   W06
        BYTE                   Gn4
        BYTE   W06
        BYTE                   Gn5
        BYTE   W06
        BYTE                   Gn4
        BYTE   W06
        BYTE                   Gn3
        BYTE   W06
        BYTE                   Gn2
        BYTE   W06
        BYTE                   Gn1
        BYTE   W06
        BYTE                   Gn2
        BYTE   W06
        BYTE                   Gn3
        BYTE   W06
        BYTE                   Gn4
        BYTE   W06
        BYTE                   Gn5
        BYTE   W06
        BYTE                   Gn4
        BYTE   W06
        BYTE                   Gn3
        BYTE   W06
        BYTE                   Gn2
        BYTE   W04
        BYTE   PEND
// 017   ----------------------------------------
        BYTE   PATT
         POIN2  Plantation_Crash_Zone66_Song_11_16
// 018   ----------------------------------------
        BYTE   PATT
         POIN2  Plantation_Crash_Zone66_Song_11_16
// 019   ----------------------------------------
        BYTE   PATT
         POIN2  Plantation_Crash_Zone66_Song_11_16
// 020   ----------------------------------------
Plantation_Crash_Zone66_Song_11_20:
        BYTE   W02
        BYTE           N01     Gn1   v127
        BYTE   W06
        BYTE                   Gn2
        BYTE   W06
        BYTE                   Gn3
        BYTE   W06
        BYTE                   Gn4
        BYTE   W06
        BYTE                   Gn5
        BYTE   W06
        BYTE                   Gn4
        BYTE   W06
        BYTE                   Gn3
        BYTE   W06
        BYTE                   Gn2
        BYTE   W06
        BYTE                   Gn1
        BYTE   W06
        BYTE                   Gn2
        BYTE   W06
        BYTE                   Gn3
        BYTE   W06
        BYTE                   Gn4
        BYTE   W06
        BYTE                   As4
        BYTE   W06
        BYTE                   Cn5
        BYTE   W06
        BYTE                   Dn5
        BYTE   W06
        BYTE                   Fn5
        BYTE   W04
        BYTE   PEND
// 021   ----------------------------------------
Plantation_Crash_Zone66_Song_11_21:
        BYTE   W02
        BYTE           N01     Gn5   v127
        BYTE   W06
        BYTE                   Gn4
        BYTE   W06
        BYTE                   Gn3
        BYTE   W06
        BYTE                   Gn2
        BYTE   W06
        BYTE                   Gn5   v090
        BYTE   W06
        BYTE                   Gn4
        BYTE   W06
        BYTE                   Gn3
        BYTE   W06
        BYTE                   Gn2
        BYTE   W06
        BYTE                   Gn5   v060
        BYTE   W06
        BYTE                   Gn4
        BYTE   W06
        BYTE                   Gn3
        BYTE   W06
        BYTE                   Gn2
        BYTE   W06
        BYTE                   Gn5   v038
        BYTE   W06
        BYTE                   Gn4
        BYTE   W06
        BYTE                   Gn3
        BYTE   W06
        BYTE                   Gn2
        BYTE   W04
        BYTE   PEND
// 022   ----------------------------------------
Plantation_Crash_Zone66_Song_11_22:
        BYTE   W02
        BYTE           N01     Gn1   v038
        BYTE   W06
        BYTE                   Gn2   v127
        BYTE   W06
        BYTE                   Gn3
        BYTE   W06
        BYTE                   Gn4
        BYTE   W06
        BYTE                   Gn5
        BYTE   W06
        BYTE                   Gn4
        BYTE   W06
        BYTE                   Gn3
        BYTE   W06
        BYTE                   Gn2
        BYTE   W06
        BYTE                   Gn1
        BYTE   W06
        BYTE                   Gn2
        BYTE   W06
        BYTE                   Gn3
        BYTE   W06
        BYTE                   Gn4
        BYTE   W06
        BYTE                   As4
        BYTE   W06
        BYTE                   Cn5
        BYTE   W06
        BYTE                   Dn5
        BYTE   W06
        BYTE                   Fn5
        BYTE   W04
        BYTE   PEND
// 023   ----------------------------------------
        BYTE   PATT
         POIN2  Plantation_Crash_Zone66_Song_11_21
// 024   ----------------------------------------
Plantation_Crash_Zone66_Song_11_24:
        BYTE           VOICE   80
        BYTE   W02
        BYTE           N02     Fs5   v127
        BYTE   W06
        BYTE                   Fs4
        BYTE   W06
        BYTE                   An4
        BYTE   W06
        BYTE                   Bn4
        BYTE   W06
        BYTE                   Cs5
        BYTE   W06
        BYTE                   En5
        BYTE   W06
        BYTE                   Fs5
        BYTE   W06
        BYTE                   An5
        BYTE   W06
        BYTE                   Fs5
        BYTE   W06
        BYTE                   An5   v090
        BYTE   W06
        BYTE                   Fs5
        BYTE   W06
        BYTE                   An5   v060
        BYTE   W06
        BYTE                   Fs5
        BYTE   W06
        BYTE                   An5   v038
        BYTE   W06
        BYTE                   Fs5
        BYTE   W10
        BYTE   PEND
// 025   ----------------------------------------
Plantation_Crash_Zone66_Song_11_25:
        BYTE   W02
        BYTE           N02     Fs5   v127
        BYTE   W06
        BYTE                   Fs4
        BYTE   W06
        BYTE                   An4
        BYTE   W06
        BYTE                   Bn4
        BYTE   W06
        BYTE                   Cs5
        BYTE   W06
        BYTE                   En5
        BYTE   W06
        BYTE                   Fs5
        BYTE   W06
        BYTE                   An5
        BYTE   W06
        BYTE                   Bn5   v090
        BYTE   W06
        BYTE                   An5
        BYTE   W06
        BYTE                   Bn5
        BYTE   W06
        BYTE                   An5   v060
        BYTE   W06
        BYTE                   Bn5
        BYTE   W06
        BYTE                   An5   v038
        BYTE   W06
        BYTE                   Bn5
        BYTE   W10
        BYTE   PEND
// 026   ----------------------------------------
Plantation_Crash_Zone66_Song_11_26:
        BYTE   W02
        BYTE           N02     Fs5   v127
        BYTE   W06
        BYTE                   Fs4
        BYTE   W06
        BYTE                   An4
        BYTE   W06
        BYTE                   Bn4
        BYTE   W06
        BYTE                   Cs5
        BYTE   W06
        BYTE                   En5
        BYTE   W06
        BYTE                   Fs5
        BYTE   W06
        BYTE                   An5
        BYTE   W06
        BYTE                   Fs5
        BYTE   W06
        BYTE                   An5   v090
        BYTE   W06
        BYTE                   Fs5
        BYTE   W06
        BYTE                   An5   v060
        BYTE   W06
        BYTE                   Fs5
        BYTE   W06
        BYTE                   An5   v038
        BYTE   W06
        BYTE                   Fs5
        BYTE   W10
        BYTE   PEND
// 027   ----------------------------------------
        BYTE   W96
// 028   ----------------------------------------
        BYTE   W96
// 029   ----------------------------------------
        BYTE   W96
// 030   ----------------------------------------
        BYTE   W96
// 031   ----------------------------------------
        BYTE   W96
// 032   ----------------------------------------
        BYTE   W96
// 033   ----------------------------------------
        BYTE   W96
// 034   ----------------------------------------
        BYTE   W96
// 035   ----------------------------------------
        BYTE   W96
// 036   ----------------------------------------
        BYTE   W96
// 037   ----------------------------------------
        BYTE   W96
// 038   ----------------------------------------
        BYTE   W96
// 039   ----------------------------------------
        BYTE   W96
// 040   ----------------------------------------
        BYTE   W96
// 041   ----------------------------------------
        BYTE   W96
// 042   ----------------------------------------
        BYTE   W96
// 043   ----------------------------------------
        BYTE   W96
// 044   ----------------------------------------
        BYTE   W96
// 045   ----------------------------------------
        BYTE   W96
// 046   ----------------------------------------
        BYTE   W96
// 047   ----------------------------------------
        BYTE   W96
// 048   ----------------------------------------
        BYTE   W96
// 049   ----------------------------------------
        BYTE   W72
// 050   ----------------------------------------
Plantation_Crash_Zone66_Song_11_LOOP:
        BYTE           VOICE   79
        BYTE   W96
// 051   ----------------------------------------
        BYTE   W96
// 052   ----------------------------------------
        BYTE   W96
// 053   ----------------------------------------
        BYTE   W96
// 054   ----------------------------------------
        BYTE   W96
// 055   ----------------------------------------
        BYTE   W96
// 056   ----------------------------------------
        BYTE   W96
// 057   ----------------------------------------
        BYTE   W96
// 058   ----------------------------------------
        BYTE   PATT
         POIN2  Plantation_Crash_Zone66_Song_11_16
// 059   ----------------------------------------
        BYTE   PATT
         POIN2  Plantation_Crash_Zone66_Song_11_16
// 060   ----------------------------------------
        BYTE   PATT
         POIN2  Plantation_Crash_Zone66_Song_11_16
// 061   ----------------------------------------
        BYTE   PATT
         POIN2  Plantation_Crash_Zone66_Song_11_16
// 062   ----------------------------------------
        BYTE   PATT
         POIN2  Plantation_Crash_Zone66_Song_11_20
// 063   ----------------------------------------
        BYTE   PATT
         POIN2  Plantation_Crash_Zone66_Song_11_21
// 064   ----------------------------------------
        BYTE   PATT
         POIN2  Plantation_Crash_Zone66_Song_11_22
// 065   ----------------------------------------
        BYTE   PATT
         POIN2  Plantation_Crash_Zone66_Song_11_21
// 066   ----------------------------------------
        BYTE   PATT
         POIN2  Plantation_Crash_Zone66_Song_11_24
// 067   ----------------------------------------
        BYTE   PATT
         POIN2  Plantation_Crash_Zone66_Song_11_25
// 068   ----------------------------------------
        BYTE   PATT
         POIN2  Plantation_Crash_Zone66_Song_11_26
// 069   ----------------------------------------
        BYTE   W96
// 070   ----------------------------------------
        BYTE   W96
// 071   ----------------------------------------
        BYTE   W96
// 072   ----------------------------------------
        BYTE   W96
// 073   ----------------------------------------
        BYTE   W96
// 074   ----------------------------------------
        BYTE   W96
// 075   ----------------------------------------
        BYTE   W96
// 076   ----------------------------------------
        BYTE   W96
// 077   ----------------------------------------
        BYTE   W96
// 078   ----------------------------------------
        BYTE   W96
// 079   ----------------------------------------
        BYTE   W96
// 080   ----------------------------------------
        BYTE   W96
// 081   ----------------------------------------
        BYTE   W96
// 082   ----------------------------------------
        BYTE   W96
// 083   ----------------------------------------
        BYTE   W96
// 084   ----------------------------------------
        BYTE   W96
// 085   ----------------------------------------
        BYTE   W96
// 086   ----------------------------------------
        BYTE   W96
// 087   ----------------------------------------
        BYTE   W96
// 088   ----------------------------------------
        BYTE   W96
// 089   ----------------------------------------
        BYTE   W96
// 090   ----------------------------------------
        BYTE   W96
// 091   ----------------------------------------
        BYTE   W72
// 092   ----------------------------------------
        BYTE           VOICE   79
        BYTE   GoTo
         POIN2  Plantation_Crash_Zone66_Song_11_LOOP
        BYTE   FINE

//***************** Track 12 (Midi-Chn.13) *****************//

Plantation_Crash_Zone66_Song_12:
        BYTE   KEYSH   Plantation_Crash_Zone66_Song_key+0
// 000   ----------------------------------------
        BYTE           VOICE   87
        BYTE           VOL     74
        BYTE           PAN     c_v-4
        BYTE   W96
// 001   ----------------------------------------
        BYTE   W96
// 002   ----------------------------------------
        BYTE   W96
// 003   ----------------------------------------
        BYTE   W96
// 004   ----------------------------------------
        BYTE   W96
// 005   ----------------------------------------
        BYTE   W96
// 006   ----------------------------------------
        BYTE   W96
// 007   ----------------------------------------
        BYTE   W96
// 008   ----------------------------------------
        BYTE   W96
// 009   ----------------------------------------
        BYTE   W96
// 010   ----------------------------------------
        BYTE   W96
// 011   ----------------------------------------
        BYTE   W96
// 012   ----------------------------------------
        BYTE   W96
// 013   ----------------------------------------
        BYTE   W96
// 014   ----------------------------------------
        BYTE   W96
// 015   ----------------------------------------
        BYTE   W96
// 016   ----------------------------------------
        BYTE   W96
// 017   ----------------------------------------
        BYTE   W96
// 018   ----------------------------------------
        BYTE   W96
// 019   ----------------------------------------
        BYTE   W96
// 020   ----------------------------------------
        BYTE   W96
// 021   ----------------------------------------
        BYTE   W96
// 022   ----------------------------------------
        BYTE   W96
// 023   ----------------------------------------
        BYTE   W96
// 024   ----------------------------------------
        BYTE   W96
// 025   ----------------------------------------
        BYTE   W96
// 026   ----------------------------------------
        BYTE   W96
// 027   ----------------------------------------
Plantation_Crash_Zone66_Song_12_27:
        BYTE           N23     Fs3   v110
        BYTE   W12
        BYTE                   An3
        BYTE   W12
        BYTE                   Bn3
        BYTE   W12
        BYTE                   Cs4
        BYTE   W12
        BYTE                   En4
        BYTE   W12
        BYTE                   Fs4
        BYTE   W12
        BYTE                   An4
        BYTE   W12
        BYTE                   Bn4
        BYTE   W12
        BYTE   PEND
// 028   ----------------------------------------
Plantation_Crash_Zone66_Song_12_28:
        BYTE           N44     Cs5   v110   gtp3
        BYTE   W24
        BYTE           N32     Cs4   v110   gtp3
        BYTE   W36
        BYTE           N11     Fs4
        BYTE   W12
        BYTE                   Bn4
        BYTE   W12
        BYTE           N80     Cs5   v110   gtp3
        BYTE   W12
        BYTE   PEND
// 029   ----------------------------------------
Plantation_Crash_Zone66_Song_12_29:
        BYTE   W72
        BYTE           N23     Bn4   v110
        BYTE   W24
        BYTE   PEND
// 030   ----------------------------------------
Plantation_Crash_Zone66_Song_12_30:
        BYTE           N44     Cs5   v110   gtp3
        BYTE   W24
        BYTE           N32     Cs4   v110   gtp3
        BYTE   W36
        BYTE           N11     Fs4
        BYTE   W12
        BYTE           N23     Cs5
        BYTE   W24
        BYTE   PEND
// 031   ----------------------------------------
Plantation_Crash_Zone66_Song_12_31:
        BYTE           N68     Bn4   v110   gtp3
        BYTE   W72
        BYTE           N23     An4
        BYTE   W24
        BYTE   PEND
// 032   ----------------------------------------
        BYTE   PATT
         POIN2  Plantation_Crash_Zone66_Song_12_28
// 033   ----------------------------------------
        BYTE   PATT
         POIN2  Plantation_Crash_Zone66_Song_12_29
// 034   ----------------------------------------
        BYTE   PATT
         POIN2  Plantation_Crash_Zone66_Song_12_30
// 035   ----------------------------------------
        BYTE   PATT
         POIN2  Plantation_Crash_Zone66_Song_12_31
// 036   ----------------------------------------
Plantation_Crash_Zone66_Song_12_36:
        BYTE           N11     Cs5   v110
        BYTE   W12
        BYTE                   Gs4
        BYTE   W12
        BYTE                   Ds5
        BYTE   W12
        BYTE                   Cs5
        BYTE   W12
        BYTE                   En5
        BYTE   W12
        BYTE                   Ds5
        BYTE   W06
        BYTE                   En5
        BYTE   W12
        BYTE                   En5
        BYTE   W06
        BYTE                   Fs5
        BYTE   W12
        BYTE   PEND
// 037   ----------------------------------------
Plantation_Crash_Zone66_Song_12_37:
        BYTE           N23     Ds5   v110
        BYTE   W24
        BYTE                   Bn4
        BYTE   W24
        BYTE                   Gs4
        BYTE   W24
        BYTE                   Bn4
        BYTE   W24
        BYTE   PEND
// 038   ----------------------------------------
        BYTE   PATT
         POIN2  Plantation_Crash_Zone66_Song_12_36
// 039   ----------------------------------------
        BYTE   PATT
         POIN2  Plantation_Crash_Zone66_Song_12_37
// 040   ----------------------------------------
        BYTE   PATT
         POIN2  Plantation_Crash_Zone66_Song_12_36
// 041   ----------------------------------------
        BYTE   PATT
         POIN2  Plantation_Crash_Zone66_Song_12_37
// 042   ----------------------------------------
        BYTE   PATT
         POIN2  Plantation_Crash_Zone66_Song_12_36
// 043   ----------------------------------------
        BYTE   PATT
         POIN2  Plantation_Crash_Zone66_Song_12_37
// 044   ----------------------------------------
        BYTE           N92     Cs5   v110   gtp3
        BYTE   W96
// 045   ----------------------------------------
        BYTE   W96
// 046   ----------------------------------------
        BYTE   W96
// 047   ----------------------------------------
        BYTE   W96
// 048   ----------------------------------------
Plantation_Crash_Zone66_Song_12_48:
        BYTE           N32     Cs5   v110   gtp3
        BYTE   W36
        BYTE           N56     Cs5   v060   gtp3
        BYTE   W60
        BYTE   PEND
// 049   ----------------------------------------
        BYTE   W72
// 050   ----------------------------------------
Plantation_Crash_Zone66_Song_12_LOOP:
        BYTE   W96
// 051   ----------------------------------------
        BYTE   W96
// 052   ----------------------------------------
        BYTE   W96
// 053   ----------------------------------------
        BYTE   W96
// 054   ----------------------------------------
        BYTE   W96
// 055   ----------------------------------------
        BYTE   W96
// 056   ----------------------------------------
        BYTE   W96
// 057   ----------------------------------------
        BYTE   W96
// 058   ----------------------------------------
        BYTE   W96
// 059   ----------------------------------------
        BYTE   W96
// 060   ----------------------------------------
        BYTE   W96
// 061   ----------------------------------------
        BYTE   W96
// 062   ----------------------------------------
        BYTE   W96
// 063   ----------------------------------------
        BYTE   W96
// 064   ----------------------------------------
        BYTE   W96
// 065   ----------------------------------------
        BYTE   W96
// 066   ----------------------------------------
        BYTE   W96
// 067   ----------------------------------------
        BYTE   W96
// 068   ----------------------------------------
        BYTE   W96
// 069   ----------------------------------------
        BYTE   PATT
         POIN2  Plantation_Crash_Zone66_Song_12_27
// 070   ----------------------------------------
        BYTE   PATT
         POIN2  Plantation_Crash_Zone66_Song_12_28
// 071   ----------------------------------------
        BYTE   PATT
         POIN2  Plantation_Crash_Zone66_Song_12_29
// 072   ----------------------------------------
        BYTE   PATT
         POIN2  Plantation_Crash_Zone66_Song_12_30
// 073   ----------------------------------------
        BYTE   PATT
         POIN2  Plantation_Crash_Zone66_Song_12_31
// 074   ----------------------------------------
        BYTE   PATT
         POIN2  Plantation_Crash_Zone66_Song_12_28
// 075   ----------------------------------------
        BYTE   PATT
         POIN2  Plantation_Crash_Zone66_Song_12_29
// 076   ----------------------------------------
        BYTE   PATT
         POIN2  Plantation_Crash_Zone66_Song_12_30
// 077   ----------------------------------------
        BYTE   PATT
         POIN2  Plantation_Crash_Zone66_Song_12_31
// 078   ----------------------------------------
        BYTE   PATT
         POIN2  Plantation_Crash_Zone66_Song_12_36
// 079   ----------------------------------------
        BYTE   PATT
         POIN2  Plantation_Crash_Zone66_Song_12_37
// 080   ----------------------------------------
        BYTE   PATT
         POIN2  Plantation_Crash_Zone66_Song_12_36
// 081   ----------------------------------------
        BYTE   PATT
         POIN2  Plantation_Crash_Zone66_Song_12_37
// 082   ----------------------------------------
        BYTE   PATT
         POIN2  Plantation_Crash_Zone66_Song_12_36
// 083   ----------------------------------------
        BYTE   PATT
         POIN2  Plantation_Crash_Zone66_Song_12_37
// 084   ----------------------------------------
        BYTE   PATT
         POIN2  Plantation_Crash_Zone66_Song_12_36
// 085   ----------------------------------------
        BYTE   PATT
         POIN2  Plantation_Crash_Zone66_Song_12_37
// 086   ----------------------------------------
        BYTE           N92     Cs5   v110   gtp3
        BYTE   W96
// 087   ----------------------------------------
        BYTE   W96
// 088   ----------------------------------------
        BYTE   W96
// 089   ----------------------------------------
        BYTE   W96
// 090   ----------------------------------------
        BYTE   PATT
         POIN2  Plantation_Crash_Zone66_Song_12_48
// 091   ----------------------------------------
        BYTE   W72
// 092   ----------------------------------------
        BYTE   GoTo
         POIN2  Plantation_Crash_Zone66_Song_12_LOOP
        BYTE   FINE

//***************** Track 13 (Midi-Chn.14) *****************//

Plantation_Crash_Zone66_Song_13:
        BYTE   KEYSH   Plantation_Crash_Zone66_Song_key+0
// 000   ----------------------------------------
        BYTE           VOICE   50
        BYTE           VOL     66
        BYTE           N92     Dn4   v106   gtp3
        BYTE                   An3   v110
        BYTE           N92     Gn3   v106   gtp3
        BYTE                   As3   v110
        BYTE   W92
        BYTE   W03
        BYTE           N96     Gn3
        BYTE   W01
// 001   ----------------------------------------
Plantation_Crash_Zone66_Song_13_1:
        BYTE           N92     Dn4   v110   gtp3
        BYTE                   Fn3
        BYTE           N92     Cn4   v106   gtp3
        BYTE   W96
        BYTE   PEND
// 002   ----------------------------------------
        BYTE                   Gn3
        BYTE           N92     As3   v110   gtp3
        BYTE                   Dn4   v106
        BYTE           N92     An3   v110   gtp3
        BYTE   W92
        BYTE   W03
        BYTE           N96     Gn3
        BYTE   W01
// 003   ----------------------------------------
        BYTE   PATT
         POIN2  Plantation_Crash_Zone66_Song_13_1
// 004   ----------------------------------------
        BYTE           N92     An3   v110   gtp3
        BYTE                   As3
        BYTE           N92     Dn4   v106   gtp3
        BYTE                   Gn3
        BYTE   W92
        BYTE   W03
        BYTE           N96     Gn3   v110
        BYTE   W01
// 005   ----------------------------------------
        BYTE           N92     Cn4   v106   gtp3
        BYTE                   Fn3   v110
        BYTE           N92     Dn4   v110   gtp3
        BYTE   W96
// 006   ----------------------------------------
        BYTE                   Gn3   v106
        BYTE           N92     Dn4   v106   gtp3
        BYTE                   An3   v110
        BYTE           N92     As3   v110   gtp3
        BYTE   W92
        BYTE   W03
        BYTE           N96     Gn3
        BYTE   W01
// 007   ----------------------------------------
        BYTE           N92     Fn3   v110   gtp3
        BYTE                   Dn4
        BYTE           N92     Cn4   v106   gtp3
        BYTE   W96
// 008   ----------------------------------------
        BYTE           TIE     Dn4
        BYTE           TIE     As3   v110
        BYTE           TIE     An3
        BYTE           TIE     Gn3   v106
        BYTE   W96
// 009   ----------------------------------------
        BYTE   W44
        BYTE   W03
        BYTE           EOT     Dn4
        BYTE                   As3
        BYTE                   An3
        BYTE                   Gn3
        BYTE   W01
        BYTE           TIE     Gn3   v059
        BYTE           TIE     An3   v063
        BYTE           TIE     As3
        BYTE           TIE     Dn4   v059
        BYTE   W48
// 010   ----------------------------------------
        BYTE   W92
        BYTE   W03
        BYTE           EOT     Gn3
        BYTE                   An3
        BYTE                   As3
        BYTE                   Dn4
        BYTE   W01
// 011   ----------------------------------------
        BYTE   W96
// 012   ----------------------------------------
Plantation_Crash_Zone66_Song_13_12:
        BYTE           N92     As3   v110   gtp3
        BYTE                   Gn3
        BYTE           N92     Dn4   v110   gtp3
        BYTE   W96
        BYTE   PEND
// 013   ----------------------------------------
Plantation_Crash_Zone66_Song_13_13:
        BYTE           N92     Dn3   v110   gtp3
        BYTE                   As2
        BYTE           N92     Gn2   v110   gtp3
        BYTE   W96
        BYTE   PEND
// 014   ----------------------------------------
Plantation_Crash_Zone66_Song_13_14:
        BYTE           N92     As3   v110   gtp3
        BYTE                   Dn4
        BYTE           N92     Gn3   v110   gtp3
        BYTE   W96
        BYTE   PEND
// 015   ----------------------------------------
        BYTE                   Dn3
        BYTE           N92     Gn2   v110   gtp3
        BYTE                   As2
        BYTE   W96
// 016   ----------------------------------------
Plantation_Crash_Zone66_Song_13_16:
        BYTE           N92     Gn3   v110   gtp3
        BYTE                   Dn4
        BYTE           N92     As3   v110   gtp3
        BYTE   W96
        BYTE   PEND
// 017   ----------------------------------------
        BYTE   PATT
         POIN2  Plantation_Crash_Zone66_Song_13_13
// 018   ----------------------------------------
        BYTE   PATT
         POIN2  Plantation_Crash_Zone66_Song_13_16
// 019   ----------------------------------------
Plantation_Crash_Zone66_Song_13_19:
        BYTE           N92     As2   v110   gtp3
        BYTE                   Gn2
        BYTE           N92     Dn3   v110   gtp3
        BYTE   W96
        BYTE   PEND
// 020   ----------------------------------------
        BYTE   W96
// 021   ----------------------------------------
        BYTE   W96
// 022   ----------------------------------------
        BYTE   W96
// 023   ----------------------------------------
        BYTE   W96
// 024   ----------------------------------------
        BYTE   W96
// 025   ----------------------------------------
        BYTE   W96
// 026   ----------------------------------------
        BYTE   W96
// 027   ----------------------------------------
        BYTE   W72
        BYTE           N23     Cs4
        BYTE           N23     Gs3
        BYTE           N23     An3
        BYTE   W24
// 028   ----------------------------------------
Plantation_Crash_Zone66_Song_13_28:
        BYTE           N92     An3   v110   gtp3
        BYTE                   Cs4
        BYTE           N92     Fs3   v110   gtp3
        BYTE   W96
        BYTE   PEND
// 029   ----------------------------------------
Plantation_Crash_Zone66_Song_13_29:
        BYTE           N92     An2   v110   gtp3
        BYTE                   Cs3
        BYTE           N92     Fs2   v110   gtp3
        BYTE   W96
        BYTE   PEND
// 030   ----------------------------------------
        BYTE   PATT
         POIN2  Plantation_Crash_Zone66_Song_13_28
// 031   ----------------------------------------
Plantation_Crash_Zone66_Song_13_31:
        BYTE           N92     Dn3   v110   gtp3
        BYTE                   Fs3
        BYTE           N92     Bn2   v110   gtp3
        BYTE   W96
        BYTE   PEND
// 032   ----------------------------------------
Plantation_Crash_Zone66_Song_13_32:
        BYTE           N92     Fs3   v110   gtp3
        BYTE                   An3
        BYTE           N92     Cs4   v110   gtp3
        BYTE   W96
        BYTE   PEND
// 033   ----------------------------------------
        BYTE   PATT
         POIN2  Plantation_Crash_Zone66_Song_13_29
// 034   ----------------------------------------
Plantation_Crash_Zone66_Song_13_34:
        BYTE           N92     An3   v110   gtp3
        BYTE                   Fs3
        BYTE           N92     Cs4   v110   gtp3
        BYTE   W96
        BYTE   PEND
// 035   ----------------------------------------
        BYTE                   Fs3
        BYTE           N92     Bn2   v110   gtp3
        BYTE                   Dn3
        BYTE   W96
// 036   ----------------------------------------
        BYTE           N32     Cs3   v110   gtp3
        BYTE                   En3
        BYTE           N32     Gs3   v110   gtp3
        BYTE   W36
        BYTE                   Cs3
        BYTE           N32     Gs3   v110   gtp3
        BYTE                   En3
        BYTE   W36
        BYTE           N23     Gs3
        BYTE           N23     En3
        BYTE           N23     Cs3
        BYTE   W24
// 037   ----------------------------------------
Plantation_Crash_Zone66_Song_13_37:
        BYTE           N68     Ds3   v110   gtp3
        BYTE                   Fs3
        BYTE           N68     Bn2   v110   gtp3
        BYTE   W72
        BYTE           N23
        BYTE           N23     Fs3
        BYTE           N23     Ds3
        BYTE   W24
        BYTE   PEND
// 038   ----------------------------------------
        BYTE           N32     An2   v110   gtp3
        BYTE                   En3
        BYTE           N32     Cs3   v110   gtp3
        BYTE   W36
        BYTE                   En3
        BYTE           N32     Cs3   v110   gtp3
        BYTE                   An2
        BYTE   W36
        BYTE           N23     En3
        BYTE           N23     Cs3
        BYTE           N23     An2
        BYTE   W24
// 039   ----------------------------------------
Plantation_Crash_Zone66_Song_13_39:
        BYTE           N68     Bn2   v110   gtp3
        BYTE                   Ds3
        BYTE           N68     Fs3   v110   gtp3
        BYTE   W72
        BYTE           N23     Ds3
        BYTE           N23     Bn2
        BYTE           N23     Fs3
        BYTE   W24
        BYTE   PEND
// 040   ----------------------------------------
        BYTE           N32     En3   v110   gtp3
        BYTE                   Gs3
        BYTE           N32     Cs3   v110   gtp3
        BYTE   W36
        BYTE                   En3
        BYTE           N32     Gs3   v110   gtp3
        BYTE                   Cs3
        BYTE   W36
        BYTE           N23
        BYTE           N23     En3
        BYTE           N23     Gs3
        BYTE   W24
// 041   ----------------------------------------
        BYTE   PATT
         POIN2  Plantation_Crash_Zone66_Song_13_37
// 042   ----------------------------------------
        BYTE           N32     Cs3   v110   gtp3
        BYTE                   En3
        BYTE           N32     An2   v110   gtp3
        BYTE   W36
        BYTE                   En3
        BYTE           N32     Cs3   v110   gtp3
        BYTE                   An2
        BYTE   W36
        BYTE           N23     En3
        BYTE           N23     Cs3
        BYTE           N23     An2
        BYTE   W24
// 043   ----------------------------------------
Plantation_Crash_Zone66_Song_13_43:
        BYTE           N68     Fs3   v110   gtp3
        BYTE                   Ds3
        BYTE           N68     Bn2   v110   gtp3
        BYTE   W72
        BYTE           N23     Ds3
        BYTE           N23     Fs3
        BYTE           N23     Bn2
        BYTE   W24
        BYTE   PEND
// 044   ----------------------------------------
Plantation_Crash_Zone66_Song_13_44:
        BYTE           N92     En3   v110   gtp3
        BYTE                   Gs3
        BYTE           N92     Cs3   v110   gtp3
        BYTE   W96
        BYTE   PEND
// 045   ----------------------------------------
        BYTE   W96
// 046   ----------------------------------------
        BYTE   W96
// 047   ----------------------------------------
        BYTE   W96
// 048   ----------------------------------------
        BYTE                   En3
        BYTE           N92     Cs3   v110   gtp3
        BYTE                   Gs3
        BYTE   W96
// 049   ----------------------------------------
        BYTE   W72
// 050   ----------------------------------------
Plantation_Crash_Zone66_Song_13_LOOP:
        BYTE           TIE     As3   v110
        BYTE           TIE     An3
        BYTE           TIE     Dn4   v106
        BYTE           TIE     Gn3
        BYTE   W96
// 051   ----------------------------------------
        BYTE   W44
        BYTE   W03
        BYTE           EOT     As3
        BYTE                   An3
        BYTE                   Dn4
        BYTE                   Gn3
        BYTE   W01
        BYTE           TIE     Gn3   v059
        BYTE           TIE     An3   v063
        BYTE           TIE     Dn4   v059
        BYTE           TIE     As3   v063
        BYTE   W48
// 052   ----------------------------------------
        BYTE   W92
        BYTE   W03
        BYTE           EOT     Gn3
        BYTE                   An3
        BYTE                   Dn4
        BYTE                   As3
        BYTE   W01
// 053   ----------------------------------------
        BYTE   W96
// 054   ----------------------------------------
        BYTE   PATT
         POIN2  Plantation_Crash_Zone66_Song_13_12
// 055   ----------------------------------------
        BYTE   PATT
         POIN2  Plantation_Crash_Zone66_Song_13_13
// 056   ----------------------------------------
        BYTE   PATT
         POIN2  Plantation_Crash_Zone66_Song_13_14
// 057   ----------------------------------------
Plantation_Crash_Zone66_Song_13_57:
        BYTE           N92     Gn2   v110   gtp3
        BYTE                   Dn3
        BYTE           N92     As2   v110   gtp3
        BYTE   W96
        BYTE   PEND
// 058   ----------------------------------------
        BYTE   PATT
         POIN2  Plantation_Crash_Zone66_Song_13_16
// 059   ----------------------------------------
        BYTE   PATT
         POIN2  Plantation_Crash_Zone66_Song_13_57
// 060   ----------------------------------------
        BYTE   PATT
         POIN2  Plantation_Crash_Zone66_Song_13_16
// 061   ----------------------------------------
        BYTE   PATT
         POIN2  Plantation_Crash_Zone66_Song_13_19
// 062   ----------------------------------------
        BYTE   W96
// 063   ----------------------------------------
        BYTE   W96
// 064   ----------------------------------------
        BYTE   W96
// 065   ----------------------------------------
        BYTE   W96
// 066   ----------------------------------------
        BYTE   W96
// 067   ----------------------------------------
        BYTE   W96
// 068   ----------------------------------------
        BYTE   W96
// 069   ----------------------------------------
        BYTE   W72
        BYTE           N23     Cs4   v110
        BYTE           N23     An3
        BYTE           N23     Gs3
        BYTE   W24
// 070   ----------------------------------------
        BYTE   PATT
         POIN2  Plantation_Crash_Zone66_Song_13_34
// 071   ----------------------------------------
        BYTE           N92     Cs3   v110   gtp3
        BYTE                   An2
        BYTE           N92     Fs2   v110   gtp3
        BYTE   W96
// 072   ----------------------------------------
        BYTE   PATT
         POIN2  Plantation_Crash_Zone66_Song_13_34
// 073   ----------------------------------------
        BYTE   PATT
         POIN2  Plantation_Crash_Zone66_Song_13_31
// 074   ----------------------------------------
        BYTE   PATT
         POIN2  Plantation_Crash_Zone66_Song_13_32
// 075   ----------------------------------------
        BYTE   PATT
         POIN2  Plantation_Crash_Zone66_Song_13_29
// 076   ----------------------------------------
        BYTE   PATT
         POIN2  Plantation_Crash_Zone66_Song_13_28
// 077   ----------------------------------------
        BYTE           N92     Fs3   v110   gtp3
        BYTE                   Dn3
        BYTE           N92     Bn2   v110   gtp3
        BYTE   W96
// 078   ----------------------------------------
        BYTE           N32     En3   v110   gtp3
        BYTE                   Gs3
        BYTE           N32     Cs3   v110   gtp3
        BYTE   W36
        BYTE                   Cs3
        BYTE           N32     Gs3   v110   gtp3
        BYTE                   En3
        BYTE   W36
        BYTE           N23     Gs3
        BYTE           N23     En3
        BYTE           N23     Cs3
        BYTE   W24
// 079   ----------------------------------------
        BYTE           N68     Ds3   v110   gtp3
        BYTE                   Fs3
        BYTE           N68     Bn2   v110   gtp3
        BYTE   W72
        BYTE           N23     Ds3
        BYTE           N23     Fs3
        BYTE           N23     Bn2
        BYTE   W24
// 080   ----------------------------------------
        BYTE           N32     En3   v110   gtp3
        BYTE                   An2
        BYTE           N32     Cs3   v110   gtp3
        BYTE   W36
        BYTE                   En3
        BYTE           N32     Cs3   v110   gtp3
        BYTE                   An2
        BYTE   W36
        BYTE           N23     En3
        BYTE           N23     Cs3
        BYTE           N23     An2
        BYTE   W24
// 081   ----------------------------------------
        BYTE   PATT
         POIN2  Plantation_Crash_Zone66_Song_13_39
// 082   ----------------------------------------
        BYTE           N32     Cs3   v110   gtp3
        BYTE                   En3
        BYTE           N32     Gs3   v110   gtp3
        BYTE   W36
        BYTE                   En3
        BYTE           N32     Gs3   v110   gtp3
        BYTE                   Cs3
        BYTE   W36
        BYTE           N23
        BYTE           N23     En3
        BYTE           N23     Gs3
        BYTE   W24
// 083   ----------------------------------------
        BYTE   PATT
         POIN2  Plantation_Crash_Zone66_Song_13_37
// 084   ----------------------------------------
        BYTE           N32     Cs3   v110   gtp3
        BYTE                   An2
        BYTE           N32     En3   v110   gtp3
        BYTE   W36
        BYTE                   An2
        BYTE           N32     Cs3   v110   gtp3
        BYTE                   En3
        BYTE   W36
        BYTE           N23     An2
        BYTE           N23     En3
        BYTE           N23     Cs3
        BYTE   W24
// 085   ----------------------------------------
        BYTE   PATT
         POIN2  Plantation_Crash_Zone66_Song_13_43
// 086   ----------------------------------------
        BYTE   PATT
         POIN2  Plantation_Crash_Zone66_Song_13_44
// 087   ----------------------------------------
        BYTE   W96
// 088   ----------------------------------------
        BYTE   W96
// 089   ----------------------------------------
        BYTE   W96
// 090   ----------------------------------------
        BYTE           N92     Gs3   v110   gtp3
        BYTE                   En3
        BYTE           N92     Cs3   v110   gtp3
        BYTE   W96
// 091   ----------------------------------------
        BYTE   W72
// 092   ----------------------------------------
        BYTE   GoTo
         POIN2  Plantation_Crash_Zone66_Song_13_LOOP
        BYTE   FINE

//***************** Track 14 (Midi-Chn.15) *****************//

Plantation_Crash_Zone66_Song_14:
        BYTE   KEYSH   Plantation_Crash_Zone66_Song_key+0
// 000   ----------------------------------------
        BYTE           VOICE   123
        BYTE           VOL     84
        BYTE           PAN     c_v+6
        BYTE   W96
// 001   ----------------------------------------
        BYTE   W96
// 002   ----------------------------------------
        BYTE   W96
// 003   ----------------------------------------
        BYTE   W96
// 004   ----------------------------------------
        BYTE   W96
// 005   ----------------------------------------
        BYTE   W96
// 006   ----------------------------------------
        BYTE   W90
        BYTE           N02     Fs1   v090
        BYTE   W03
        BYTE                   Fs1   v112
        BYTE   W03
// 007   ----------------------------------------
        BYTE           N05     Fs1   v127
        BYTE   W06
        BYTE                   Fs1   v090
        BYTE   W06
        BYTE                   Fs1   v112
        BYTE   W06
        BYTE                   Fs1   v075
        BYTE   W06
        BYTE                   Fs1   v127
        BYTE   W06
        BYTE                   Fs1   v090
        BYTE   W06
        BYTE                   Fs1   v112
        BYTE   W06
        BYTE                   Fs1   v075
        BYTE   W06
        BYTE                   Fs1   v123
        BYTE   W06
        BYTE                   Fs1   v086
        BYTE   W06
        BYTE                   Fs1   v127
        BYTE   W06
        BYTE                   Gn0   v111
        BYTE           N05     En1
        BYTE           N05     Dn1   v074
        BYTE           N05     Fs1   v090
        BYTE           N05     As0   v074
        BYTE   W06
        BYTE                   Dn1   v086
        BYTE           N05     En1   v123
        BYTE           N05     As0   v086
        BYTE           N05     Fs1   v109
        BYTE           N05     Gn0   v123
        BYTE   W06
        BYTE                   Fs1   v072
        BYTE   W06
        BYTE                   As0   v090
        BYTE           N05     En1   v127
        BYTE           N05     Dn1   v090
        BYTE           N05     Fs1   v105
        BYTE           N05     Gn0   v127
        BYTE   W06
        BYTE                   As0   v080
        BYTE           N05     Dn1
        BYTE           N05     En1   v117
        BYTE           N05     Gn0
        BYTE           N05     Fs1   v068
        BYTE   W06
// 008   ----------------------------------------
        BYTE                   Fs1   v127
        BYTE           N05     Cn1   v080
        BYTE           N05     Bn0   v127
        BYTE           N05     Cs2   v123
        BYTE   W06
        BYTE                   Fs1   v090
        BYTE   W06
        BYTE                   As1   v112
        BYTE   W06
        BYTE                   Fs1   v075
        BYTE   W06
        BYTE                   Gn0   v127
        BYTE           N05     Fs1
        BYTE           N05     Dn1   v090
        BYTE           N05     En1   v127
        BYTE           N05     As0   v090
        BYTE   W06
        BYTE                   Fs1
        BYTE   W06
        BYTE                   As1   v112
        BYTE   W06
        BYTE                   Cn1   v080
        BYTE           N05     Fs1   v075
        BYTE           N05     Bn0   v127
        BYTE   W06
        BYTE                   Fs1   v123
        BYTE   W06
        BYTE                   Fs1   v086
        BYTE   W06
        BYTE                   Bn0   v127
        BYTE           N05     Fs1
        BYTE           N05     Cn1   v080
        BYTE   W06
        BYTE                   As1   v090
        BYTE   W06
        BYTE                   Dn1
        BYTE           N05     Gn0   v127
        BYTE           N05     As0   v090
        BYTE           N05     En1   v127
        BYTE           N05     Fs1   v109
        BYTE   W06
        BYTE                   Fs1   v072
        BYTE   W06
        BYTE                   As1   v105
        BYTE   W06
        BYTE                   Fs1   v068
        BYTE   W06
// 009   ----------------------------------------
        BYTE                   Cn1   v080
        BYTE           N05     Bn0   v127
        BYTE           N05     Fs1
        BYTE   W06
        BYTE                   Fs1   v090
        BYTE   W06
        BYTE                   As1   v112
        BYTE   W06
        BYTE                   Fs1   v075
        BYTE   W06
        BYTE                   En1   v127
        BYTE           N05     Fs1
        BYTE           N05     Dn1   v090
        BYTE           N05     Gn0   v127
        BYTE           N05     As0   v090
        BYTE   W06
        BYTE                   Fs1
        BYTE   W06
        BYTE                   As1   v112
        BYTE   W06
        BYTE                   Bn0   v127
        BYTE           N05     Fs1   v075
        BYTE           N05     Cn1   v080
        BYTE   W06
        BYTE                   Fs1   v123
        BYTE   W06
        BYTE                   Fs1   v086
        BYTE   W06
        BYTE                   Cn1   v080
        BYTE           N05     Fs1   v127
        BYTE           N05     Bn0
        BYTE   W06
        BYTE                   As1   v090
        BYTE   W06
        BYTE                   Fs1   v109
        BYTE           N05     En1   v127
        BYTE           N05     Gn0
        BYTE           N05     As0   v090
        BYTE           N05     Dn1
        BYTE   W06
        BYTE                   Fs1   v072
        BYTE   W06
        BYTE                   As1   v105
        BYTE   W06
        BYTE                   Fs1   v068
        BYTE   W06
// 010   ----------------------------------------
        BYTE                   Cn1   v080
        BYTE           N05     Bn0   v127
        BYTE           N05     Fs1
        BYTE   W06
        BYTE                   Fs1   v090
        BYTE   W06
        BYTE                   As1   v112
        BYTE   W06
        BYTE                   Fs1   v075
        BYTE   W06
        BYTE                   Fs1   v127
        BYTE           N05     Dn1   v090
        BYTE           N05     En1   v127
        BYTE           N05     Gn0
        BYTE           N05     As0   v090
        BYTE   W06
        BYTE                   Fs1
        BYTE   W06
        BYTE                   As1   v112
        BYTE   W06
        BYTE                   Fs1   v075
        BYTE           N05     Cn1   v080
        BYTE           N05     Bn0   v127
        BYTE   W06
        BYTE                   Fs1   v123
        BYTE   W06
        BYTE                   Fs1   v086
        BYTE   W06
        BYTE                   Bn0   v127
        BYTE           N05     Cn1   v080
        BYTE           N05     Fs1   v127
        BYTE   W06
        BYTE                   As1   v090
        BYTE   W06
        BYTE                   Dn1
        BYTE           N05     Fs1   v109
        BYTE           N05     As0   v090
        BYTE           N05     En1   v127
        BYTE           N05     Gn0
        BYTE   W06
        BYTE                   Fs1   v072
        BYTE   W06
        BYTE                   As1   v105
        BYTE   W06
        BYTE                   Fs1   v068
        BYTE   W06
// 011   ----------------------------------------
        BYTE                   Fs1   v127
        BYTE           N05     Cn1   v080
        BYTE           N05     Bn0   v127
        BYTE   W06
        BYTE                   Fs1   v090
        BYTE   W06
        BYTE                   As1   v112
        BYTE   W06
        BYTE                   Fs1   v075
        BYTE   W06
        BYTE                   Fs1   v127
        BYTE           N05     Dn1   v090
        BYTE           N05     As0
        BYTE           N05     En1   v127
        BYTE           N05     Gn0
        BYTE   W06
        BYTE                   Fs1   v090
        BYTE   W06
        BYTE                   As1   v112
        BYTE   W06
        BYTE                   Cn1   v080
        BYTE           N05     Bn0   v127
        BYTE           N05     Fs1   v075
        BYTE   W06
        BYTE                   Fs1   v123
        BYTE   W06
        BYTE                   Fs1   v086
        BYTE   W06
        BYTE                   Cn1   v080
        BYTE           N05     Bn0   v127
        BYTE           N05     Fs1
        BYTE   W06
        BYTE                   As1   v090
        BYTE   W06
        BYTE                   En1   v127
        BYTE           N05     Fs1   v109
        BYTE           N05     As0   v090
        BYTE           N05     Gn0   v127
        BYTE           N05     Dn1   v090
        BYTE   W06
        BYTE                   Fs1   v072
        BYTE   W06
        BYTE                   As1   v105
        BYTE   W06
        BYTE                   Fs1   v068
        BYTE   W06
// 012   ----------------------------------------
        BYTE                   Cn1   v080
        BYTE           N05     Bn0   v127
        BYTE           N05     Cs2   v123
        BYTE           N05     Fs1   v127
        BYTE   W06
        BYTE                   Fs1   v090
        BYTE   W06
        BYTE                   As1   v112
        BYTE   W06
        BYTE                   Fs1   v075
        BYTE   W06
        BYTE                   Gn0   v127
        BYTE           N05     En1
        BYTE           N05     As0   v090
        BYTE           N05     Fs1   v127
        BYTE           N05     Dn1   v090
        BYTE   W06
        BYTE                   Fs1
        BYTE   W06
        BYTE                   As1   v112
        BYTE   W06
        BYTE                   Bn0   v127
        BYTE           N05     Fs1   v075
        BYTE           N05     Cn1   v080
        BYTE   W06
        BYTE                   Fs1   v123
        BYTE   W06
        BYTE                   Fs1   v086
        BYTE   W06
        BYTE                   Bn0   v127
        BYTE           N05     Cn1   v080
        BYTE           N05     Fs1   v127
        BYTE   W06
        BYTE                   As1   v090
        BYTE   W06
        BYTE                   Fs1   v109
        BYTE           N05     En1   v127
        BYTE           N05     Gn0
        BYTE           N05     Dn1   v090
        BYTE           N05     As0
        BYTE   W06
        BYTE                   Fs1   v072
        BYTE   W06
        BYTE                   As1   v105
        BYTE   W06
        BYTE                   Fs1   v068
        BYTE   W06
// 013   ----------------------------------------
        BYTE                   Fs1   v127
        BYTE           N05     Cn1   v080
        BYTE           N05     Bn0   v127
        BYTE   W06
        BYTE                   Fs1   v090
        BYTE   W06
        BYTE                   As1   v112
        BYTE   W06
        BYTE                   Fs1   v075
        BYTE   W06
        BYTE                   Dn1   v090
        BYTE           N05     Fs1   v127
        BYTE           N05     As0   v090
        BYTE           N05     Gn0   v127
        BYTE           N05     En1
        BYTE   W06
        BYTE                   Fs1   v090
        BYTE   W06
        BYTE                   As1   v112
        BYTE   W06
        BYTE                   Fs1   v075
        BYTE           N05     Bn0   v127
        BYTE           N05     Cn1   v080
        BYTE   W06
        BYTE                   Fs1   v123
        BYTE   W06
        BYTE                   Fs1   v086
        BYTE   W06
        BYTE                   Bn0   v127
        BYTE           N05     Cn1   v080
        BYTE           N05     Fs1   v127
        BYTE   W06
        BYTE                   As1   v090
        BYTE   W06
        BYTE                   En1   v127
        BYTE           N05     As0   v090
        BYTE           N05     Gn0   v127
        BYTE           N05     Dn1   v090
        BYTE           N05     Fs1   v109
        BYTE   W06
        BYTE                   Fs1   v072
        BYTE   W06
        BYTE                   As1   v105
        BYTE   W06
        BYTE                   Fs1   v068
        BYTE   W06
// 014   ----------------------------------------
        BYTE                   Fs1   v127
        BYTE           N05     Cn1   v080
        BYTE           N05     Bn0   v127
        BYTE   W06
        BYTE                   Fs1   v090
        BYTE   W06
        BYTE                   As1   v112
        BYTE   W06
        BYTE                   Fs1   v075
        BYTE   W06
        BYTE                   Gn0   v127
        BYTE           N05     Fs1
        BYTE           N05     En1
        BYTE           N05     As0   v090
        BYTE           N05     Dn1
        BYTE   W06
        BYTE                   Fs1
        BYTE   W06
        BYTE                   As1   v112
        BYTE   W06
        BYTE                   Bn0   v127
        BYTE           N05     Cn1   v080
        BYTE           N05     Fs1   v075
        BYTE   W06
        BYTE                   Fs1   v123
        BYTE   W06
        BYTE                   Fs1   v086
        BYTE   W06
        BYTE                   Bn0   v127
        BYTE           N05     Cn1   v080
        BYTE           N05     Fs1   v127
        BYTE   W06
        BYTE                   As1   v090
        BYTE   W06
        BYTE                   As0
        BYTE           N05     Dn1
        BYTE           N05     Fs1   v109
        BYTE           N05     Gn0   v127
        BYTE           N05     En1
        BYTE   W06
        BYTE                   Fs1   v072
        BYTE   W06
        BYTE                   As1   v105
        BYTE   W06
        BYTE                   Fs1   v068
        BYTE   W06
// 015   ----------------------------------------
        BYTE                   Cn1   v080
        BYTE           N05     Bn0   v127
        BYTE           N05     Fs1
        BYTE   W06
        BYTE                   Fs1   v090
        BYTE   W06
        BYTE                   As1   v112
        BYTE   W06
        BYTE                   Fs1   v075
        BYTE   W06
        BYTE                   Dn1   v090
        BYTE           N05     Fs1   v127
        BYTE           N05     Gn0
        BYTE           N05     En1
        BYTE           N05     As0   v090
        BYTE   W06
        BYTE                   Fs1
        BYTE   W06
        BYTE                   As1   v112
        BYTE   W06
        BYTE                   Fs1   v075
        BYTE           N05     Cn1   v080
        BYTE           N05     Bn0   v127
        BYTE   W06
        BYTE                   Fs1   v123
        BYTE   W06
        BYTE                   Fs1   v086
        BYTE   W06
        BYTE                   Fs1   v127
        BYTE           N05     Bn0
        BYTE           N05     Cn1   v080
        BYTE   W06
        BYTE                   As1   v090
        BYTE   W06
        BYTE                   En1   v127
        BYTE           N05     Gn0
        BYTE           N05     Dn1   v090
        BYTE           N05     As0
        BYTE           N05     Fs1   v109
        BYTE   W06
        BYTE                   Fs1   v072
        BYTE   W06
        BYTE                   As1   v105
        BYTE   W06
        BYTE                   Fs1   v068
        BYTE   W06
// 016   ----------------------------------------
        BYTE                   Fs1   v127
        BYTE           N05     Bn0
        BYTE           N05     Cn1   v080
        BYTE   W06
        BYTE                   Fs1   v090
        BYTE   W06
        BYTE                   As1   v112
        BYTE   W06
        BYTE                   Fs1   v075
        BYTE   W06
        BYTE                   En1   v127
        BYTE           N05     Gn0
        BYTE           N05     Dn1   v090
        BYTE           N05     Fs1   v127
        BYTE           N05     As0   v090
        BYTE   W06
        BYTE                   Fs1
        BYTE   W06
        BYTE                   As1   v112
        BYTE   W06
        BYTE                   Cn1   v080
        BYTE           N05     Bn0   v127
        BYTE           N05     Fs1   v075
        BYTE   W06
        BYTE                   Fs1   v123
        BYTE   W06
        BYTE                   Fs1   v086
        BYTE   W06
        BYTE                   Bn0   v127
        BYTE           N05     Fs1
        BYTE           N05     Cn1   v080
        BYTE   W06
        BYTE                   As1   v090
        BYTE   W06
        BYTE                   Dn1
        BYTE           N05     En1   v127
        BYTE           N05     Fs1   v109
        BYTE           N05     Gn0   v127
        BYTE           N05     As0   v090
        BYTE   W06
        BYTE                   Fs1   v072
        BYTE   W06
        BYTE                   As1   v105
        BYTE   W06
        BYTE                   Fs1   v068
        BYTE   W06
// 017   ----------------------------------------
        BYTE                   Bn0   v127
        BYTE           N05     Cn1   v080
        BYTE           N05     Fs1   v127
        BYTE   W06
        BYTE                   Fs1   v090
        BYTE   W06
        BYTE                   As1   v112
        BYTE   W06
        BYTE                   Fs1   v075
        BYTE   W06
        BYTE                   En1   v127
        BYTE           N05     Gn0
        BYTE           N05     Dn1   v090
        BYTE           N05     Fs1   v127
        BYTE           N05     As0   v090
        BYTE   W06
        BYTE                   Fs1
        BYTE   W06
        BYTE                   As1   v112
        BYTE   W06
        BYTE                   Cn1   v080
        BYTE           N05     Bn0   v127
        BYTE           N05     Fs1   v075
        BYTE   W06
        BYTE                   Fs1   v123
        BYTE   W06
        BYTE                   Fs1   v086
        BYTE   W06
        BYTE                   Fs1   v127
        BYTE           N05     Bn0
        BYTE           N05     Cn1   v080
        BYTE   W06
        BYTE                   As1   v090
        BYTE   W06
        BYTE                   En1   v127
        BYTE           N05     As0   v090
        BYTE           N05     Dn1
        BYTE           N05     Gn0   v127
        BYTE           N05     Fs1   v109
        BYTE   W06
        BYTE                   Fs1   v072
        BYTE   W06
        BYTE                   As1   v105
        BYTE   W06
        BYTE                   Fs1   v068
        BYTE   W06
// 018   ----------------------------------------
        BYTE                   Cn1   v080
        BYTE           N05     Fs1   v127
        BYTE           N05     Bn0
        BYTE   W06
        BYTE                   Fs1   v090
        BYTE   W06
        BYTE                   As1   v112
        BYTE   W06
        BYTE                   Fs1   v075
        BYTE   W06
        BYTE                   Gn0   v127
        BYTE           N05     Dn1   v090
        BYTE           N05     As0
        BYTE           N05     En1   v127
        BYTE           N05     Fs1
        BYTE   W06
        BYTE                   Fs1   v090
        BYTE   W06
        BYTE                   As1   v112
        BYTE   W06
        BYTE                   Bn0   v127
        BYTE           N05     Fs1   v075
        BYTE           N05     Cn1   v080
        BYTE   W06
        BYTE                   Fs1   v123
        BYTE   W06
        BYTE                   Fs1   v086
        BYTE   W06
        BYTE                   Cn1   v080
        BYTE           N05     Bn0   v127
        BYTE           N05     Fs1
        BYTE   W06
        BYTE                   As1   v090
        BYTE   W06
        BYTE                   Dn1
        BYTE           N05     En1   v127
        BYTE           N05     As0   v090
        BYTE           N05     Fs1   v109
        BYTE           N05     Gn0   v127
        BYTE   W06
        BYTE                   Fs1   v072
        BYTE   W06
        BYTE                   As1   v105
        BYTE   W06
        BYTE                   Fs1   v068
        BYTE           N05     Bn0   v127
        BYTE           N05     Cn1   v080
        BYTE   W06
// 019   ----------------------------------------
        BYTE                   Gn0   v127
        BYTE           N05     Cs2   v123
        BYTE           N05     Dn1   v090
        BYTE           N05     En1   v127
        BYTE           N05     As0   v090
        BYTE   W72
        BYTE                   As0   v086
        BYTE           N05     Dn1
        BYTE           N05     En1   v123
        BYTE           N05     Gn0
        BYTE   W12
        BYTE                   Dn1   v090
        BYTE           N05     Gn0   v127
        BYTE           N05     En1
        BYTE           N05     As0   v090
        BYTE   W06
        BYTE                   Dn1   v080
        BYTE           N05     As0
        BYTE           N05     En1   v117
        BYTE           N05     Gn0
        BYTE   W06
// 020   ----------------------------------------
        BYTE                   Cn1   v080
        BYTE           N05     Bn0   v127
        BYTE           N05     Cs2   v123
        BYTE           N05     Fs1   v127
        BYTE   W06
        BYTE                   Fs1   v090
        BYTE   W06
        BYTE                   As1   v112
        BYTE   W06
        BYTE                   Fs1   v075
        BYTE   W06
        BYTE                   En1   v127
        BYTE           N05     Gn0
        BYTE           N05     Fs1
        BYTE           N05     As0   v090
        BYTE           N05     Dn1
        BYTE   W06
        BYTE                   Fs1
        BYTE   W06
        BYTE                   As1   v112
        BYTE   W06
        BYTE                   Fs1   v075
        BYTE           N05     Cn1   v080
        BYTE           N05     Bn0   v127
        BYTE   W06
        BYTE                   Fs1   v123
        BYTE   W06
        BYTE                   Fs1   v086
        BYTE   W06
        BYTE                   Bn0   v127
        BYTE           N05     Fs1
        BYTE           N05     Cn1   v080
        BYTE   W06
        BYTE                   As1   v090
        BYTE   W06
        BYTE                   Gn0   v127
        BYTE           N05     Fs1   v109
        BYTE           N05     As0   v090
        BYTE           N05     En1   v127
        BYTE           N05     Dn1   v090
        BYTE   W06
        BYTE                   Fs1   v072
        BYTE   W06
        BYTE                   As1   v105
        BYTE   W06
        BYTE                   Fs1   v068
        BYTE   W06
// 021   ----------------------------------------
        BYTE                   Bn0   v127
        BYTE           N05     Fs1
        BYTE           N05     Cn1   v080
        BYTE   W06
        BYTE                   Fs1   v090
        BYTE   W06
        BYTE                   As1   v112
        BYTE   W06
        BYTE                   Fs1   v075
        BYTE   W06
        BYTE                   En1   v127
        BYTE           N05     Gn0
        BYTE           N05     Dn1   v090
        BYTE           N05     As0
        BYTE           N05     Fs1   v127
        BYTE   W06
        BYTE                   Fs1   v090
        BYTE   W06
        BYTE                   As1   v112
        BYTE   W06
        BYTE                   Fs1   v075
        BYTE           N05     Bn0   v127
        BYTE           N05     Cn1   v080
        BYTE   W06
        BYTE                   Fs1   v123
        BYTE   W06
        BYTE                   Fs1   v086
        BYTE   W06
        BYTE                   Bn0   v127
        BYTE           N05     Cn1   v080
        BYTE           N05     Fs1   v127
        BYTE   W06
        BYTE                   As1   v090
        BYTE   W06
        BYTE                   En1   v127
        BYTE           N05     Fs1   v109
        BYTE           N05     As0   v090
        BYTE           N05     Dn1
        BYTE           N05     Gn0   v127
        BYTE   W06
        BYTE                   Fs1   v072
        BYTE   W06
        BYTE                   As1   v105
        BYTE   W06
        BYTE                   Fs1   v068
        BYTE   W06
// 022   ----------------------------------------
        BYTE                   Bn0   v127
        BYTE           N05     Cn1   v080
        BYTE           N05     Fs1   v127
        BYTE           N05     Cs2   v123
        BYTE   W06
        BYTE                   Fs1   v090
        BYTE   W06
        BYTE                   As1   v112
        BYTE   W06
        BYTE                   Fs1   v075
        BYTE   W06
        BYTE                   Dn1   v090
        BYTE           N05     Fs1   v127
        BYTE           N05     Gn0
        BYTE           N05     En1
        BYTE           N05     As0   v090
        BYTE   W06
        BYTE                   Fs1
        BYTE   W06
        BYTE                   As1   v112
        BYTE   W06
        BYTE                   Cn1   v080
        BYTE           N05     Bn0   v127
        BYTE           N05     Fs1   v075
        BYTE   W06
        BYTE                   Fs1   v123
        BYTE   W06
        BYTE                   Fs1   v086
        BYTE   W06
        BYTE                   Fs1   v127
        BYTE           N05     Cn1   v080
        BYTE           N05     Bn0   v127
        BYTE   W06
        BYTE                   As1   v090
        BYTE   W06
        BYTE                   En1   v127
        BYTE           N05     Dn1   v090
        BYTE           N05     As0
        BYTE           N05     Fs1   v109
        BYTE           N05     Gn0   v127
        BYTE   W06
        BYTE                   Fs1   v072
        BYTE   W06
        BYTE                   As1   v105
        BYTE   W06
        BYTE                   Fs1   v068
        BYTE   W06
// 023   ----------------------------------------
        BYTE                   Cn1   v080
        BYTE           N05     Fs1   v127
        BYTE           N05     Bn0
        BYTE   W06
        BYTE                   Fs1   v090
        BYTE   W06
        BYTE                   As1   v112
        BYTE   W06
        BYTE                   Fs1   v075
        BYTE   W06
        BYTE                   Gn0   v127
        BYTE           N05     As0   v090
        BYTE           N05     Dn1
        BYTE           N05     Fs1   v127
        BYTE           N05     En1
        BYTE   W06
        BYTE                   Fs1   v090
        BYTE   W06
        BYTE                   As1   v112
        BYTE   W06
        BYTE                   Fs1   v075
        BYTE           N05     Cn1   v080
        BYTE           N05     Bn0   v127
        BYTE   W06
        BYTE                   Fs1   v123
        BYTE   W06
        BYTE                   Fs1   v086
        BYTE   W06
        BYTE                   Cn1   v080
        BYTE           N05     Bn0   v127
        BYTE           N05     Fs1
        BYTE   W06
        BYTE                   As1   v090
        BYTE   W06
        BYTE                   Gn0   v127
        BYTE           N05     Fs1   v109
        BYTE           N05     As0   v090
        BYTE           N05     En1   v127
        BYTE           N05     Dn1   v090
        BYTE   W06
        BYTE                   Fs1   v072
        BYTE   W06
        BYTE                   Dn1   v090
        BYTE           N05     Gn0   v127
        BYTE           N05     En1
        BYTE           N05     As1   v105
        BYTE           N05     As0   v090
        BYTE   W06
        BYTE                   Dn1
        BYTE           N05     Gn0   v127
        BYTE           N05     As0   v090
        BYTE           N05     En1   v127
        BYTE           N05     Fs1   v068
        BYTE   W06
// 024   ----------------------------------------
        BYTE                   Fs1   v127
        BYTE           N05     Bn0
        BYTE           N05     Cs2   v123
        BYTE           N05     Cn1   v080
        BYTE   W06
        BYTE                   Fs1   v090
        BYTE   W06
        BYTE                   As1   v112
        BYTE   W06
        BYTE                   Fs1   v075
        BYTE   W06
        BYTE                   Dn1   v090
        BYTE           N05     En1   v127
        BYTE           N05     Gn0
        BYTE           N05     Fs1
        BYTE           N05     As0   v090
        BYTE   W06
        BYTE                   Fs1
        BYTE   W06
        BYTE                   As1   v112
        BYTE   W06
        BYTE                   Bn0   v127
        BYTE           N05     Fs1   v075
        BYTE           N05     Cn1   v080
        BYTE   W06
        BYTE                   Fs1   v123
        BYTE   W06
        BYTE                   Fs1   v086
        BYTE   W06
        BYTE                   Cn1   v080
        BYTE           N05     Fs1   v127
        BYTE           N05     Bn0
        BYTE   W06
        BYTE                   As1   v090
        BYTE   W06
        BYTE                   En1   v127
        BYTE           N05     As0   v090
        BYTE           N05     Gn0   v127
        BYTE           N05     Dn1   v090
        BYTE           N05     Fs1   v109
        BYTE   W06
        BYTE                   Fs1   v072
        BYTE   W06
        BYTE                   As1   v105
        BYTE   W06
        BYTE                   Fs1   v068
        BYTE   W06
// 025   ----------------------------------------
        BYTE                   Bn0   v127
        BYTE           N05     Fs1
        BYTE           N05     Cn1   v080
        BYTE   W06
        BYTE                   Fs1   v090
        BYTE   W06
        BYTE                   As1   v112
        BYTE   W06
        BYTE                   Fs1   v075
        BYTE   W06
        BYTE                   Dn1   v090
        BYTE           N05     As0
        BYTE           N05     Gn0   v127
        BYTE           N05     En1
        BYTE           N05     Fs1
        BYTE   W06
        BYTE                   Fs1   v090
        BYTE   W06
        BYTE                   As1   v112
        BYTE   W06
        BYTE                   Bn0   v127
        BYTE           N05     Fs1   v075
        BYTE           N05     Cn1   v080
        BYTE   W06
        BYTE                   Fs1   v123
        BYTE   W06
        BYTE                   Fs1   v086
        BYTE   W06
        BYTE                   Fs1   v127
        BYTE           N05     Bn0
        BYTE           N05     Cn1   v080
        BYTE   W06
        BYTE                   As1   v090
        BYTE   W06
        BYTE                   Gn0   v127
        BYTE           N05     En1
        BYTE           N05     Fs1   v109
        BYTE           N05     Dn1   v090
        BYTE           N05     As0
        BYTE   W06
        BYTE                   Fs1   v072
        BYTE   W06
        BYTE                   As1   v105
        BYTE   W06
        BYTE                   Fs1   v068
        BYTE   W06
// 026   ----------------------------------------
        BYTE                   Fs1   v127
        BYTE           N05     Cn1   v080
        BYTE           N05     Bn0   v127
        BYTE   W06
        BYTE                   Fs1   v090
        BYTE   W06
        BYTE                   As1   v112
        BYTE   W06
        BYTE                   Fs1   v075
        BYTE   W06
        BYTE                   Fs1   v127
        BYTE           N05     Gn0
        BYTE           N05     As0   v090
        BYTE           N05     Dn1
        BYTE           N05     En1   v127
        BYTE   W06
        BYTE                   Fs1   v090
        BYTE   W06
        BYTE                   As1   v112
        BYTE   W06
        BYTE                   Cn1   v080
        BYTE           N05     Bn0   v127
        BYTE           N05     Fs1   v075
        BYTE   W06
        BYTE                   Fs1   v123
        BYTE   W06
        BYTE                   Fs1   v086
        BYTE   W06
        BYTE                   Bn0   v127
        BYTE           N05     Cn1   v080
        BYTE           N05     Fs1   v127
        BYTE   W06
        BYTE                   As1   v090
        BYTE   W06
        BYTE                   Fs1   v109
        BYTE           N05     As0   v090
        BYTE           N05     En1   v127
        BYTE           N05     Gn0
        BYTE           N05     Dn1   v090
        BYTE   W06
        BYTE                   Fs1   v072
        BYTE   W06
        BYTE                   As1   v105
        BYTE   W06
        BYTE                   Bn0   v127
        BYTE           N05     Cn1   v080
        BYTE           N05     Fs1   v068
        BYTE   W06
// 027   ----------------------------------------
        BYTE                   Fs1   v127
        BYTE           N05     Dn1   v090
        BYTE           N05     As0
        BYTE           N05     Gn0   v127
        BYTE           N05     En1
        BYTE           N05     Cs2   v123
        BYTE   W06
        BYTE                   Fs1   v090
        BYTE   W06
        BYTE                   Fs1   v112
        BYTE   W06
        BYTE                   Fs1   v075
        BYTE   W06
        BYTE                   Cn1   v080
        BYTE           N05     Bn0   v127
        BYTE           N05     Fs1
        BYTE   W06
        BYTE                   Fs1   v090
        BYTE   W06
        BYTE                   Fs1   v112
        BYTE   W06
        BYTE                   Fs1   v075
        BYTE   W06
        BYTE                   Cn1   v080
        BYTE           N05     Bn0   v127
        BYTE           N05     Fs1   v123
        BYTE   W06
        BYTE                   Fs1   v086
        BYTE   W06
        BYTE                   Fs1   v127
        BYTE   W06
        BYTE                   Fs1   v090
        BYTE   W06
        BYTE                   As0   v086
        BYTE           N05     Dn1
        BYTE           N05     En1   v123
        BYTE           N05     Gn0
        BYTE           N05     Fs1   v109
        BYTE   W06
        BYTE                   Fs1   v072
        BYTE   W06
        BYTE                   Fs1   v105
        BYTE   W06
        BYTE                   Fs1   v068
        BYTE   W06
// 028   ----------------------------------------
        BYTE                   Cn1   v080
        BYTE           N05     Bn0   v127
        BYTE           N05     Fs1
        BYTE   W06
        BYTE                   Fs1   v090
        BYTE   W06
        BYTE                   As1   v112
        BYTE   W06
        BYTE                   Fs1   v075
        BYTE   W06
        BYTE                   As0   v090
        BYTE           N05     Dn1
        BYTE           N05     Gn0   v127
        BYTE           N05     En1
        BYTE           N05     Fs1
        BYTE   W06
        BYTE                   Fs1   v090
        BYTE   W06
        BYTE                   As1   v112
        BYTE   W06
        BYTE                   Fs1   v075
        BYTE           N05     Cn1   v080
        BYTE           N05     Bn0   v127
        BYTE   W06
        BYTE                   Fs1   v123
        BYTE   W06
        BYTE                   Fs1   v086
        BYTE   W06
        BYTE                   Bn0   v127
        BYTE           N05     Fs1
        BYTE           N05     Cn1   v080
        BYTE   W06
        BYTE                   As1   v090
        BYTE   W06
        BYTE                   Dn1
        BYTE           N05     As0
        BYTE           N05     En1   v127
        BYTE           N05     Fs1   v109
        BYTE           N05     Gn0   v127
        BYTE   W06
        BYTE                   Fs1   v072
        BYTE   W06
        BYTE                   As1   v105
        BYTE   W06
        BYTE                   Fs1   v068
        BYTE   W06
// 029   ----------------------------------------
        BYTE                   Fs1   v127
        BYTE           N05     Bn0
        BYTE           N05     Cn1   v080
        BYTE   W06
        BYTE                   Fs1   v090
        BYTE   W06
        BYTE                   As1   v112
        BYTE   W06
        BYTE                   Fs1   v075
        BYTE   W06
        BYTE                   Gn0   v127
        BYTE           N05     En1
        BYTE           N05     As0   v090
        BYTE           N05     Dn1
        BYTE           N05     Fs1   v127
        BYTE   W06
        BYTE                   Fs1   v090
        BYTE   W06
        BYTE                   As1   v112
        BYTE   W06
        BYTE                   Cn1   v080
        BYTE           N05     Bn0   v127
        BYTE           N05     Fs1   v075
        BYTE   W06
        BYTE                   Fs1   v123
        BYTE   W06
        BYTE                   Fs1   v086
        BYTE   W06
        BYTE                   Bn0   v127
        BYTE           N05     Cn1   v080
        BYTE           N05     Fs1   v127
        BYTE   W06
        BYTE                   As1   v090
        BYTE   W06
        BYTE                   As0
        BYTE           N05     En1   v127
        BYTE           N05     Dn1   v090
        BYTE           N05     Fs1   v109
        BYTE           N05     Gn0   v127
        BYTE   W06
        BYTE                   Fs1   v072
        BYTE   W06
        BYTE                   As1   v105
        BYTE   W06
        BYTE                   Fs1   v068
        BYTE   W06
// 030   ----------------------------------------
        BYTE                   Bn0   v127
        BYTE           N05     Cn1   v080
        BYTE           N05     Fs1   v127
        BYTE   W06
        BYTE                   Fs1   v090
        BYTE   W06
        BYTE                   As1   v112
        BYTE   W06
        BYTE                   Fs1   v075
        BYTE   W06
        BYTE                   Gn0   v127
        BYTE           N05     Fs1
        BYTE           N05     En1
        BYTE           N05     As0   v090
        BYTE           N05     Dn1
        BYTE   W06
        BYTE                   Fs1
        BYTE   W06
        BYTE                   As1   v112
        BYTE   W06
        BYTE                   Fs1   v075
        BYTE           N05     Cn1   v080
        BYTE           N05     Bn0   v127
        BYTE   W06
        BYTE                   Fs1   v123
        BYTE   W06
        BYTE                   Fs1   v086
        BYTE   W06
        BYTE                   Cn1   v080
        BYTE           N05     Fs1   v127
        BYTE           N05     Bn0
        BYTE   W06
        BYTE                   As1   v090
        BYTE   W06
        BYTE                   Gn0   v127
        BYTE           N05     Dn1   v090
        BYTE           N05     En1   v127
        BYTE           N05     As0   v090
        BYTE           N05     Fs1   v109
        BYTE   W06
        BYTE                   Fs1   v072
        BYTE   W06
        BYTE                   As1   v105
        BYTE   W06
        BYTE                   Fs1   v068
        BYTE   W06
// 031   ----------------------------------------
        BYTE                   Bn0   v127
        BYTE           N05     Cn1   v080
        BYTE           N05     Fs1   v127
        BYTE   W06
        BYTE                   Fs1   v090
        BYTE   W06
        BYTE                   As1   v112
        BYTE   W06
        BYTE                   Fs1   v075
        BYTE   W06
        BYTE                   Fs1   v127
        BYTE           N05     As0   v090
        BYTE           N05     Gn0   v127
        BYTE           N05     En1
        BYTE           N05     Dn1   v090
        BYTE   W06
        BYTE                   Fs1
        BYTE   W06
        BYTE                   As1   v112
        BYTE   W06
        BYTE                   Fs1   v075
        BYTE           N05     Cn1   v080
        BYTE           N05     Bn0   v127
        BYTE   W06
        BYTE                   Fs1   v123
        BYTE   W06
        BYTE                   Fs1   v086
        BYTE   W06
        BYTE                   Fs1   v127
        BYTE           N05     Bn0
        BYTE           N05     Cn1   v080
        BYTE   W06
        BYTE                   As1   v090
        BYTE   W06
        BYTE                   As0
        BYTE           N05     Fs1   v109
        BYTE           N05     Dn1   v090
        BYTE           N05     En1   v127
        BYTE           N05     Gn0
        BYTE   W06
        BYTE                   Fs1   v072
        BYTE   W06
        BYTE                   As1   v105
        BYTE   W06
        BYTE                   Fs1   v068
        BYTE   W06
// 032   ----------------------------------------
        BYTE                   Fs1   v127
        BYTE           N05     Bn0
        BYTE           N05     Cn1   v080
        BYTE   W06
        BYTE                   Fs1   v090
        BYTE   W06
        BYTE                   As1   v112
        BYTE   W06
        BYTE                   Fs1   v075
        BYTE   W06
        BYTE                   En1   v127
        BYTE           N05     Gn0
        BYTE           N05     Dn1   v090
        BYTE           N05     As0
        BYTE           N05     Fs1   v127
        BYTE   W06
        BYTE                   Fs1   v090
        BYTE   W06
        BYTE                   As1   v112
        BYTE   W06
        BYTE                   Bn0   v127
        BYTE           N05     Fs1   v075
        BYTE           N05     Cn1   v080
        BYTE   W06
        BYTE                   Fs1   v123
        BYTE   W06
        BYTE                   Fs1   v086
        BYTE   W06
        BYTE                   Fs1   v127
        BYTE           N05     Bn0
        BYTE           N05     Cn1   v080
        BYTE   W06
        BYTE                   As1   v090
        BYTE   W06
        BYTE                   Dn1
        BYTE           N05     En1   v127
        BYTE           N05     Fs1   v109
        BYTE           N05     Gn0   v127
        BYTE           N05     As0   v090
        BYTE   W06
        BYTE                   Fs1   v072
        BYTE   W06
        BYTE                   As1   v105
        BYTE   W06
        BYTE                   Fs1   v068
        BYTE   W06
// 033   ----------------------------------------
        BYTE                   Bn0   v127
        BYTE           N05     Fs1
        BYTE           N05     Cn1   v080
        BYTE   W06
        BYTE                   Fs1   v090
        BYTE   W06
        BYTE                   As1   v112
        BYTE   W06
        BYTE                   Fs1   v075
        BYTE   W06
        BYTE                   Gn0   v127
        BYTE           N05     Fs1
        BYTE           N05     En1
        BYTE           N05     Dn1   v090
        BYTE           N05     As0
        BYTE   W06
        BYTE                   Fs1
        BYTE   W06
        BYTE                   As1   v112
        BYTE   W06
        BYTE                   Bn0   v127
        BYTE           N05     Cn1   v080
        BYTE           N05     Fs1   v075
        BYTE   W06
        BYTE                   Fs1   v123
        BYTE   W06
        BYTE                   Fs1   v086
        BYTE   W06
        BYTE                   Cn1   v080
        BYTE           N05     Bn0   v127
        BYTE           N05     Fs1
        BYTE   W06
        BYTE                   As1   v090
        BYTE   W06
        BYTE                   As0
        BYTE           N05     Gn0   v127
        BYTE           N05     En1
        BYTE           N05     Dn1   v090
        BYTE           N05     Fs1   v109
        BYTE   W06
        BYTE                   Fs1   v072
        BYTE   W06
        BYTE                   As1   v105
        BYTE   W06
        BYTE                   Fs1   v068
        BYTE   W06
// 034   ----------------------------------------
        BYTE                   Fs1   v127
        BYTE           N05     Cn1   v080
        BYTE           N05     Bn0   v127
        BYTE   W06
        BYTE                   Fs1   v090
        BYTE   W06
        BYTE                   As1   v112
        BYTE   W06
        BYTE                   Fs1   v075
        BYTE   W06
        BYTE                   Dn1   v090
        BYTE           N05     Fs1   v127
        BYTE           N05     En1
        BYTE           N05     As0   v090
        BYTE           N05     Gn0   v127
        BYTE   W06
        BYTE                   Fs1   v090
        BYTE   W06
        BYTE                   As1   v112
        BYTE   W06
        BYTE                   Fs1   v075
        BYTE           N05     Bn0   v127
        BYTE           N05     Cn1   v080
        BYTE   W06
        BYTE                   Fs1   v123
        BYTE   W06
        BYTE                   Fs1   v086
        BYTE   W06
        BYTE                   Cn1   v080
        BYTE           N05     Fs1   v127
        BYTE           N05     Bn0
        BYTE   W06
        BYTE                   As1   v090
        BYTE   W06
        BYTE                   Fs1   v109
        BYTE           N05     Gn0   v127
        BYTE           N05     Dn1   v090
        BYTE           N05     As0
        BYTE           N05     En1   v127
        BYTE   W06
        BYTE                   Fs1   v072
        BYTE   W06
        BYTE                   As1   v105
        BYTE   W06
        BYTE                   Fs1   v068
        BYTE   W06
// 035   ----------------------------------------
        BYTE                   Cn1   v080
        BYTE           N05     Fs1   v127
        BYTE           N05     Bn0
        BYTE   W06
        BYTE                   Fs1   v090
        BYTE   W06
        BYTE                   As1   v112
        BYTE   W06
        BYTE                   Fs1   v075
        BYTE   W06
        BYTE                   En1   v127
        BYTE           N05     Dn1   v090
        BYTE           N05     Gn0   v127
        BYTE           N05     Fs1
        BYTE           N05     As0   v090
        BYTE   W06
        BYTE                   Fs1
        BYTE   W06
        BYTE                   As1   v112
        BYTE   W06
        BYTE                   Fs1   v075
        BYTE           N05     Bn0   v127
        BYTE           N05     Cn1   v080
        BYTE   W06
        BYTE                   Fs1   v123
        BYTE   W06
        BYTE                   Fs1   v086
        BYTE   W06
        BYTE                   Bn0   v127
        BYTE           N05     Fs1
        BYTE           N05     Cn1   v080
        BYTE   W06
        BYTE                   As1   v090
        BYTE   W06
        BYTE                   Gn0   v127
        BYTE           N05     Fs1   v109
        BYTE           N05     As0   v090
        BYTE           N05     Dn1
        BYTE           N05     En1   v127
        BYTE   W06
        BYTE                   Fs1   v072
        BYTE   W06
        BYTE                   As1   v105
        BYTE   W06
        BYTE                   Fs1   v068
        BYTE   W06
// 036   ----------------------------------------
        BYTE                   Bn0   v127
        BYTE           N05     Fs1
        BYTE           N05     Cn1   v080
        BYTE   W06
        BYTE                   Fs1   v090
        BYTE   W06
        BYTE                   As1   v112
        BYTE   W06
        BYTE                   Fs1   v075
        BYTE   W06
        BYTE                   As0   v090
        BYTE           N05     Dn1
        BYTE           N05     Fs1   v127
        BYTE           N05     Gn0
        BYTE           N05     En1
        BYTE   W06
        BYTE                   Fs1   v090
        BYTE   W06
        BYTE                   As1   v112
        BYTE   W06
        BYTE                   Bn0   v127
        BYTE           N05     Cn1   v080
        BYTE           N05     Fs1   v075
        BYTE   W06
        BYTE                   Fs1   v123
        BYTE   W06
        BYTE                   Fs1   v086
        BYTE   W06
        BYTE                   Bn0   v127
        BYTE           N05     Cn1   v080
        BYTE           N05     Fs1   v127
        BYTE   W06
        BYTE                   As1   v090
        BYTE   W06
        BYTE                   Dn1
        BYTE           N05     Gn0   v127
        BYTE           N05     Fs1   v109
        BYTE           N05     En1   v127
        BYTE           N05     As0   v090
        BYTE   W06
        BYTE                   Fs1   v072
        BYTE   W06
        BYTE                   As1   v105
        BYTE   W06
        BYTE                   Fs1   v068
        BYTE   W06
// 037   ----------------------------------------
        BYTE                   Bn0   v127
        BYTE           N05     Fs1
        BYTE           N05     Cn1   v080
        BYTE   W06
        BYTE                   Fs1   v090
        BYTE   W06
        BYTE                   As1   v112
        BYTE   W06
        BYTE                   Fs1   v075
        BYTE   W06
        BYTE                   Dn1   v090
        BYTE           N05     Gn0   v127
        BYTE           N05     En1
        BYTE           N05     As0   v090
        BYTE           N05     Fs1   v127
        BYTE   W06
        BYTE                   Fs1   v090
        BYTE   W06
        BYTE                   As1   v112
        BYTE   W06
        BYTE                   Fs1   v075
        BYTE           N05     Cn1   v080
        BYTE           N05     Bn0   v127
        BYTE   W06
        BYTE                   Fs1   v123
        BYTE   W06
        BYTE                   Fs1   v086
        BYTE   W06
        BYTE                   Cn1   v080
        BYTE           N05     Bn0   v127
        BYTE           N05     Fs1
        BYTE   W06
        BYTE                   As1   v090
        BYTE   W06
        BYTE                   Gn0   v127
        BYTE           N05     En1
        BYTE           N05     Dn1   v090
        BYTE           N05     As0
        BYTE           N05     Fs1   v109
        BYTE   W06
        BYTE                   Fs1   v072
        BYTE   W06
        BYTE                   As1   v105
        BYTE   W06
        BYTE                   Fs1   v068
        BYTE   W06
// 038   ----------------------------------------
        BYTE                   Cn1   v080
        BYTE           N05     Fs1   v127
        BYTE           N05     Bn0
        BYTE   W06
        BYTE                   Fs1   v090
        BYTE   W06
        BYTE                   As1   v112
        BYTE   W06
        BYTE                   Fs1   v075
        BYTE   W06
        BYTE                   Gn0   v127
        BYTE           N05     As0   v090
        BYTE           N05     En1   v127
        BYTE           N05     Dn1   v090
        BYTE           N05     Fs1   v127
        BYTE   W06
        BYTE                   Fs1   v090
        BYTE   W06
        BYTE                   As1   v112
        BYTE   W06
        BYTE                   Fs1   v075
        BYTE           N05     Bn0   v127
        BYTE           N05     Cn1   v080
        BYTE   W06
        BYTE                   Fs1   v123
        BYTE   W06
        BYTE                   Fs1   v086
        BYTE   W06
        BYTE                   Cn1   v080
        BYTE           N05     Bn0   v127
        BYTE           N05     Fs1
        BYTE   W06
        BYTE                   As1   v090
        BYTE   W06
        BYTE                   Gn0   v127
        BYTE           N05     En1
        BYTE           N05     As0   v090
        BYTE           N05     Dn1
        BYTE           N05     Fs1   v109
        BYTE   W06
        BYTE                   Fs1   v072
        BYTE   W06
        BYTE                   As1   v105
        BYTE   W06
        BYTE                   Fs1   v068
        BYTE   W06
// 039   ----------------------------------------
        BYTE                   Fs1   v127
        BYTE           N05     Cn1   v080
        BYTE           N05     Bn0   v127
        BYTE   W06
        BYTE                   Fs1   v090
        BYTE   W06
        BYTE                   As1   v112
        BYTE   W06
        BYTE                   Fs1   v075
        BYTE   W06
        BYTE                   As0   v090
        BYTE           N05     Fs1   v127
        BYTE           N05     Dn1   v090
        BYTE           N05     En1   v127
        BYTE           N05     Gn0
        BYTE   W06
        BYTE                   Fs1   v090
        BYTE   W06
        BYTE                   As1   v112
        BYTE   W06
        BYTE                   Fs1   v075
        BYTE           N05     Bn0   v127
        BYTE           N05     Cn1   v080
        BYTE   W06
        BYTE                   Fs1   v123
        BYTE   W06
        BYTE                   Fs1   v086
        BYTE   W06
        BYTE                   Bn0   v127
        BYTE           N05     Cn1   v080
        BYTE           N05     Fs1   v127
        BYTE   W06
        BYTE                   As1   v090
        BYTE   W06
        BYTE                   Dn1
        BYTE           N05     Fs1   v109
        BYTE           N05     Gn0   v127
        BYTE           N05     As0   v090
        BYTE           N05     En1   v127
        BYTE   W06
        BYTE                   Fs1   v072
        BYTE   W06
        BYTE                   As1   v105
        BYTE   W06
        BYTE                   Fs1   v068
        BYTE   W06
// 040   ----------------------------------------
        BYTE                   Cn1   v080
        BYTE           N05     Fs1   v127
        BYTE           N05     Bn0
        BYTE   W06
        BYTE                   Fs1   v090
        BYTE   W06
        BYTE                   As1   v112
        BYTE   W06
        BYTE                   Fs1   v075
        BYTE   W06
        BYTE                   Dn1   v090
        BYTE           N05     En1   v127
        BYTE           N05     Gn0
        BYTE           N05     As0   v090
        BYTE           N05     Fs1   v127
        BYTE   W06
        BYTE                   Fs1   v090
        BYTE   W06
        BYTE                   As1   v112
        BYTE   W06
        BYTE                   Bn0   v127
        BYTE           N05     Fs1   v075
        BYTE           N05     Cn1   v080
        BYTE   W06
        BYTE                   Fs1   v123
        BYTE   W06
        BYTE                   Fs1   v086
        BYTE   W06
        BYTE                   Bn0   v127
        BYTE           N05     Fs1
        BYTE           N05     Cn1   v080
        BYTE   W06
        BYTE                   As1   v090
        BYTE   W06
        BYTE                   Gn0   v127
        BYTE           N05     As0   v090
        BYTE           N05     Dn1
        BYTE           N05     Fs1   v109
        BYTE           N05     En1   v127
        BYTE   W06
        BYTE                   Fs1   v072
        BYTE   W06
        BYTE                   As1   v105
        BYTE   W06
        BYTE                   Fs1   v068
        BYTE   W06
// 041   ----------------------------------------
        BYTE                   Bn0   v127
        BYTE           N05     Fs1
        BYTE           N05     Cn1   v080
        BYTE   W06
        BYTE                   Fs1   v090
        BYTE   W06
        BYTE                   As1   v112
        BYTE   W06
        BYTE                   Fs1   v075
        BYTE   W06
        BYTE                   Fs1   v127
        BYTE           N05     As0   v090
        BYTE           N05     Dn1
        BYTE           N05     En1   v127
        BYTE           N05     Gn0
        BYTE   W06
        BYTE                   Fs1   v090
        BYTE   W06
        BYTE                   As1   v112
        BYTE   W06
        BYTE                   Fs1   v075
        BYTE           N05     Bn0   v127
        BYTE           N05     Cn1   v080
        BYTE   W06
        BYTE                   Fs1   v123
        BYTE   W06
        BYTE                   Fs1   v086
        BYTE   W06
        BYTE                   Bn0   v127
        BYTE           N05     Fs1
        BYTE           N05     Cn1   v080
        BYTE   W06
        BYTE                   As1   v090
        BYTE   W06
        BYTE                   Dn1
        BYTE           N05     As0
        BYTE           N05     Fs1   v109
        BYTE           N05     En1   v127
        BYTE           N05     Gn0
        BYTE   W06
        BYTE                   Fs1   v072
        BYTE   W06
        BYTE                   As1   v105
        BYTE   W06
        BYTE                   Fs1   v068
        BYTE   W06
// 042   ----------------------------------------
        BYTE                   Cn1   v080
        BYTE           N05     Fs1   v127
        BYTE           N05     Bn0
        BYTE   W06
        BYTE                   Fs1   v090
        BYTE   W06
        BYTE                   As1   v112
        BYTE   W06
        BYTE                   Fs1   v075
        BYTE   W06
        BYTE                   En1   v127
        BYTE           N05     Gn0
        BYTE           N05     As0   v090
        BYTE           N05     Dn1
        BYTE           N05     Fs1   v127
        BYTE   W06
        BYTE                   Fs1   v090
        BYTE   W06
        BYTE                   As1   v112
        BYTE   W06
        BYTE                   Bn0   v127
        BYTE           N05     Cn1   v080
        BYTE           N05     Fs1   v075
        BYTE   W06
        BYTE                   Fs1   v123
        BYTE   W06
        BYTE                   Fs1   v086
        BYTE   W06
        BYTE                   Bn0   v127
        BYTE           N05     Cn1   v080
        BYTE           N05     Fs1   v127
        BYTE   W06
        BYTE                   As1   v090
        BYTE   W06
        BYTE                   Fs1   v109
        BYTE           N05     Dn1   v090
        BYTE           N05     Gn0   v127
        BYTE           N05     As0   v090
        BYTE           N05     En1   v127
        BYTE   W06
        BYTE                   Fs1   v072
        BYTE   W06
        BYTE                   As1   v105
        BYTE   W06
        BYTE                   Fs1   v068
        BYTE   W06
// 043   ----------------------------------------
        BYTE                   Bn0   v127
        BYTE           N05     Cn1   v080
        BYTE           N05     Fs1   v127
        BYTE   W06
        BYTE                   Fs1   v090
        BYTE   W06
        BYTE                   As1   v112
        BYTE   W06
        BYTE                   Fs1   v075
        BYTE   W06
        BYTE                   En1   v127
        BYTE           N05     Fs1
        BYTE           N05     Dn1   v090
        BYTE           N05     As0
        BYTE           N05     Gn0   v127
        BYTE   W06
        BYTE                   Fs1   v090
        BYTE   W06
        BYTE                   As1   v112
        BYTE   W06
        BYTE                   Bn0   v127
        BYTE           N05     Cn1   v080
        BYTE           N05     Fs1   v075
        BYTE   W06
        BYTE                   Fs1   v123
        BYTE   W06
        BYTE                   Fs1   v086
        BYTE   W06
        BYTE                   Cn1   v080
        BYTE           N05     Fs1   v127
        BYTE           N05     Bn0
        BYTE   W06
        BYTE                   As1   v090
        BYTE   W06
        BYTE                   En1   v127
        BYTE           N05     As0   v090
        BYTE           N05     Gn0   v127
        BYTE           N05     Fs1   v109
        BYTE           N05     Dn1   v090
        BYTE   W06
        BYTE                   Fs1   v072
        BYTE   W06
        BYTE                   As1   v105
        BYTE   W06
        BYTE                   Fs1   v068
        BYTE   W06
// 044   ----------------------------------------
        BYTE                   Fs1   v127
        BYTE           N05     Bn0
        BYTE           N05     Cn1   v080
        BYTE   W06
        BYTE                   Fs1   v090
        BYTE   W06
        BYTE                   As1   v112
        BYTE   W06
        BYTE                   Fs1   v075
        BYTE   W06
        BYTE                   Gn0   v127
        BYTE           N05     En1
        BYTE           N05     Dn1   v090
        BYTE           N05     Fs1   v127
        BYTE           N05     As0   v090
        BYTE   W06
        BYTE                   Fs1
        BYTE   W06
        BYTE                   As1   v112
        BYTE   W06
        BYTE                   Fs1   v075
        BYTE           N05     Cn1   v080
        BYTE           N05     Bn0   v127
        BYTE   W06
        BYTE                   Fs1   v123
        BYTE   W06
        BYTE                   Fs1   v086
        BYTE   W06
        BYTE                   Bn0   v127
        BYTE           N05     Fs1
        BYTE           N05     Cn1   v080
        BYTE   W06
        BYTE                   As1   v090
        BYTE   W06
        BYTE                   Gn0   v127
        BYTE           N05     En1
        BYTE           N05     Fs1   v109
        BYTE           N05     As0   v090
        BYTE           N05     Dn1
        BYTE   W06
        BYTE                   Fs1   v072
        BYTE   W06
        BYTE                   As1   v105
        BYTE   W06
        BYTE                   Fs1   v068
        BYTE   W06
// 045   ----------------------------------------
        BYTE                   Fs1   v127
        BYTE           N05     Cn1   v080
        BYTE           N05     Bn0   v127
        BYTE   W06
        BYTE                   Fs1   v090
        BYTE   W06
        BYTE                   As1   v112
        BYTE   W06
        BYTE                   Fs1   v075
        BYTE   W06
        BYTE                   En1   v127
        BYTE           N05     Gn0
        BYTE           N05     Dn1   v090
        BYTE           N05     As0
        BYTE           N05     Fs1   v127
        BYTE   W06
        BYTE                   Fs1   v090
        BYTE   W06
        BYTE                   As1   v112
        BYTE   W06
        BYTE                   Bn0   v127
        BYTE           N05     Cn1   v080
        BYTE           N05     Fs1   v075
        BYTE   W06
        BYTE                   Fs1   v123
        BYTE   W06
        BYTE                   Fs1   v086
        BYTE   W06
        BYTE                   Bn0   v127
        BYTE           N05     Cn1   v080
        BYTE           N05     Fs1   v127
        BYTE   W06
        BYTE                   As1   v090
        BYTE   W06
        BYTE                   Fs1   v109
        BYTE           N05     As0   v090
        BYTE           N05     Dn1
        BYTE           N05     En1   v127
        BYTE           N05     Gn0
        BYTE   W06
        BYTE                   Fs1   v072
        BYTE   W06
        BYTE                   As1   v105
        BYTE   W06
        BYTE                   Fs1   v068
        BYTE   W06
// 046   ----------------------------------------
        BYTE                   Fs1   v127
        BYTE           N05     Cn1   v080
        BYTE           N05     Bn0   v127
        BYTE   W06
        BYTE                   Fs1   v090
        BYTE   W06
        BYTE                   As1   v112
        BYTE   W06
        BYTE                   Fs1   v075
        BYTE   W06
        BYTE                   As0   v090
        BYTE           N05     Gn0   v127
        BYTE           N05     Fs1
        BYTE           N05     Dn1   v090
        BYTE           N05     En1   v127
        BYTE   W06
        BYTE                   Fs1   v090
        BYTE   W06
        BYTE                   As1   v112
        BYTE   W06
        BYTE                   Fs1   v075
        BYTE           N05     Cn1   v080
        BYTE           N05     Bn0   v127
        BYTE   W06
        BYTE                   Fs1   v123
        BYTE   W06
        BYTE                   Fs1   v086
        BYTE   W06
        BYTE                   Fs1   v127
        BYTE           N05     Bn0
        BYTE           N05     Cn1   v080
        BYTE   W06
        BYTE                   As1   v090
        BYTE   W06
        BYTE                   En1   v127
        BYTE           N05     As0   v090
        BYTE           N05     Dn1
        BYTE           N05     Fs1   v109
        BYTE           N05     Gn0   v127
        BYTE   W06
        BYTE                   Fs1   v072
        BYTE   W06
        BYTE                   As1   v105
        BYTE   W06
        BYTE                   Fs1   v068
        BYTE   W06
// 047   ----------------------------------------
        BYTE                   Fs1   v127
        BYTE           N05     Cn1   v080
        BYTE           N05     Bn0   v127
        BYTE   W06
        BYTE                   Fs1   v090
        BYTE   W06
        BYTE                   As1   v112
        BYTE   W06
        BYTE                   Fs1   v075
        BYTE   W06
        BYTE                   Dn1   v090
        BYTE           N05     Fs1   v127
        BYTE           N05     En1
        BYTE           N05     As0   v090
        BYTE           N05     Gn0   v127
        BYTE   W06
        BYTE                   Fs1   v090
        BYTE   W06
        BYTE                   As1   v112
        BYTE   W06
        BYTE                   Cn1   v080
        BYTE           N05     Fs1   v075
        BYTE           N05     Bn0   v127
        BYTE   W06
        BYTE                   Fs1   v123
        BYTE   W06
        BYTE                   Fs1   v086
        BYTE   W06
        BYTE                   Cn1   v080
        BYTE           N05     Fs1   v127
        BYTE           N05     Bn0
        BYTE   W06
        BYTE                   As1   v090
        BYTE   W06
        BYTE                   Fs1   v109
        BYTE           N05     En1   v127
        BYTE           N05     Dn1   v090
        BYTE           N05     As0
        BYTE           N05     Gn0   v127
        BYTE   W06
        BYTE                   Fs1   v072
        BYTE   W06
        BYTE                   As1   v105
        BYTE   W06
        BYTE                   Fs1   v068
        BYTE   W06
// 048   ----------------------------------------
        BYTE                   As0   v090
        BYTE           N05     Cs2   v127
        BYTE           N05     Dn1   v090
        BYTE           N05     Fs1   v127
        BYTE           N05     En1
        BYTE           N05     Gn0
        BYTE   W06
        BYTE                   Fs1   v090
        BYTE   W06
        BYTE                   Gn0
        BYTE           N05     Dn1   v053
        BYTE           N05     As0
        BYTE           N05     Fs1   v112
        BYTE           N05     En1   v090
        BYTE   W06
        BYTE                   Fs1   v075
        BYTE   W06
        BYTE                   Gn0   v065
        BYTE           N05     En1
        BYTE           N05     As0   v028
        BYTE           N05     Dn1
        BYTE           N05     Fs1   v127
        BYTE   W06
        BYTE                   Fs1   v090
        BYTE   W06
        BYTE                   Gn0   v034
        BYTE           N05     En1
        BYTE           N05     As0   v001
        BYTE           N05     Dn1
        BYTE           N05     Fs1   v112
        BYTE   W06
        BYTE                   Fs1   v075
        BYTE   W06
        BYTE                   Dn1   v001
        BYTE           N05     As0
        BYTE           N05     Gn0   v020
        BYTE           N05     En1
        BYTE           N05     Fs1   v123
        BYTE   W06
        BYTE                   Fs1   v086
        BYTE   W06
        BYTE                   Fs1   v127
        BYTE   W06
        BYTE                   Fs1   v090
        BYTE   W06
        BYTE                   Fs1   v127
        BYTE   W06
        BYTE                   Fs1   v090
        BYTE   W06
        BYTE                   Fs1   v112
        BYTE   W06
        BYTE                   Fs1   v075
        BYTE   W06
// 049   ----------------------------------------
        BYTE                   Dn1   v090
        BYTE           N05     En1   v127
        BYTE           N05     Gn2
        BYTE           N05     Gn0
        BYTE           N05     Fs1
        BYTE           N05     As0   v090
        BYTE   W06
        BYTE                   Gn0   v127
        BYTE           N05     As0   v090
        BYTE           N05     Fs1
        BYTE           N05     Dn1
        BYTE           N05     En1   v127
        BYTE   W06
        BYTE                   Cn1   v080
        BYTE           N05     Fs1   v112
        BYTE           N05     Bn0   v127
        BYTE   W06
        BYTE                   As0   v090
        BYTE           N05     En1   v127
        BYTE           N05     Gn0
        BYTE           N05     Dn1   v090
        BYTE           N05     Fs1   v075
        BYTE           N05     An2   v127
        BYTE   W06
        BYTE                   Fs1   v123
        BYTE   W06
        BYTE                   Fs1   v086
        BYTE   W06
        BYTE                   Fs1   v127
        BYTE   W06
        BYTE                   En1   v065
        BYTE           N05     Gn0
        BYTE           N05     As0   v028
        BYTE           N05     Dn1
        BYTE           N05     Fs1   v090
        BYTE   W06
        BYTE                   As0
        BYTE           N05     En1   v127
        BYTE           N05     Gn0
        BYTE           N05     Fs1   v109
        BYTE           N05     Dn1   v090
        BYTE   W06
        BYTE                   Fs1   v072
        BYTE           N05     Dn1   v001
        BYTE           N05     En1   v034
        BYTE           N05     As0   v001
        BYTE           N05     Gn0   v034
        BYTE   W06
        BYTE                   Dn1   v090
        BYTE           N05     En1   v127
        BYTE           N05     As0   v090
        BYTE           N05     Gn0   v127
        BYTE           N05     Fs1   v105
        BYTE   W06
        BYTE                   En1   v065
        BYTE           N05     Gn0
        BYTE           N05     Dn1   v028
        BYTE           N05     As0
        BYTE           N05     Fs1   v068
        BYTE   W06
// 050   ----------------------------------------
Plantation_Crash_Zone66_Song_14_LOOP:
        BYTE           N05     Cn1   v080
        BYTE           N05     Cs2   v123
        BYTE           N05     Fs1   v127
        BYTE           N05     Bn0
        BYTE   W06
        BYTE                   Fs1   v090
        BYTE   W06
        BYTE                   As1   v112
        BYTE   W06
        BYTE                   Fs1   v075
        BYTE   W06
        BYTE                   Gn0   v127
        BYTE           N05     Fs1
        BYTE           N05     En1
        BYTE           N05     Dn1   v090
        BYTE           N05     As0
        BYTE   W06
        BYTE                   Fs1
        BYTE   W06
        BYTE                   As1   v112
        BYTE   W06
        BYTE                   Fs1   v075
        BYTE           N05     Cn1   v080
        BYTE           N05     Bn0   v127
        BYTE   W06
        BYTE                   Fs1   v123
        BYTE   W06
        BYTE                   Fs1   v086
        BYTE   W06
        BYTE                   Fs1   v127
        BYTE           N05     Bn0
        BYTE           N05     Cn1   v080
        BYTE   W06
        BYTE                   As1   v090
        BYTE   W06
        BYTE                   Fs1   v109
        BYTE           N05     En1   v127
        BYTE           N05     As0   v090
        BYTE           N05     Dn1
        BYTE           N05     Gn0   v127
        BYTE   W06
        BYTE                   Fs1   v072
        BYTE   W06
        BYTE                   As1   v105
        BYTE   W06
        BYTE                   Fs1   v068
        BYTE   W06
// 051   ----------------------------------------
        BYTE                   Fs1   v127
        BYTE           N05     Bn0
        BYTE           N05     Cn1   v080
        BYTE   W06
        BYTE                   Fs1   v090
        BYTE   W06
        BYTE                   As1   v112
        BYTE   W06
        BYTE                   Fs1   v075
        BYTE   W06
        BYTE                   Fs1   v127
        BYTE           N05     Dn1   v090
        BYTE           N05     En1   v127
        BYTE           N05     Gn0
        BYTE           N05     As0   v090
        BYTE   W06
        BYTE                   Fs1
        BYTE   W06
        BYTE                   As1   v112
        BYTE   W06
        BYTE                   Bn0   v127
        BYTE           N05     Fs1   v075
        BYTE           N05     Cn1   v080
        BYTE   W06
        BYTE                   Fs1   v123
        BYTE   W06
        BYTE                   Fs1   v086
        BYTE   W06
        BYTE                   Fs1   v127
        BYTE           N05     Cn1   v080
        BYTE           N05     Bn0   v127
        BYTE   W06
        BYTE                   As1   v090
        BYTE   W06
        BYTE                   As0
        BYTE           N05     En1   v127
        BYTE           N05     Dn1   v090
        BYTE           N05     Fs1   v109
        BYTE           N05     Gn0   v127
        BYTE   W06
        BYTE                   Fs1   v072
        BYTE   W06
        BYTE                   As1   v105
        BYTE   W06
        BYTE                   Fs1   v068
        BYTE   W06
// 052   ----------------------------------------
        BYTE                   Cn1   v080
        BYTE           N05     Fs1   v127
        BYTE           N05     Bn0
        BYTE   W06
        BYTE                   Fs1   v090
        BYTE   W06
        BYTE                   As1   v112
        BYTE   W06
        BYTE                   Fs1   v075
        BYTE   W06
        BYTE                   En1   v127
        BYTE           N05     As0   v090
        BYTE           N05     Dn1
        BYTE           N05     Fs1   v127
        BYTE           N05     Gn0
        BYTE   W06
        BYTE                   Fs1   v090
        BYTE   W06
        BYTE                   As1   v112
        BYTE   W06
        BYTE                   Fs1   v075
        BYTE           N05     Bn0   v127
        BYTE           N05     Cn1   v080
        BYTE   W06
        BYTE                   Fs1   v123
        BYTE   W06
        BYTE                   Fs1   v086
        BYTE   W06
        BYTE                   Cn1   v080
        BYTE           N05     Fs1   v127
        BYTE           N05     Bn0
        BYTE   W06
        BYTE                   As1   v090
        BYTE   W06
        BYTE                   Fs1   v109
        BYTE           N05     Gn0   v127
        BYTE           N05     En1
        BYTE           N05     As0   v090
        BYTE           N05     Dn1
        BYTE   W06
        BYTE                   Fs1   v072
        BYTE   W06
        BYTE                   As1   v105
        BYTE   W06
        BYTE                   Fs1   v068
        BYTE   W06
// 053   ----------------------------------------
        BYTE                   Cn1   v080
        BYTE           N05     Bn0   v127
        BYTE           N05     Fs1
        BYTE   W06
        BYTE                   Fs1   v090
        BYTE   W06
        BYTE                   As1   v112
        BYTE   W06
        BYTE                   Fs1   v075
        BYTE   W06
        BYTE                   En1   v127
        BYTE           N05     As0   v090
        BYTE           N05     Gn0   v127
        BYTE           N05     Dn1   v090
        BYTE           N05     Fs1   v127
        BYTE   W06
        BYTE                   Fs1   v090
        BYTE   W06
        BYTE                   As1   v112
        BYTE   W06
        BYTE                   Bn0   v127
        BYTE           N05     Cn1   v080
        BYTE           N05     Fs1   v075
        BYTE   W06
        BYTE                   Fs1   v123
        BYTE   W06
        BYTE                   Fs1   v086
        BYTE   W06
        BYTE                   Fs1   v127
        BYTE           N05     Bn0
        BYTE           N05     Cn1   v080
        BYTE   W06
        BYTE                   As1   v090
        BYTE   W06
        BYTE                   Gn0   v127
        BYTE           N05     As0   v090
        BYTE           N05     Fs1   v109
        BYTE           N05     Dn1   v090
        BYTE           N05     En1   v127
        BYTE   W06
        BYTE                   Fs1   v072
        BYTE   W06
        BYTE                   As1   v105
        BYTE   W06
        BYTE                   Fs1   v068
        BYTE   W06
// 054   ----------------------------------------
        BYTE                   Cs2   v123
        BYTE           N05     Fs1   v127
        BYTE           N05     Bn0
        BYTE           N05     Cn1   v080
        BYTE   W06
        BYTE                   Fs1   v090
        BYTE   W06
        BYTE                   As1   v112
        BYTE   W06
        BYTE                   Fs1   v075
        BYTE   W06
        BYTE                   Fs1   v127
        BYTE           N05     As0   v090
        BYTE           N05     Dn1
        BYTE           N05     Gn0   v127
        BYTE           N05     En1
        BYTE   W06
        BYTE                   Fs1   v090
        BYTE   W06
        BYTE                   As1   v112
        BYTE   W06
        BYTE                   Fs1   v075
        BYTE           N05     Bn0   v127
        BYTE           N05     Cn1   v080
        BYTE   W06
        BYTE                   Fs1   v123
        BYTE   W06
        BYTE                   Fs1   v086
        BYTE   W06
        BYTE                   Bn0   v127
        BYTE           N05     Fs1
        BYTE           N05     Cn1   v080
        BYTE   W06
        BYTE                   As1   v090
        BYTE   W06
        BYTE                   Fs1   v109
        BYTE           N05     Gn0   v127
        BYTE           N05     As0   v090
        BYTE           N05     En1   v127
        BYTE           N05     Dn1   v090
        BYTE   W06
        BYTE                   Fs1   v072
        BYTE   W06
        BYTE                   As1   v105
        BYTE   W06
        BYTE                   Fs1   v068
        BYTE   W06
// 055   ----------------------------------------
        BYTE                   Bn0   v127
        BYTE           N05     Cn1   v080
        BYTE           N05     Fs1   v127
        BYTE   W06
        BYTE                   Fs1   v090
        BYTE   W06
        BYTE                   As1   v112
        BYTE   W06
        BYTE                   Fs1   v075
        BYTE   W06
        BYTE                   Fs1   v127
        BYTE           N05     Gn0
        BYTE           N05     As0   v090
        BYTE           N05     En1   v127
        BYTE           N05     Dn1   v090
        BYTE   W06
        BYTE                   Fs1
        BYTE   W06
        BYTE                   As1   v112
        BYTE   W06
        BYTE                   Fs1   v075
        BYTE           N05     Cn1   v080
        BYTE           N05     Bn0   v127
        BYTE   W06
        BYTE                   Fs1   v123
        BYTE   W06
        BYTE                   Fs1   v086
        BYTE   W06
        BYTE                   Bn0   v127
        BYTE           N05     Fs1
        BYTE           N05     Cn1   v080
        BYTE   W06
        BYTE                   As1   v090
        BYTE   W06
        BYTE                   Fs1   v109
        BYTE           N05     En1   v127
        BYTE           N05     As0   v090
        BYTE           N05     Dn1
        BYTE           N05     Gn0   v127
        BYTE   W06
        BYTE                   Fs1   v072
        BYTE   W06
        BYTE                   As1   v105
        BYTE   W06
        BYTE                   Fs1   v068
        BYTE   W06
// 056   ----------------------------------------
        BYTE                   Cn1   v080
        BYTE           N05     Fs1   v127
        BYTE           N05     Bn0
        BYTE   W06
        BYTE                   Fs1   v090
        BYTE   W06
        BYTE                   As1   v112
        BYTE   W06
        BYTE                   Fs1   v075
        BYTE   W06
        BYTE                   As0   v090
        BYTE           N05     En1   v127
        BYTE           N05     Dn1   v090
        BYTE           N05     Gn0   v127
        BYTE           N05     Fs1
        BYTE   W06
        BYTE                   Fs1   v090
        BYTE   W06
        BYTE                   As1   v112
        BYTE   W06
        BYTE                   Cn1   v080
        BYTE           N05     Bn0   v127
        BYTE           N05     Fs1   v075
        BYTE   W06
        BYTE                   Fs1   v123
        BYTE   W06
        BYTE                   Fs1   v086
        BYTE   W06
        BYTE                   Fs1   v127
        BYTE           N05     Cn1   v080
        BYTE           N05     Bn0   v127
        BYTE   W06
        BYTE                   As1   v090
        BYTE   W06
        BYTE                   As0
        BYTE           N05     En1   v127
        BYTE           N05     Dn1   v090
        BYTE           N05     Fs1   v109
        BYTE           N05     Gn0   v127
        BYTE   W06
        BYTE                   Fs1   v072
        BYTE   W06
        BYTE                   As1   v105
        BYTE   W06
        BYTE                   Fs1   v068
        BYTE   W06
// 057   ----------------------------------------
        BYTE                   Bn0   v127
        BYTE           N05     Cn1   v080
        BYTE           N05     Fs1   v127
        BYTE   W06
        BYTE                   Fs1   v090
        BYTE   W06
        BYTE                   As1   v112
        BYTE   W06
        BYTE                   Fs1   v075
        BYTE   W06
        BYTE                   Fs1   v127
        BYTE           N05     En1
        BYTE           N05     Dn1   v090
        BYTE           N05     As0
        BYTE           N05     Gn0   v127
        BYTE   W06
        BYTE                   Fs1   v090
        BYTE   W06
        BYTE                   As1   v112
        BYTE   W06
        BYTE                   Fs1   v075
        BYTE           N05     Bn0   v127
        BYTE           N05     Cn1   v080
        BYTE   W06
        BYTE                   Fs1   v123
        BYTE   W06
        BYTE                   Fs1   v086
        BYTE   W06
        BYTE                   Bn0   v127
        BYTE           N05     Cn1   v080
        BYTE           N05     Fs1   v127
        BYTE   W06
        BYTE                   As1   v090
        BYTE   W06
        BYTE                   Gn0   v127
        BYTE           N05     Fs1   v109
        BYTE           N05     As0   v090
        BYTE           N05     En1   v127
        BYTE           N05     Dn1   v090
        BYTE   W06
        BYTE                   Fs1   v072
        BYTE   W06
        BYTE                   As1   v105
        BYTE   W06
        BYTE                   Fs1   v068
        BYTE   W06
// 058   ----------------------------------------
        BYTE                   Cn1   v080
        BYTE           N05     Fs1   v127
        BYTE           N05     Bn0
        BYTE   W06
        BYTE                   Fs1   v090
        BYTE   W06
        BYTE                   As1   v112
        BYTE   W06
        BYTE                   Fs1   v075
        BYTE   W06
        BYTE                   Gn0   v127
        BYTE           N05     As0   v090
        BYTE           N05     Dn1
        BYTE           N05     En1   v127
        BYTE           N05     Fs1
        BYTE   W06
        BYTE                   Fs1   v090
        BYTE   W06
        BYTE                   As1   v112
        BYTE   W06
        BYTE                   Fs1   v075
        BYTE           N05     Cn1   v080
        BYTE           N05     Bn0   v127
        BYTE   W06
        BYTE                   Fs1   v123
        BYTE   W06
        BYTE                   Fs1   v086
        BYTE   W06
        BYTE                   Bn0   v127
        BYTE           N05     Fs1
        BYTE           N05     Cn1   v080
        BYTE   W06
        BYTE                   As1   v090
        BYTE   W06
        BYTE                   En1   v127
        BYTE           N05     Fs1   v109
        BYTE           N05     As0   v090
        BYTE           N05     Gn0   v127
        BYTE           N05     Dn1   v090
        BYTE   W06
        BYTE                   Fs1   v072
        BYTE   W06
        BYTE                   As1   v105
        BYTE   W06
        BYTE                   Fs1   v068
        BYTE   W06
// 059   ----------------------------------------
        BYTE                   Cn1   v080
        BYTE           N05     Fs1   v127
        BYTE           N05     Bn0
        BYTE   W06
        BYTE                   Fs1   v090
        BYTE   W06
        BYTE                   As1   v112
        BYTE   W06
        BYTE                   Fs1   v075
        BYTE   W06
        BYTE                   Fs1   v127
        BYTE           N05     En1
        BYTE           N05     As0   v090
        BYTE           N05     Gn0   v127
        BYTE           N05     Dn1   v090
        BYTE   W06
        BYTE                   Fs1
        BYTE   W06
        BYTE                   As1   v112
        BYTE   W06
        BYTE                   Bn0   v127
        BYTE           N05     Fs1   v075
        BYTE           N05     Cn1   v080
        BYTE   W06
        BYTE                   Fs1   v123
        BYTE   W06
        BYTE                   Fs1   v086
        BYTE   W06
        BYTE                   Fs1   v127
        BYTE           N05     Bn0
        BYTE           N05     Cn1   v080
        BYTE   W06
        BYTE                   As1   v090
        BYTE   W06
        BYTE                   Gn0   v127
        BYTE           N05     En1
        BYTE           N05     Dn1   v090
        BYTE           N05     As0
        BYTE           N05     Fs1   v109
        BYTE   W06
        BYTE                   Fs1   v072
        BYTE   W06
        BYTE                   As1   v105
        BYTE   W06
        BYTE                   Fs1   v068
        BYTE   W06
// 060   ----------------------------------------
        BYTE                   Cn1   v080
        BYTE           N05     Bn0   v127
        BYTE           N05     Fs1
        BYTE   W06
        BYTE                   Fs1   v090
        BYTE   W06
        BYTE                   As1   v112
        BYTE   W06
        BYTE                   Fs1   v075
        BYTE   W06
        BYTE                   Dn1   v090
        BYTE           N05     Fs1   v127
        BYTE           N05     En1
        BYTE           N05     As0   v090
        BYTE           N05     Gn0   v127
        BYTE   W06
        BYTE                   Fs1   v090
        BYTE   W06
        BYTE                   As1   v112
        BYTE   W06
        BYTE                   Cn1   v080
        BYTE           N05     Fs1   v075
        BYTE           N05     Bn0   v127
        BYTE   W06
        BYTE                   Fs1   v123
        BYTE   W06
        BYTE                   Fs1   v086
        BYTE   W06
        BYTE                   Bn0   v127
        BYTE           N05     Cn1   v080
        BYTE           N05     Fs1   v127
        BYTE   W06
        BYTE                   As1   v090
        BYTE   W06
        BYTE                   Dn1
        BYTE           N05     Gn0   v127
        BYTE           N05     En1
        BYTE           N05     As0   v090
        BYTE           N05     Fs1   v109
        BYTE   W06
        BYTE                   Fs1   v072
        BYTE   W06
        BYTE                   As1   v105
        BYTE   W06
        BYTE                   Fs1   v068
        BYTE           N05     Cn1   v080
        BYTE           N05     Bn0   v127
        BYTE   W06
// 061   ----------------------------------------
        BYTE                   Dn1   v090
        BYTE           N05     As0
        BYTE           N05     En1   v127
        BYTE           N05     Cs2   v123
        BYTE           N05     Gn0   v127
        BYTE   W72
        BYTE                   En1   v123
        BYTE           N05     Gn0
        BYTE           N05     As0   v086
        BYTE           N05     Dn1
        BYTE   W12
        BYTE                   Dn1   v090
        BYTE           N05     As0
        BYTE           N05     En1   v127
        BYTE           N05     Gn0
        BYTE   W06
        BYTE                   Gn0   v117
        BYTE           N05     As0   v080
        BYTE           N05     Dn1
        BYTE           N05     En1   v117
        BYTE   W06
// 062   ----------------------------------------
        BYTE                   Cn1   v080
        BYTE           N05     Bn0   v127
        BYTE           N05     Cs2   v123
        BYTE           N05     Fs1   v127
        BYTE   W06
        BYTE                   Fs1   v090
        BYTE   W06
        BYTE                   As1   v112
        BYTE   W06
        BYTE                   Fs1   v075
        BYTE   W06
        BYTE                   En1   v127
        BYTE           N05     As0   v090
        BYTE           N05     Fs1   v127
        BYTE           N05     Dn1   v090
        BYTE           N05     Gn0   v127
        BYTE   W06
        BYTE                   Fs1   v090
        BYTE   W06
        BYTE                   As1   v112
        BYTE   W06
        BYTE                   Bn0   v127
        BYTE           N05     Cn1   v080
        BYTE           N05     Fs1   v075
        BYTE   W06
        BYTE                   Fs1   v123
        BYTE   W06
        BYTE                   Fs1   v086
        BYTE   W06
        BYTE                   Fs1   v127
        BYTE           N05     Cn1   v080
        BYTE           N05     Bn0   v127
        BYTE   W06
        BYTE                   As1   v090
        BYTE   W06
        BYTE                   As0
        BYTE           N05     Dn1
        BYTE           N05     Gn0   v127
        BYTE           N05     Fs1   v109
        BYTE           N05     En1   v127
        BYTE   W06
        BYTE                   Fs1   v072
        BYTE   W06
        BYTE                   As1   v105
        BYTE   W06
        BYTE                   Fs1   v068
        BYTE   W06
// 063   ----------------------------------------
        BYTE                   Bn0   v127
        BYTE           N05     Cn1   v080
        BYTE           N05     Fs1   v127
        BYTE   W06
        BYTE                   Fs1   v090
        BYTE   W06
        BYTE                   As1   v112
        BYTE   W06
        BYTE                   Fs1   v075
        BYTE   W06
        BYTE                   As0   v090
        BYTE           N05     Dn1
        BYTE           N05     En1   v127
        BYTE           N05     Gn0
        BYTE           N05     Fs1
        BYTE   W06
        BYTE                   Fs1   v090
        BYTE   W06
        BYTE                   As1   v112
        BYTE   W06
        BYTE                   Bn0   v127
        BYTE           N05     Fs1   v075
        BYTE           N05     Cn1   v080
        BYTE   W06
        BYTE                   Fs1   v123
        BYTE   W06
        BYTE                   Fs1   v086
        BYTE   W06
        BYTE                   Fs1   v127
        BYTE           N05     Cn1   v080
        BYTE           N05     Bn0   v127
        BYTE   W06
        BYTE                   As1   v090
        BYTE   W06
        BYTE                   As0
        BYTE           N05     Fs1   v109
        BYTE           N05     Dn1   v090
        BYTE           N05     En1   v127
        BYTE           N05     Gn0
        BYTE   W06
        BYTE                   Fs1   v072
        BYTE   W06
        BYTE                   As1   v105
        BYTE   W06
        BYTE                   Fs1   v068
        BYTE   W06
// 064   ----------------------------------------
        BYTE                   Bn0   v127
        BYTE           N05     Cn1   v080
        BYTE           N05     Fs1   v127
        BYTE           N05     Cs2   v123
        BYTE   W06
        BYTE                   Fs1   v090
        BYTE   W06
        BYTE                   As1   v112
        BYTE   W06
        BYTE                   Fs1   v075
        BYTE   W06
        BYTE                   En1   v127
        BYTE           N05     Dn1   v090
        BYTE           N05     As0
        BYTE           N05     Gn0   v127
        BYTE           N05     Fs1
        BYTE   W06
        BYTE                   Fs1   v090
        BYTE   W06
        BYTE                   As1   v112
        BYTE   W06
        BYTE                   Cn1   v080
        BYTE           N05     Bn0   v127
        BYTE           N05     Fs1   v075
        BYTE   W06
        BYTE                   Fs1   v123
        BYTE   W06
        BYTE                   Fs1   v086
        BYTE   W06
        BYTE                   Fs1   v127
        BYTE           N05     Cn1   v080
        BYTE           N05     Bn0   v127
        BYTE   W06
        BYTE                   As1   v090
        BYTE   W06
        BYTE                   Dn1
        BYTE           N05     Gn0   v127
        BYTE           N05     Fs1   v109
        BYTE           N05     En1   v127
        BYTE           N05     As0   v090
        BYTE   W06
        BYTE                   Fs1   v072
        BYTE   W06
        BYTE                   As1   v105
        BYTE   W06
        BYTE                   Fs1   v068
        BYTE   W06
// 065   ----------------------------------------
        BYTE                   Bn0   v127
        BYTE           N05     Fs1
        BYTE           N05     Cn1   v080
        BYTE   W06
        BYTE                   Fs1   v090
        BYTE   W06
        BYTE                   As1   v112
        BYTE   W06
        BYTE                   Fs1   v075
        BYTE   W06
        BYTE                   Dn1   v090
        BYTE           N05     As0
        BYTE           N05     En1   v127
        BYTE           N05     Fs1
        BYTE           N05     Gn0
        BYTE   W06
        BYTE                   Fs1   v090
        BYTE   W06
        BYTE                   As1   v112
        BYTE   W06
        BYTE                   Fs1   v075
        BYTE           N05     Bn0   v127
        BYTE           N05     Cn1   v080
        BYTE   W06
        BYTE                   Fs1   v123
        BYTE   W06
        BYTE                   Fs1   v086
        BYTE   W06
        BYTE                   Cn1   v080
        BYTE           N05     Bn0   v127
        BYTE           N05     Fs1
        BYTE   W06
        BYTE                   As1   v090
        BYTE   W06
        BYTE                   As0
        BYTE           N05     Dn1
        BYTE           N05     En1   v127
        BYTE           N05     Fs1   v109
        BYTE           N05     Gn0   v127
        BYTE   W06
        BYTE                   Fs1   v072
        BYTE   W06
        BYTE                   En1   v127
        BYTE           N05     Dn1   v090
        BYTE           N05     Gn0   v127
        BYTE           N05     As0   v090
        BYTE           N05     As1   v105
        BYTE   W06
        BYTE                   Gn0   v127
        BYTE           N05     Dn1   v090
        BYTE           N05     En1   v127
        BYTE           N05     Fs1   v068
        BYTE           N05     As0   v090
        BYTE   W06
// 066   ----------------------------------------
        BYTE                   Fs1   v127
        BYTE           N05     Cs2   v123
        BYTE           N05     Bn0   v127
        BYTE           N05     Cn1   v080
        BYTE   W06
        BYTE                   Fs1   v090
        BYTE   W06
        BYTE                   As1   v112
        BYTE   W06
        BYTE                   Fs1   v075
        BYTE   W06
        BYTE                   Dn1   v090
        BYTE           N05     Gn0   v127
        BYTE           N05     En1
        BYTE           N05     Fs1
        BYTE           N05     As0   v090
        BYTE   W06
        BYTE                   Fs1
        BYTE   W06
        BYTE                   As1   v112
        BYTE   W06
        BYTE                   Cn1   v080
        BYTE           N05     Fs1   v075
        BYTE           N05     Bn0   v127
        BYTE   W06
        BYTE                   Fs1   v123
        BYTE   W06
        BYTE                   Fs1   v086
        BYTE   W06
        BYTE                   Cn1   v080
        BYTE           N05     Fs1   v127
        BYTE           N05     Bn0
        BYTE   W06
        BYTE                   As1   v090
        BYTE   W06
        BYTE                   Fs1   v109
        BYTE           N05     En1   v127
        BYTE           N05     As0   v090
        BYTE           N05     Gn0   v127
        BYTE           N05     Dn1   v090
        BYTE   W06
        BYTE                   Fs1   v072
        BYTE   W06
        BYTE                   As1   v105
        BYTE   W06
        BYTE                   Fs1   v068
        BYTE   W06
// 067   ----------------------------------------
        BYTE                   Cn1   v080
        BYTE           N05     Bn0   v127
        BYTE           N05     Fs1
        BYTE   W06
        BYTE                   Fs1   v090
        BYTE   W06
        BYTE                   As1   v112
        BYTE   W06
        BYTE                   Fs1   v075
        BYTE   W06
        BYTE                   Gn0   v127
        BYTE           N05     Fs1
        BYTE           N05     En1
        BYTE           N05     As0   v090
        BYTE           N05     Dn1
        BYTE   W06
        BYTE                   Fs1
        BYTE   W06
        BYTE                   As1   v112
        BYTE   W06
        BYTE                   Bn0   v127
        BYTE           N05     Cn1   v080
        BYTE           N05     Fs1   v075
        BYTE   W06
        BYTE                   Fs1   v123
        BYTE   W06
        BYTE                   Fs1   v086
        BYTE   W06
        BYTE                   Fs1   v127
        BYTE           N05     Cn1   v080
        BYTE           N05     Bn0   v127
        BYTE   W06
        BYTE                   As1   v090
        BYTE   W06
        BYTE                   Dn1
        BYTE           N05     En1   v127
        BYTE           N05     As0   v090
        BYTE           N05     Fs1   v109
        BYTE           N05     Gn0   v127
        BYTE   W06
        BYTE                   Fs1   v072
        BYTE   W06
        BYTE                   As1   v105
        BYTE   W06
        BYTE                   Fs1   v068
        BYTE   W06
// 068   ----------------------------------------
        BYTE                   Fs1   v127
        BYTE           N05     Bn0
        BYTE           N05     Cn1   v080
        BYTE   W06
        BYTE                   Fs1   v090
        BYTE   W06
        BYTE                   As1   v112
        BYTE   W06
        BYTE                   Fs1   v075
        BYTE   W06
        BYTE                   En1   v127
        BYTE           N05     Gn0
        BYTE           N05     Fs1
        BYTE           N05     Dn1   v090
        BYTE           N05     As0
        BYTE   W06
        BYTE                   Fs1
        BYTE   W06
        BYTE                   As1   v112
        BYTE   W06
        BYTE                   Fs1   v075
        BYTE           N05     Cn1   v080
        BYTE           N05     Bn0   v127
        BYTE   W06
        BYTE                   Fs1   v123
        BYTE   W06
        BYTE                   Fs1   v086
        BYTE   W06
        BYTE                   Cn1   v080
        BYTE           N05     Fs1   v127
        BYTE           N05     Bn0
        BYTE   W06
        BYTE                   As1   v090
        BYTE   W06
        BYTE                   As0
        BYTE           N05     En1   v127
        BYTE           N05     Fs1   v109
        BYTE           N05     Dn1   v090
        BYTE           N05     Gn0   v127
        BYTE   W06
        BYTE                   Fs1   v072
        BYTE   W06
        BYTE                   As1   v105
        BYTE   W06
        BYTE                   Fs1   v068
        BYTE           N05     Cn1   v080
        BYTE           N05     Bn0   v127
        BYTE   W06
// 069   ----------------------------------------
        BYTE                   Dn1   v090
        BYTE           N05     En1   v127
        BYTE           N05     As0   v090
        BYTE           N05     Cs2   v123
        BYTE           N05     Gn0   v127
        BYTE           N05     Fs1
        BYTE   W06
        BYTE                   Fs1   v090
        BYTE   W06
        BYTE                   Fs1   v112
        BYTE   W06
        BYTE                   Fs1   v075
        BYTE   W06
        BYTE                   Bn0   v127
        BYTE           N05     Fs1
        BYTE           N05     Cn1   v080
        BYTE   W06
        BYTE                   Fs1   v090
        BYTE   W06
        BYTE                   Fs1   v112
        BYTE   W06
        BYTE                   Fs1   v075
        BYTE   W06
        BYTE                   Bn0   v127
        BYTE           N05     Cn1   v080
        BYTE           N05     Fs1   v123
        BYTE   W06
        BYTE                   Fs1   v086
        BYTE   W06
        BYTE                   Fs1   v127
        BYTE   W06
        BYTE                   Fs1   v090
        BYTE   W06
        BYTE                   Dn1   v086
        BYTE           N05     En1   v123
        BYTE           N05     As0   v086
        BYTE           N05     Fs1   v109
        BYTE           N05     Gn0   v123
        BYTE   W06
        BYTE                   Fs1   v072
        BYTE   W06
        BYTE                   Fs1   v105
        BYTE   W06
        BYTE                   Fs1   v068
        BYTE   W06
// 070   ----------------------------------------
        BYTE                   Cn1   v080
        BYTE           N05     Fs1   v127
        BYTE           N05     Bn0
        BYTE   W06
        BYTE                   Fs1   v090
        BYTE   W06
        BYTE                   As1   v112
        BYTE   W06
        BYTE                   Fs1   v075
        BYTE   W06
        BYTE                   Dn1   v090
        BYTE           N05     Gn0   v127
        BYTE           N05     Fs1
        BYTE           N05     As0   v090
        BYTE           N05     En1   v127
        BYTE   W06
        BYTE                   Fs1   v090
        BYTE   W06
        BYTE                   As1   v112
        BYTE   W06
        BYTE                   Cn1   v080
        BYTE           N05     Bn0   v127
        BYTE           N05     Fs1   v075
        BYTE   W06
        BYTE                   Fs1   v123
        BYTE   W06
        BYTE                   Fs1   v086
        BYTE   W06
        BYTE                   Fs1   v127
        BYTE           N05     Cn1   v080
        BYTE           N05     Bn0   v127
        BYTE   W06
        BYTE                   As1   v090
        BYTE   W06
        BYTE                   En1   v127
        BYTE           N05     Fs1   v109
        BYTE           N05     Gn0   v127
        BYTE           N05     Dn1   v090
        BYTE           N05     As0
        BYTE   W06
        BYTE                   Fs1   v072
        BYTE   W06
        BYTE                   As1   v105
        BYTE   W06
        BYTE                   Fs1   v068
        BYTE   W06
// 071   ----------------------------------------
        BYTE                   Cn1   v080
        BYTE           N05     Bn0   v127
        BYTE           N05     Fs1
        BYTE   W06
        BYTE                   Fs1   v090
        BYTE   W06
        BYTE                   As1   v112
        BYTE   W06
        BYTE                   Fs1   v075
        BYTE   W06
        BYTE                   Gn0   v127
        BYTE           N05     Dn1   v090
        BYTE           N05     En1   v127
        BYTE           N05     As0   v090
        BYTE           N05     Fs1   v127
        BYTE   W06
        BYTE                   Fs1   v090
        BYTE   W06
        BYTE                   As1   v112
        BYTE   W06
        BYTE                   Cn1   v080
        BYTE           N05     Bn0   v127
        BYTE           N05     Fs1   v075
        BYTE   W06
        BYTE                   Fs1   v123
        BYTE   W06
        BYTE                   Fs1   v086
        BYTE   W06
        BYTE                   Bn0   v127
        BYTE           N05     Cn1   v080
        BYTE           N05     Fs1   v127
        BYTE   W06
        BYTE                   As1   v090
        BYTE   W06
        BYTE                   As0
        BYTE           N05     En1   v127
        BYTE           N05     Dn1   v090
        BYTE           N05     Fs1   v109
        BYTE           N05     Gn0   v127
        BYTE   W06
        BYTE                   Fs1   v072
        BYTE   W06
        BYTE                   As1   v105
        BYTE   W06
        BYTE                   Fs1   v068
        BYTE   W06
// 072   ----------------------------------------
        BYTE                   Bn0   v127
        BYTE           N05     Cn1   v080
        BYTE           N05     Fs1   v127
        BYTE   W06
        BYTE                   Fs1   v090
        BYTE   W06
        BYTE                   As1   v112
        BYTE   W06
        BYTE                   Fs1   v075
        BYTE   W06
        BYTE                   Dn1   v090
        BYTE           N05     Gn0   v127
        BYTE           N05     As0   v090
        BYTE           N05     Fs1   v127
        BYTE           N05     En1
        BYTE   W06
        BYTE                   Fs1   v090
        BYTE   W06
        BYTE                   As1   v112
        BYTE   W06
        BYTE                   Bn0   v127
        BYTE           N05     Cn1   v080
        BYTE           N05     Fs1   v075
        BYTE   W06
        BYTE                   Fs1   v123
        BYTE   W06
        BYTE                   Fs1   v086
        BYTE   W06
        BYTE                   Fs1   v127
        BYTE           N05     Cn1   v080
        BYTE           N05     Bn0   v127
        BYTE   W06
        BYTE                   As1   v090
        BYTE   W06
        BYTE                   Fs1   v109
        BYTE           N05     Gn0   v127
        BYTE           N05     Dn1   v090
        BYTE           N05     En1   v127
        BYTE           N05     As0   v090
        BYTE   W06
        BYTE                   Fs1   v072
        BYTE   W06
        BYTE                   As1   v105
        BYTE   W06
        BYTE                   Fs1   v068
        BYTE   W06
// 073   ----------------------------------------
        BYTE                   Cn1   v080
        BYTE           N05     Fs1   v127
        BYTE           N05     Bn0
        BYTE   W06
        BYTE                   Fs1   v090
        BYTE   W06
        BYTE                   As1   v112
        BYTE   W06
        BYTE                   Fs1   v075
        BYTE   W06
        BYTE                   Gn0   v127
        BYTE           N05     Dn1   v090
        BYTE           N05     Fs1   v127
        BYTE           N05     En1
        BYTE           N05     As0   v090
        BYTE   W06
        BYTE                   Fs1
        BYTE   W06
        BYTE                   As1   v112
        BYTE   W06
        BYTE                   Bn0   v127
        BYTE           N05     Cn1   v080
        BYTE           N05     Fs1   v075
        BYTE   W06
        BYTE                   Fs1   v123
        BYTE   W06
        BYTE                   Fs1   v086
        BYTE   W06
        BYTE                   Cn1   v080
        BYTE           N05     Fs1   v127
        BYTE           N05     Bn0
        BYTE   W06
        BYTE                   As1   v090
        BYTE   W06
        BYTE                   Fs1   v109
        BYTE           N05     En1   v127
        BYTE           N05     As0   v090
        BYTE           N05     Gn0   v127
        BYTE           N05     Dn1   v090
        BYTE   W06
        BYTE                   Fs1   v072
        BYTE   W06
        BYTE                   As1   v105
        BYTE   W06
        BYTE                   Fs1   v068
        BYTE   W06
// 074   ----------------------------------------
        BYTE                   Fs1   v127
        BYTE           N05     Bn0
        BYTE           N05     Cn1   v080
        BYTE   W06
        BYTE                   Fs1   v090
        BYTE   W06
        BYTE                   As1   v112
        BYTE   W06
        BYTE                   Fs1   v075
        BYTE   W06
        BYTE                   Dn1   v090
        BYTE           N05     Fs1   v127
        BYTE           N05     Gn0
        BYTE           N05     En1
        BYTE           N05     As0   v090
        BYTE   W06
        BYTE                   Fs1
        BYTE   W06
        BYTE                   As1   v112
        BYTE   W06
        BYTE                   Fs1   v075
        BYTE           N05     Cn1   v080
        BYTE           N05     Bn0   v127
        BYTE   W06
        BYTE                   Fs1   v123
        BYTE   W06
        BYTE                   Fs1   v086
        BYTE   W06
        BYTE                   Cn1   v080
        BYTE           N05     Bn0   v127
        BYTE           N05     Fs1
        BYTE   W06
        BYTE                   As1   v090
        BYTE   W06
        BYTE                   Dn1
        BYTE           N05     As0
        BYTE           N05     Gn0   v127
        BYTE           N05     Fs1   v109
        BYTE           N05     En1   v127
        BYTE   W06
        BYTE                   Fs1   v072
        BYTE   W06
        BYTE                   As1   v105
        BYTE   W06
        BYTE                   Fs1   v068
        BYTE   W06
// 075   ----------------------------------------
        BYTE                   Cn1   v080
        BYTE           N05     Fs1   v127
        BYTE           N05     Bn0
        BYTE   W06
        BYTE                   Fs1   v090
        BYTE   W06
        BYTE                   As1   v112
        BYTE   W06
        BYTE                   Fs1   v075
        BYTE   W06
        BYTE                   Gn0   v127
        BYTE           N05     Fs1
        BYTE           N05     En1
        BYTE           N05     Dn1   v090
        BYTE           N05     As0
        BYTE   W06
        BYTE                   Fs1
        BYTE   W06
        BYTE                   As1   v112
        BYTE   W06
        BYTE                   Cn1   v080
        BYTE           N05     Fs1   v075
        BYTE           N05     Bn0   v127
        BYTE   W06
        BYTE                   Fs1   v123
        BYTE   W06
        BYTE                   Fs1   v086
        BYTE   W06
        BYTE                   Bn0   v127
        BYTE           N05     Fs1
        BYTE           N05     Cn1   v080
        BYTE   W06
        BYTE                   As1   v090
        BYTE   W06
        BYTE                   Gn0   v127
        BYTE           N05     As0   v090
        BYTE           N05     Fs1   v109
        BYTE           N05     Dn1   v090
        BYTE           N05     En1   v127
        BYTE   W06
        BYTE                   Fs1   v072
        BYTE   W06
        BYTE                   As1   v105
        BYTE   W06
        BYTE                   Fs1   v068
        BYTE   W06
// 076   ----------------------------------------
        BYTE                   Cn1   v080
        BYTE           N05     Fs1   v127
        BYTE           N05     Bn0
        BYTE   W06
        BYTE                   Fs1   v090
        BYTE   W06
        BYTE                   As1   v112
        BYTE   W06
        BYTE                   Fs1   v075
        BYTE   W06
        BYTE                   Dn1   v090
        BYTE           N05     Gn0   v127
        BYTE           N05     As0   v090
        BYTE           N05     En1   v127
        BYTE           N05     Fs1
        BYTE   W06
        BYTE                   Fs1   v090
        BYTE   W06
        BYTE                   As1   v112
        BYTE   W06
        BYTE                   Fs1   v075
        BYTE           N05     Cn1   v080
        BYTE           N05     Bn0   v127
        BYTE   W06
        BYTE                   Fs1   v123
        BYTE   W06
        BYTE                   Fs1   v086
        BYTE   W06
        BYTE                   Fs1   v127
        BYTE           N05     Bn0
        BYTE           N05     Cn1   v080
        BYTE   W06
        BYTE                   As1   v090
        BYTE   W06
        BYTE                   As0
        BYTE           N05     Gn0   v127
        BYTE           N05     Dn1   v090
        BYTE           N05     En1   v127
        BYTE           N05     Fs1   v109
        BYTE   W06
        BYTE                   Fs1   v072
        BYTE   W06
        BYTE                   As1   v105
        BYTE   W06
        BYTE                   Fs1   v068
        BYTE   W06
// 077   ----------------------------------------
        BYTE                   Cn1   v080
        BYTE           N05     Fs1   v127
        BYTE           N05     Bn0
        BYTE   W06
        BYTE                   Fs1   v090
        BYTE   W06
        BYTE                   As1   v112
        BYTE   W06
        BYTE                   Fs1   v075
        BYTE   W06
        BYTE                   Fs1   v127
        BYTE           N05     Gn0
        BYTE           N05     Dn1   v090
        BYTE           N05     En1   v127
        BYTE           N05     As0   v090
        BYTE   W06
        BYTE                   Fs1
        BYTE   W06
        BYTE                   As1   v112
        BYTE   W06
        BYTE                   Fs1   v075
        BYTE           N05     Cn1   v080
        BYTE           N05     Bn0   v127
        BYTE   W06
        BYTE                   Fs1   v123
        BYTE   W06
        BYTE                   Fs1   v086
        BYTE   W06
        BYTE                   Fs1   v127
        BYTE           N05     Cn1   v080
        BYTE           N05     Bn0   v127
        BYTE   W06
        BYTE                   As1   v090
        BYTE   W06
        BYTE                   As0
        BYTE           N05     Fs1   v109
        BYTE           N05     Dn1   v090
        BYTE           N05     En1   v127
        BYTE           N05     Gn0
        BYTE   W06
        BYTE                   Fs1   v072
        BYTE   W06
        BYTE                   As1   v105
        BYTE   W06
        BYTE                   Fs1   v068
        BYTE   W06
// 078   ----------------------------------------
        BYTE                   Bn0   v127
        BYTE           N05     Cn1   v080
        BYTE           N05     Fs1   v127
        BYTE   W06
        BYTE                   Fs1   v090
        BYTE   W06
        BYTE                   As1   v112
        BYTE   W06
        BYTE                   Fs1   v075
        BYTE   W06
        BYTE                   As0   v090
        BYTE           N05     Dn1
        BYTE           N05     Fs1   v127
        BYTE           N05     Gn0
        BYTE           N05     En1
        BYTE   W06
        BYTE                   Fs1   v090
        BYTE   W06
        BYTE                   As1   v112
        BYTE   W06
        BYTE                   Cn1   v080
        BYTE           N05     Fs1   v075
        BYTE           N05     Bn0   v127
        BYTE   W06
        BYTE                   Fs1   v123
        BYTE   W06
        BYTE                   Fs1   v086
        BYTE   W06
        BYTE                   Fs1   v127
        BYTE           N05     Cn1   v080
        BYTE           N05     Bn0   v127
        BYTE   W06
        BYTE                   As1   v090
        BYTE   W06
        BYTE                   As0
        BYTE           N05     Gn0   v127
        BYTE           N05     Fs1   v109
        BYTE           N05     En1   v127
        BYTE           N05     Dn1   v090
        BYTE   W06
        BYTE                   Fs1   v072
        BYTE   W06
        BYTE                   As1   v105
        BYTE   W06
        BYTE                   Fs1   v068
        BYTE   W06
// 079   ----------------------------------------
        BYTE                   Bn0   v127
        BYTE           N05     Cn1   v080
        BYTE           N05     Fs1   v127
        BYTE   W06
        BYTE                   Fs1   v090
        BYTE   W06
        BYTE                   As1   v112
        BYTE   W06
        BYTE                   Fs1   v075
        BYTE   W06
        BYTE                   As0   v090
        BYTE           N05     Fs1   v127
        BYTE           N05     Gn0
        BYTE           N05     Dn1   v090
        BYTE           N05     En1   v127
        BYTE   W06
        BYTE                   Fs1   v090
        BYTE   W06
        BYTE                   As1   v112
        BYTE   W06
        BYTE                   Cn1   v080
        BYTE           N05     Fs1   v075
        BYTE           N05     Bn0   v127
        BYTE   W06
        BYTE                   Fs1   v123
        BYTE   W06
        BYTE                   Fs1   v086
        BYTE   W06
        BYTE                   Fs1   v127
        BYTE           N05     Bn0
        BYTE           N05     Cn1   v080
        BYTE   W06
        BYTE                   As1   v090
        BYTE   W06
        BYTE                   Dn1
        BYTE           N05     Fs1   v109
        BYTE           N05     Gn0   v127
        BYTE           N05     As0   v090
        BYTE           N05     En1   v127
        BYTE   W06
        BYTE                   Fs1   v072
        BYTE   W06
        BYTE                   As1   v105
        BYTE   W06
        BYTE                   Fs1   v068
        BYTE   W06
// 080   ----------------------------------------
        BYTE                   Bn0   v127
        BYTE           N05     Cn1   v080
        BYTE           N05     Fs1   v127
        BYTE   W06
        BYTE                   Fs1   v090
        BYTE   W06
        BYTE                   As1   v112
        BYTE   W06
        BYTE                   Fs1   v075
        BYTE   W06
        BYTE                   Dn1   v090
        BYTE           N05     As0
        BYTE           N05     Fs1   v127
        BYTE           N05     En1
        BYTE           N05     Gn0
        BYTE   W06
        BYTE                   Fs1   v090
        BYTE   W06
        BYTE                   As1   v112
        BYTE   W06
        BYTE                   Bn0   v127
        BYTE           N05     Cn1   v080
        BYTE           N05     Fs1   v075
        BYTE   W06
        BYTE                   Fs1   v123
        BYTE   W06
        BYTE                   Fs1   v086
        BYTE   W06
        BYTE                   Bn0   v127
        BYTE           N05     Fs1
        BYTE           N05     Cn1   v080
        BYTE   W06
        BYTE                   As1   v090
        BYTE   W06
        BYTE                   En1   v127
        BYTE           N05     Gn0
        BYTE           N05     As0   v090
        BYTE           N05     Dn1
        BYTE           N05     Fs1   v109
        BYTE   W06
        BYTE                   Fs1   v072
        BYTE   W06
        BYTE                   As1   v105
        BYTE   W06
        BYTE                   Fs1   v068
        BYTE   W06
// 081   ----------------------------------------
        BYTE                   Cn1   v080
        BYTE           N05     Bn0   v127
        BYTE           N05     Fs1
        BYTE   W06
        BYTE                   Fs1   v090
        BYTE   W06
        BYTE                   As1   v112
        BYTE   W06
        BYTE                   Fs1   v075
        BYTE   W06
        BYTE                   Fs1   v127
        BYTE           N05     Dn1   v090
        BYTE           N05     As0
        BYTE           N05     En1   v127
        BYTE           N05     Gn0
        BYTE   W06
        BYTE                   Fs1   v090
        BYTE   W06
        BYTE                   As1   v112
        BYTE   W06
        BYTE                   Bn0   v127
        BYTE           N05     Fs1   v075
        BYTE           N05     Cn1   v080
        BYTE   W06
        BYTE                   Fs1   v123
        BYTE   W06
        BYTE                   Fs1   v086
        BYTE   W06
        BYTE                   Fs1   v127
        BYTE           N05     Bn0
        BYTE           N05     Cn1   v080
        BYTE   W06
        BYTE                   As1   v090
        BYTE   W06
        BYTE                   Dn1
        BYTE           N05     Gn0   v127
        BYTE           N05     As0   v090
        BYTE           N05     Fs1   v109
        BYTE           N05     En1   v127
        BYTE   W06
        BYTE                   Fs1   v072
        BYTE   W06
        BYTE                   As1   v105
        BYTE   W06
        BYTE                   Fs1   v068
        BYTE   W06
// 082   ----------------------------------------
        BYTE                   Fs1   v127
        BYTE           N05     Bn0
        BYTE           N05     Cn1   v080
        BYTE   W06
        BYTE                   Fs1   v090
        BYTE   W06
        BYTE                   As1   v112
        BYTE   W06
        BYTE                   Fs1   v075
        BYTE   W06
        BYTE                   En1   v127
        BYTE           N05     Fs1
        BYTE           N05     Gn0
        BYTE           N05     Dn1   v090
        BYTE           N05     As0
        BYTE   W06
        BYTE                   Fs1
        BYTE   W06
        BYTE                   As1   v112
        BYTE   W06
        BYTE                   Bn0   v127
        BYTE           N05     Cn1   v080
        BYTE           N05     Fs1   v075
        BYTE   W06
        BYTE                   Fs1   v123
        BYTE   W06
        BYTE                   Fs1   v086
        BYTE   W06
        BYTE                   Fs1   v127
        BYTE           N05     Bn0
        BYTE           N05     Cn1   v080
        BYTE   W06
        BYTE                   As1   v090
        BYTE   W06
        BYTE                   Gn0   v127
        BYTE           N05     As0   v090
        BYTE           N05     En1   v127
        BYTE           N05     Dn1   v090
        BYTE           N05     Fs1   v109
        BYTE   W06
        BYTE                   Fs1   v072
        BYTE   W06
        BYTE                   As1   v105
        BYTE   W06
        BYTE                   Fs1   v068
        BYTE   W06
// 083   ----------------------------------------
        BYTE                   Fs1   v127
        BYTE           N05     Bn0
        BYTE           N05     Cn1   v080
        BYTE   W06
        BYTE                   Fs1   v090
        BYTE   W06
        BYTE                   As1   v112
        BYTE   W06
        BYTE                   Fs1   v075
        BYTE   W06
        BYTE                   En1   v127
        BYTE           N05     Gn0
        BYTE           N05     Fs1
        BYTE           N05     Dn1   v090
        BYTE           N05     As0
        BYTE   W06
        BYTE                   Fs1
        BYTE   W06
        BYTE                   As1   v112
        BYTE   W06
        BYTE                   Fs1   v075
        BYTE           N05     Cn1   v080
        BYTE           N05     Bn0   v127
        BYTE   W06
        BYTE                   Fs1   v123
        BYTE   W06
        BYTE                   Fs1   v086
        BYTE   W06
        BYTE                   Cn1   v080
        BYTE           N05     Fs1   v127
        BYTE           N05     Bn0
        BYTE   W06
        BYTE                   As1   v090
        BYTE   W06
        BYTE                   Fs1   v109
        BYTE           N05     En1   v127
        BYTE           N05     Gn0
        BYTE           N05     Dn1   v090
        BYTE           N05     As0
        BYTE   W06
        BYTE                   Fs1   v072
        BYTE   W06
        BYTE                   As1   v105
        BYTE   W06
        BYTE                   Fs1   v068
        BYTE   W06
// 084   ----------------------------------------
        BYTE                   Cn1   v080
        BYTE           N05     Bn0   v127
        BYTE           N05     Fs1
        BYTE   W06
        BYTE                   Fs1   v090
        BYTE   W06
        BYTE                   As1   v112
        BYTE   W06
        BYTE                   Fs1   v075
        BYTE   W06
        BYTE                   As0   v090
        BYTE           N05     En1   v127
        BYTE           N05     Fs1
        BYTE           N05     Dn1   v090
        BYTE           N05     Gn0   v127
        BYTE   W06
        BYTE                   Fs1   v090
        BYTE   W06
        BYTE                   As1   v112
        BYTE   W06
        BYTE                   Cn1   v080
        BYTE           N05     Fs1   v075
        BYTE           N05     Bn0   v127
        BYTE   W06
        BYTE                   Fs1   v123
        BYTE   W06
        BYTE                   Fs1   v086
        BYTE   W06
        BYTE                   Fs1   v127
        BYTE           N05     Cn1   v080
        BYTE           N05     Bn0   v127
        BYTE   W06
        BYTE                   As1   v090
        BYTE   W06
        BYTE                   As0
        BYTE           N05     Fs1   v109
        BYTE           N05     En1   v127
        BYTE           N05     Dn1   v090
        BYTE           N05     Gn0   v127
        BYTE   W06
        BYTE                   Fs1   v072
        BYTE   W06
        BYTE                   As1   v105
        BYTE   W06
        BYTE                   Fs1   v068
        BYTE   W06
// 085   ----------------------------------------
        BYTE                   Bn0   v127
        BYTE           N05     Fs1
        BYTE           N05     Cn1   v080
        BYTE   W06
        BYTE                   Fs1   v090
        BYTE   W06
        BYTE                   As1   v112
        BYTE   W06
        BYTE                   Fs1   v075
        BYTE   W06
        BYTE                   Gn0   v127
        BYTE           N05     Fs1
        BYTE           N05     Dn1   v090
        BYTE           N05     En1   v127
        BYTE           N05     As0   v090
        BYTE   W06
        BYTE                   Fs1
        BYTE   W06
        BYTE                   As1   v112
        BYTE   W06
        BYTE                   Bn0   v127
        BYTE           N05     Fs1   v075
        BYTE           N05     Cn1   v080
        BYTE   W06
        BYTE                   Fs1   v123
        BYTE   W06
        BYTE                   Fs1   v086
        BYTE   W06
        BYTE                   Fs1   v127
        BYTE           N05     Bn0
        BYTE           N05     Cn1   v080
        BYTE   W06
        BYTE                   As1   v090
        BYTE   W06
        BYTE                   Gn0   v127
        BYTE           N05     As0   v090
        BYTE           N05     En1   v127
        BYTE           N05     Fs1   v109
        BYTE           N05     Dn1   v090
        BYTE   W06
        BYTE                   Fs1   v072
        BYTE   W06
        BYTE                   As1   v105
        BYTE   W06
        BYTE                   Fs1   v068
        BYTE   W06
// 086   ----------------------------------------
        BYTE                   Fs1   v127
        BYTE           N05     Bn0
        BYTE           N05     Cn1   v080
        BYTE   W06
        BYTE                   Fs1   v090
        BYTE   W06
        BYTE                   As1   v112
        BYTE   W06
        BYTE                   Fs1   v075
        BYTE   W06
        BYTE                   En1   v127
        BYTE           N05     Gn0
        BYTE           N05     Fs1
        BYTE           N05     Dn1   v090
        BYTE           N05     As0
        BYTE   W06
        BYTE                   Fs1
        BYTE   W06
        BYTE                   As1   v112
        BYTE   W06
        BYTE                   Bn0   v127
        BYTE           N05     Cn1   v080
        BYTE           N05     Fs1   v075
        BYTE   W06
        BYTE                   Fs1   v123
        BYTE   W06
        BYTE                   Fs1   v086
        BYTE   W06
        BYTE                   Bn0   v127
        BYTE           N05     Fs1
        BYTE           N05     Cn1   v080
        BYTE   W06
        BYTE                   As1   v090
        BYTE   W06
        BYTE                   En1   v127
        BYTE           N05     Dn1   v090
        BYTE           N05     As0
        BYTE           N05     Gn0   v127
        BYTE           N05     Fs1   v109
        BYTE   W06
        BYTE                   Fs1   v072
        BYTE   W06
        BYTE                   As1   v105
        BYTE   W06
        BYTE                   Fs1   v068
        BYTE   W06
// 087   ----------------------------------------
        BYTE                   Cn1   v080
        BYTE           N05     Fs1   v127
        BYTE           N05     Bn0
        BYTE   W06
        BYTE                   Fs1   v090
        BYTE   W06
        BYTE                   As1   v112
        BYTE   W06
        BYTE                   Fs1   v075
        BYTE   W06
        BYTE                   As0   v090
        BYTE           N05     En1   v127
        BYTE           N05     Gn0
        BYTE           N05     Dn1   v090
        BYTE           N05     Fs1   v127
        BYTE   W06
        BYTE                   Fs1   v090
        BYTE   W06
        BYTE                   As1   v112
        BYTE   W06
        BYTE                   Bn0   v127
        BYTE           N05     Cn1   v080
        BYTE           N05     Fs1   v075
        BYTE   W06
        BYTE                   Fs1   v123
        BYTE   W06
        BYTE                   Fs1   v086
        BYTE   W06
        BYTE                   Cn1   v080
        BYTE           N05     Fs1   v127
        BYTE           N05     Bn0
        BYTE   W06
        BYTE                   As1   v090
        BYTE   W06
        BYTE                   Gn0   v127
        BYTE           N05     En1
        BYTE           N05     Fs1   v109
        BYTE           N05     Dn1   v090
        BYTE           N05     As0
        BYTE   W06
        BYTE                   Fs1   v072
        BYTE   W06
        BYTE                   As1   v105
        BYTE   W06
        BYTE                   Fs1   v068
        BYTE   W06
// 088   ----------------------------------------
        BYTE                   Fs1   v127
        BYTE           N05     Bn0
        BYTE           N05     Cn1   v080
        BYTE   W06
        BYTE                   Fs1   v090
        BYTE   W06
        BYTE                   As1   v112
        BYTE   W06
        BYTE                   Fs1   v075
        BYTE   W06
        BYTE                   Gn0   v127
        BYTE           N05     En1
        BYTE           N05     Dn1   v090
        BYTE           N05     Fs1   v127
        BYTE           N05     As0   v090
        BYTE   W06
        BYTE                   Fs1
        BYTE   W06
        BYTE                   As1   v112
        BYTE   W06
        BYTE                   Bn0   v127
        BYTE           N05     Fs1   v075
        BYTE           N05     Cn1   v080
        BYTE   W06
        BYTE                   Fs1   v123
        BYTE   W06
        BYTE                   Fs1   v086
        BYTE   W06
        BYTE                   Bn0   v127
        BYTE           N05     Cn1   v080
        BYTE           N05     Fs1   v127
        BYTE   W06
        BYTE                   As1   v090
        BYTE   W06
        BYTE                   As0
        BYTE           N05     En1   v127
        BYTE           N05     Fs1   v109
        BYTE           N05     Dn1   v090
        BYTE           N05     Gn0   v127
        BYTE   W06
        BYTE                   Fs1   v072
        BYTE   W06
        BYTE                   As1   v105
        BYTE   W06
        BYTE                   Fs1   v068
        BYTE   W06
// 089   ----------------------------------------
        BYTE                   Bn0   v127
        BYTE           N05     Cn1   v080
        BYTE           N05     Fs1   v127
        BYTE   W06
        BYTE                   Fs1   v090
        BYTE   W06
        BYTE                   As1   v112
        BYTE   W06
        BYTE                   Fs1   v075
        BYTE   W06
        BYTE                   Gn0   v127
        BYTE           N05     Fs1
        BYTE           N05     En1
        BYTE           N05     Dn1   v090
        BYTE           N05     As0
        BYTE   W06
        BYTE                   Fs1
        BYTE   W06
        BYTE                   As1   v112
        BYTE   W06
        BYTE                   Fs1   v075
        BYTE           N05     Cn1   v080
        BYTE           N05     Bn0   v127
        BYTE   W06
        BYTE                   Fs1   v123
        BYTE   W06
        BYTE                   Fs1   v086
        BYTE   W06
        BYTE                   Cn1   v080
        BYTE           N05     Bn0   v127
        BYTE           N05     Fs1
        BYTE   W06
        BYTE                   As1   v090
        BYTE   W06
        BYTE                   Dn1
        BYTE           N05     Gn0   v127
        BYTE           N05     As0   v090
        BYTE           N05     Fs1   v109
        BYTE           N05     En1   v127
        BYTE   W06
        BYTE                   Fs1   v072
        BYTE   W06
        BYTE                   As1   v105
        BYTE   W06
        BYTE                   Fs1   v068
        BYTE   W06
// 090   ----------------------------------------
        BYTE                   Dn1   v090
        BYTE           N05     Gn0   v127
        BYTE           N05     As0   v090
        BYTE           N05     Fs1   v127
        BYTE           N05     En1
        BYTE           N05     Cs2
        BYTE   W06
        BYTE                   Fs1   v090
        BYTE   W06
        BYTE                   Gn0
        BYTE           N05     As0   v053
        BYTE           N05     Dn1
        BYTE           N05     Fs1   v112
        BYTE           N05     En1   v090
        BYTE   W06
        BYTE                   Fs1   v075
        BYTE   W06
        BYTE                   Dn1   v028
        BYTE           N05     Fs1   v127
        BYTE           N05     As0   v028
        BYTE           N05     En1   v065
        BYTE           N05     Gn0
        BYTE   W06
        BYTE                   Fs1   v090
        BYTE   W06
        BYTE                   En1   v034
        BYTE           N05     Dn1   v001
        BYTE           N05     Fs1   v112
        BYTE           N05     As0   v001
        BYTE           N05     Gn0   v034
        BYTE   W06
        BYTE                   Fs1   v075
        BYTE   W06
        BYTE                   As0   v001
        BYTE           N05     Fs1   v123
        BYTE           N05     Gn0   v020
        BYTE           N05     En1
        BYTE           N05     Dn1   v001
        BYTE   W06
        BYTE                   Fs1   v086
        BYTE   W06
        BYTE                   Fs1   v127
        BYTE   W06
        BYTE                   Fs1   v090
        BYTE   W06
        BYTE                   Fs1   v127
        BYTE   W06
        BYTE                   Fs1   v090
        BYTE   W06
        BYTE                   Fs1   v112
        BYTE   W06
        BYTE                   Fs1   v075
        BYTE   W06
// 091   ----------------------------------------
        BYTE                   As0   v090
        BYTE           N05     En1   v127
        BYTE           N05     Gn0
        BYTE           N05     Fs1
        BYTE           N05     Gn2
        BYTE           N05     Dn1   v090
        BYTE   W06
        BYTE                   En1   v127
        BYTE           N05     As0   v090
        BYTE           N05     Gn0   v127
        BYTE           N05     Fs1   v090
        BYTE           N05     Dn1
        BYTE   W06
        BYTE                   Fs1   v112
        BYTE           N05     Cn1   v080
        BYTE           N05     Bn0   v127
        BYTE   W06
        BYTE                   Dn1   v090
        BYTE           N05     An2   v127
        BYTE           N05     En1
        BYTE           N05     Gn0
        BYTE           N05     As0   v090
        BYTE           N05     Fs1   v075
        BYTE   W06
        BYTE                   Fs1   v123
        BYTE   W06
        BYTE                   Fs1   v086
        BYTE   W06
        BYTE                   Fs1   v127
        BYTE   W06
        BYTE                   En1   v065
        BYTE           N05     Gn0
        BYTE           N05     Fs1   v090
        BYTE           N05     Dn1   v028
        BYTE           N05     As0
        BYTE   W06
        BYTE                   Gn0   v127
        BYTE           N05     As0   v090
        BYTE           N05     En1   v127
        BYTE           N05     Fs1   v109
        BYTE           N05     Dn1   v090
        BYTE   W06
        BYTE                   En1   v034
        BYTE           N05     Fs1   v072
        BYTE           N05     Gn0   v034
        BYTE           N05     Dn1   v001
        BYTE           N05     As0
        BYTE   W06
        BYTE                   As0   v090
        BYTE           N05     En1   v127
        BYTE           N05     Gn0
        BYTE           N05     Fs1   v105
        BYTE           N05     Dn1   v090
        BYTE   W06
        BYTE                   En1   v065
        BYTE           N05     As0   v028
        BYTE           N05     Fs1   v068
        BYTE           N05     Gn0   v065
        BYTE           N05     Dn1   v028
        BYTE   W06
// 092   ----------------------------------------
        BYTE   GoTo
         POIN2  Plantation_Crash_Zone66_Song_14_LOOP
        BYTE   FINE


//********************** End of Song ***********************//

        ALIGN 4
Plantation_Crash_Zone66_Song:
        BYTE   15                      // Num Tracks
        BYTE   0                       // Unknown
        BYTE   Plantation_Crash_Zone66_Song_pri // Priority
        BYTE   Plantation_Crash_Zone66_Song_rev // Reverb

        POIN2   Plantation_Crash_Zone66_Song_grp

        POIN2   Plantation_Crash_Zone66_Song_0
        POIN2   Plantation_Crash_Zone66_Song_1
        POIN2   Plantation_Crash_Zone66_Song_2
        POIN2   Plantation_Crash_Zone66_Song_3
        POIN2   Plantation_Crash_Zone66_Song_4
        POIN2   Plantation_Crash_Zone66_Song_5
        POIN2   Plantation_Crash_Zone66_Song_6
        POIN2   Plantation_Crash_Zone66_Song_7
        POIN2   Plantation_Crash_Zone66_Song_8
        POIN2   Plantation_Crash_Zone66_Song_9
        POIN2   Plantation_Crash_Zone66_Song_10
        POIN2   Plantation_Crash_Zone66_Song_11
        POIN2   Plantation_Crash_Zone66_Song_12
        POIN2   Plantation_Crash_Zone66_Song_13
        POIN2   Plantation_Crash_Zone66_Song_14


